<svg width="237" height="54" viewBox="0 0 237 54" fill="none" xmlns="http://www.w3.org/2000/svg">
<g opacity="0.3">
<path d="M46.691 29.4381L40.136 25.9611L46.691 22.4271L44.582 18.7221L38.255 22.6551L38.483 15.2451H34.208L34.436 22.6551L28.109 18.7221L26 22.4271L32.555 25.9611L26 29.4381L28.109 33.1431L34.436 29.2101L34.208 36.6771H38.483L38.255 29.2101L44.582 33.1431L46.691 29.4381Z" fill="white"/>
<path d="M84.046 29.4381L77.491 25.9611L84.046 22.4271L81.937 18.7221L75.61 22.6551L75.838 15.2451H71.563L71.791 22.6551L65.464 18.7221L63.355 22.4271L69.91 25.9611L63.355 29.4381L65.464 33.1431L71.791 29.2101L71.563 36.6771H75.838L75.61 29.2101L81.937 33.1431L84.046 29.4381Z" fill="white"/>
<path d="M121.401 29.4381L114.846 25.9611L121.401 22.4271L119.292 18.7221L112.965 22.6551L113.193 15.2451H108.918L109.146 22.6551L102.819 18.7221L100.71 22.4271L107.265 25.9611L100.71 29.4381L102.819 33.1431L109.146 29.2101L108.918 36.6771H113.193L112.965 29.2101L119.292 33.1431L121.401 29.4381Z" fill="white"/>
<path d="M158.756 29.4381L152.201 25.9611L158.756 22.4271L156.647 18.7221L150.32 22.6551L150.548 15.2451H146.273L146.501 22.6551L140.174 18.7221L138.065 22.4271L144.62 25.9611L138.065 29.4381L140.174 33.1431L146.501 29.2101L146.273 36.6771H150.548L150.32 29.2101L156.647 33.1431L158.756 29.4381Z" fill="white"/>
</g>
<path d="M182 16V39H202.101L205 36.1008V16H182ZM197.784 37.5182H189.151V31.7843H197.784V37.5182ZM200.683 27.4678H186.316V17.4174H200.683V27.4678Z" fill="#99CEFF"/>
<rect opacity="0.3" x="0.5" y="0.5" width="236" height="53" rx="26.5" stroke="white"/>
</svg>
