<svg width="25" height="24" viewBox="0 0 25 24" fill="none" xmlns="http://www.w3.org/2000/svg">
<path d="M23.8572 20.1781L20.3641 13.5636C19.4723 11.9285 18.0602 9.32727 17.2426 7.69221L13.7496 1.2263C12.8577 -0.408761 11.4456 -0.408761 10.6281 1.2263L7.13498 7.69221C6.24312 9.32727 4.83106 11.9285 4.01353 13.5636L0.52044 20.1038C-0.371411 21.7389 0.44611 23.151 2.22981 23.151H8.84439C10.7024 23.151 13.6752 23.151 15.4589 23.151H22.0735C23.9315 23.2253 24.749 21.8132 23.8572 20.1781ZM13.8239 19.8809H10.4794V16.5364H13.8239V19.8809ZM13.8239 14.9013H10.4794V8.28679H13.8239V14.9013Z" fill="#FB5E5B"/>
</svg>
