<svg width="240" height="251" viewBox="0 0 240 251" fill="none" xmlns="http://www.w3.org/2000/svg">
<path opacity="0.73" d="M224.921 88.8185L224.92 88.8262L224.919 88.834C224.623 90.6483 223.582 92.3439 222.201 93.757C220.849 95.1408 219.201 96.2225 217.703 96.8515H170.242H169.827L169.751 97.2592L160.239 147.882L160.128 148.474H160.73H210.827C212.403 148.474 214.07 150.115 213.512 152.399L213.509 152.41L213.507 152.421L205.897 191.362L205.896 191.37L205.895 191.378C205.299 195.035 201.698 198.097 198.144 198.097H150.584H150.174L150.094 198.5L142.484 236.791L142.482 236.8L142.481 236.808C141.885 240.466 138.285 243.528 134.731 243.528H85.268C83.6921 243.528 82.0253 241.887 82.5831 239.603L82.586 239.591L82.5883 239.579L100.344 147.42L100.459 146.825H99.8532H40.8785H40.4656L40.3875 147.231L23.2659 236.145L23.2645 236.152L23.2633 236.159C22.6677 239.817 19.067 242.879 15.5131 242.879H-32.0471C-33.6231 242.879 -35.2899 241.238 -34.7321 238.954L-34.7286 238.94L-34.726 238.926L-27.1164 197.389L-27.0083 196.799H-27.6082H-77.7049C-79.2809 196.799 -80.9477 195.158 -80.3899 192.875L-80.3871 192.863L-80.3849 192.852L-72.7753 153.911L-72.7737 153.904L-72.7725 153.896C-72.1768 150.238 -68.5761 147.176 -65.0222 147.176H-17.462H-17.0472L-16.9706 146.769L-7.45856 96.1458L-7.34727 95.5535H-7.94997H-58.0467C-59.6226 95.5535 -61.2894 93.9124 -60.7317 91.6291L-60.7289 91.6178L-60.7267 91.6063L-53.117 52.6657L-53.1155 52.658L-53.1143 52.6502C-52.5186 48.9923 -48.9179 45.9307 -45.364 45.9307H1.56207H1.97249L2.05248 45.5282L9.66212 7.23657L9.66381 7.22805L9.66521 7.21947C10.2609 3.56158 13.8616 0.5 17.4155 0.5H64.9757C67.2542 0.5 68.8841 2.22852 68.9142 3.84855L51.1678 95.9589L51.0533 96.5535H51.6588H110.633H111.046L111.124 96.148L128.246 7.23366L128.247 7.22658L128.249 7.21948C128.844 3.56158 132.445 0.5 135.999 0.5H183.559C184.347 0.5 185.166 0.908848 185.718 1.54476C186.266 2.17552 186.505 2.97056 186.254 3.73921L186.244 3.77104L186.238 3.80396L178.628 45.3406L178.52 45.9307H179.12H229.217C230.343 45.9307 231.144 46.3553 231.677 47.0366C232.215 47.7252 232.514 48.7233 232.522 49.9261L224.921 88.8185Z" stroke="url(#paint0_linear)"/>
<path opacity="0.73" d="M231.899 95.7906L231.898 95.7984L231.897 95.8062C231.601 97.6205 230.56 99.3161 229.179 100.729C227.827 102.113 226.179 103.195 224.681 103.824H177.22H176.805L176.729 104.231L167.217 154.854L167.106 155.446H167.708H217.805C219.381 155.446 221.048 157.088 220.49 159.371L220.487 159.382L220.485 159.394L212.875 198.334L212.874 198.342L212.873 198.35C212.277 202.008 208.676 205.069 205.122 205.069H157.562H157.152L157.072 205.472L149.462 243.763L149.46 243.772L149.459 243.78C148.863 247.438 145.263 250.5 141.709 250.5H92.2461C90.6702 250.5 89.0033 248.859 89.5611 246.576L89.564 246.564L89.5663 246.551L107.322 154.392L107.437 153.797H106.831H47.8565H47.4436L47.3656 154.203L30.2439 243.117L30.2425 243.124L30.2414 243.131C29.6457 246.789 26.045 249.851 22.4911 249.851H-25.0691C-26.645 249.851 -28.3118 248.21 -27.7541 245.927L-27.7506 245.912L-27.748 245.898L-20.1383 204.361L-20.0302 203.771H-20.6302H-70.7269C-72.3028 203.771 -73.9696 202.13 -73.4119 199.847L-73.4091 199.835L-73.4069 199.824L-65.7972 160.883L-65.7957 160.876L-65.7945 160.868C-65.1988 157.21 -61.5981 154.148 -58.0442 154.148H-10.484H-10.0692L-9.99258 153.741L-0.480537 103.118L-0.36924 102.526H-0.971939H-51.0687C-52.6446 102.526 -54.3114 100.885 -53.7536 98.6012L-53.7509 98.5899L-53.7486 98.5785L-46.139 59.6379L-46.1375 59.6301L-46.1362 59.6223C-45.5406 55.9645 -41.9399 52.9029 -38.386 52.9029H8.5401H8.95052L9.03051 52.5003L16.6401 14.2087L16.6418 14.2002L16.6432 14.1916C17.2389 10.5337 20.8396 7.47217 24.3935 7.47217H71.9537C74.2322 7.47217 75.8622 9.20068 75.8922 10.8207L58.1459 102.931L58.0313 103.526H58.6368H117.612H118.024L118.102 103.12L135.224 14.2058L135.226 14.1988L135.227 14.1916C135.822 10.5337 139.423 7.47217 142.977 7.47217H190.537C191.325 7.47217 192.144 7.88102 192.696 8.51693C193.244 9.14769 193.483 9.94273 193.232 10.7114L193.222 10.7432L193.216 10.7761L185.606 52.3128L185.498 52.9029H186.098H236.195C237.321 52.9029 238.122 53.3274 238.655 54.0088C239.193 54.6974 239.492 55.6954 239.5 56.8983L231.899 95.7906Z" stroke="url(#paint1_linear)"/>
<defs>
<linearGradient id="paint0_linear" x1="179.812" y1="-32.2465" x2="-31.9168" y2="251.176" gradientUnits="userSpaceOnUse">
<stop stop-color="#474FF5"/>
<stop offset="1" stop-color="#E90273"/>
</linearGradient>
<linearGradient id="paint1_linear" x1="162.367" y1="103.712" x2="-56.9983" y2="146.924" gradientUnits="userSpaceOnUse">
<stop stop-color="#00D9E6"/>
<stop offset="1" stop-color="#E1FF00"/>
</linearGradient>
</defs>
</svg>
