<svg width="90" height="13" viewBox="0 0 90 13" fill="none" xmlns="http://www.w3.org/2000/svg">
<path d="M14.3549 5.70194L14.7114 3.91987C14.7411 3.80107 14.652 3.71197 14.5629 3.71197H12.1862L12.5427 1.81109C12.5724 1.69229 12.4833 1.60319 12.3942 1.60319H10.1661C9.98782 1.60319 9.80957 1.75169 9.77986 1.9299L8.97773 5.99895H6.21486L7.04669 1.78139C7.0764 1.66259 6.98728 1.57349 6.89815 1.57349H4.67003C4.49178 1.57349 4.31353 1.72199 4.28382 1.9002L3.86791 3.71197H1.66949C1.49124 3.71197 1.31299 3.86047 1.28328 4.03868L0.926785 5.82074C0.897076 5.93955 0.986201 6.02865 1.07533 6.02865H3.42228L2.97666 8.34534H0.748535C0.570285 8.34534 0.392035 8.49384 0.362327 8.67205L0.00582736 10.4541C-0.0238809 10.5729 0.0652439 10.662 0.154369 10.662H2.50132L2.14482 12.5629C2.14482 12.6817 2.20424 12.7708 2.32307 12.7708H4.5512C4.72945 12.7708 4.9077 12.6223 4.93741 12.4441L5.73953 8.37504H8.5024L7.67057 12.5926C7.67057 12.6817 7.72999 12.7708 7.84882 12.7708H10.1066C10.2849 12.7708 10.4631 12.6223 10.4929 12.4441L10.8494 10.6917H13.0775C13.2557 10.6917 13.434 10.5432 13.4637 10.365L13.8202 8.58294C13.8499 8.46414 13.7608 8.37504 13.6716 8.37504H11.3247L11.7703 6.05835H13.9984C14.147 6.02865 14.3252 5.88015 14.3549 5.70194Z" fill="#99CEFF" fill-opacity="0.5"/>
<path d="M29.0288 12.6515C28.9694 12.7406 28.8803 12.7703 28.702 12.7703H26.7116C26.4442 12.7703 26.3254 12.6515 26.3848 12.3842L27.3057 7.63205C27.4246 7.06772 27.3949 6.71131 27.276 6.5331C27.1572 6.3549 26.9195 6.2658 26.563 6.2658C26.3551 6.2658 26.058 6.3252 25.7312 6.444C25.4044 6.56281 25.1073 6.68161 24.84 6.80041L24.6914 7.63205L23.7705 12.3842C23.7408 12.4733 23.711 12.5624 23.6516 12.6515C23.5922 12.7109 23.4734 12.7703 23.3248 12.7703H21.3344C21.067 12.7703 20.9779 12.6515 21.0373 12.3842L21.9583 7.57264C22.0474 7.06772 22.0474 6.71131 21.9285 6.5331C21.8097 6.3549 21.572 6.2658 21.2453 6.2658C21.0373 6.2658 20.7402 6.3252 20.4134 6.4143C20.0866 6.5331 19.7895 6.65191 19.4925 6.77071L18.3933 12.3842C18.3636 12.4733 18.3338 12.5624 18.2744 12.6515C18.215 12.7406 18.0962 12.7703 17.9179 12.7703H15.9275C15.6601 12.7703 15.571 12.6515 15.6304 12.3842L17.2049 4.24612C17.2346 4.12732 17.2643 4.03821 17.3535 3.94911C17.4129 3.88971 17.5317 3.83031 17.6803 3.83031H19.6707C19.849 3.83031 19.9381 3.86001 19.9678 3.94911C19.9975 4.03821 19.9975 4.12732 19.9678 4.21642L19.9084 4.66194L19.9381 4.69164C20.3837 4.36493 20.859 4.12732 21.3344 3.94911C21.8097 3.7709 22.3148 3.6818 22.7604 3.6818C23.2951 3.6818 23.7705 3.7709 24.127 3.97881C24.5132 4.18672 24.7508 4.48373 24.84 4.89955C25.345 4.54313 25.8797 4.24612 26.4739 4.00851C27.0384 3.7709 27.6028 3.6521 28.1376 3.6521C28.7912 3.6521 29.2665 3.7709 29.5636 3.97881C29.8904 4.18672 30.0983 4.45403 30.1875 4.81044C30.3063 5.13715 30.336 5.52327 30.2766 5.93908C30.2469 6.3549 30.1577 6.77071 30.0983 7.21623L29.0882 12.3842C29.118 12.4733 29.0882 12.5624 29.0288 12.6515Z" fill="#99CEFF" fill-opacity="0.5"/>
<path d="M30.7822 9.88852C30.7822 9.50241 30.8119 9.11629 30.8714 8.73018C30.9308 8.34406 31.0199 7.95795 31.109 7.57184C31.2278 7.12632 31.4061 6.6511 31.6141 6.20559C31.822 5.76007 32.1191 5.34425 32.5053 4.95814C32.8915 4.57203 33.3668 4.27501 33.961 4.06711C34.5255 3.8295 35.2682 3.71069 36.1297 3.71069C36.5456 3.71069 36.9616 3.7701 37.3478 3.8592C37.734 3.9483 38.0905 4.09681 38.3876 4.30472C38.6846 4.51262 38.9223 4.75023 39.1006 5.07694C39.2788 5.37395 39.3679 5.73037 39.3679 6.14618C39.3679 6.85901 39.1897 7.42333 38.8035 7.86885C38.4173 8.31436 37.9419 8.64107 37.3775 8.87868C36.813 9.11629 36.1891 9.2648 35.5356 9.3539C34.882 9.443 34.0798 9.50241 33.5154 9.53211C33.456 9.65091 33.4263 10.0073 33.4263 10.1855C33.4263 10.7201 34.3472 10.7796 34.5255 10.8093C35.2088 10.8984 36.6051 10.7202 37.6151 10.5419C37.734 10.5122 37.8528 10.5122 37.9419 10.5419C38.0311 10.5716 38.0608 10.6607 38.0608 10.839V11.7003C38.0608 11.9379 38.0311 12.1161 37.9419 12.2052C37.8528 12.2943 37.7043 12.4131 37.4369 12.5022C37.2289 12.5616 36.9913 12.6507 36.7239 12.6804C36.4565 12.7398 36.1891 12.7695 35.8921 12.7992C35.595 12.8289 35.3276 12.8586 35.0305 12.8586C34.7334 12.8883 34.4661 12.8883 34.2284 12.8883C33.7233 12.8883 33.248 12.8289 32.8024 12.7398C32.3865 12.621 32.03 12.4428 31.7032 12.2052C31.4061 11.9676 31.1684 11.6409 30.9902 11.2548C30.8714 10.8984 30.7822 10.4231 30.7822 9.88852ZM36.7833 6.47289C36.7833 6.23529 36.6942 6.05708 36.5456 5.90857C36.3971 5.76007 36.1594 5.67097 35.8623 5.67097C35.5653 5.67097 35.1791 5.76007 34.9711 5.90857C34.7631 6.05708 34.5849 6.26499 34.4363 6.5026C34.2878 6.7402 34.169 7.00751 34.0798 7.30453C33.9907 7.60154 33.9907 7.57184 33.9313 7.83914C35.4167 7.89855 36.3674 7.42333 36.5456 7.21542C36.6942 7.03722 36.7833 6.79961 36.7833 6.47289Z" fill="#99CEFF" fill-opacity="0.5"/>
<path d="M45.6664 11.9391C45.6664 12.0579 45.6367 12.2064 45.5476 12.2955C45.4584 12.4143 45.3396 12.4737 45.2208 12.5034C44.9831 12.5628 44.7454 12.6222 44.4781 12.6816C44.2107 12.741 43.973 12.7707 43.7354 12.8004C43.4977 12.8301 43.26 12.8598 43.0521 12.8598C42.8441 12.8598 42.6659 12.8895 42.5173 12.8895C41.9529 12.8895 41.5072 12.8004 41.1804 12.6519C40.8536 12.5034 40.616 12.2658 40.4971 11.9985C40.3486 11.7312 40.2892 11.4342 40.2892 11.0778C40.2892 10.7213 40.3189 10.3649 40.408 10.0085L41.2101 5.96917H40.408C40.2595 5.96917 40.1704 5.93947 40.1406 5.88007C40.1109 5.82067 40.0812 5.70186 40.1109 5.58306L40.3783 4.21681C40.408 4.098 40.4377 3.9792 40.5269 3.9198C40.5863 3.86039 40.7051 3.83069 40.8536 3.83069H41.6558L41.9826 2.10803C42.0717 1.75162 42.2202 1.63281 42.5173 1.63281H44.4484C44.7454 1.63281 44.686 1.81102 44.686 1.95952L44.3295 3.83069H46.1714C46.3497 3.83069 46.4388 3.86039 46.4685 3.9198C46.4982 3.9792 46.4982 4.0683 46.4685 4.21681L46.2011 5.58306C46.1714 5.70186 46.1417 5.82067 46.0823 5.88007C46.0229 5.93947 45.9041 5.96917 45.7555 5.96917H43.8839L43.26 9.32539C43.2303 9.5036 43.2006 9.65211 43.2006 9.77091C43.2006 9.88972 43.2303 9.97882 43.26 10.0679C43.3194 10.157 43.4086 10.2164 43.5571 10.2461C43.7056 10.2758 43.8839 10.3055 44.1513 10.3055C44.2998 10.3055 44.4781 10.3055 44.7157 10.2758C44.9534 10.2758 45.1911 10.2461 45.399 10.2164C45.5178 10.2164 45.607 10.2164 45.6664 10.2461C45.7258 10.2758 45.7555 10.3946 45.7555 10.6025L45.6664 11.9391Z" fill="#99CEFF" fill-opacity="0.5"/>
<path d="M54.638 12.3549C54.638 12.444 54.5786 12.5331 54.5192 12.6222C54.4597 12.7113 54.3409 12.741 54.1627 12.741H52.1128C51.9642 12.741 51.8751 12.7113 51.8454 12.6519C51.8157 12.5925 51.8157 12.5034 51.8454 12.3846L51.9345 11.939L51.9048 11.9093C51.3998 12.236 50.8947 12.5034 50.4788 12.6519C50.0332 12.8004 49.5876 12.8895 49.1717 12.8895C48.2804 12.8895 47.6565 12.6519 47.3298 12.2063C47.003 11.7311 46.8247 11.1074 46.8247 10.3352C46.8247 10.0382 46.8544 9.74116 46.8841 9.41445C46.9138 9.08774 46.9732 8.76102 47.0327 8.40461C47.1515 7.69178 47.3297 7.06806 47.5377 6.50374C47.7457 5.93942 47.9833 5.4345 48.3101 5.04839C48.6369 4.63257 49.0231 4.33556 49.4687 4.09795C49.9441 3.86034 50.5085 3.77124 51.1918 3.77124C51.5186 3.77124 51.8751 3.83064 52.291 3.91975C52.707 4.03855 53.0634 4.18706 53.4199 4.36526L53.4794 4.06825C53.5091 3.94945 53.5388 3.86034 53.5982 3.83064C53.6576 3.80094 53.7467 3.77124 53.8656 3.77124H55.8857C56.064 3.77124 56.1531 3.80094 56.1828 3.89004C56.2125 3.94945 56.2125 4.06825 56.1828 4.18706L54.638 12.3549ZM51.6672 6.05822C51.4295 6.05822 51.1621 6.08792 50.9839 6.17703C50.8056 6.26613 50.6571 6.35523 50.5085 6.53344C50.3897 6.68195 50.1817 7.15716 50.0926 7.42447C50.0035 7.69178 49.9144 7.98879 49.855 8.34521C49.7658 8.82043 49.7064 9.29564 49.7064 9.56295C49.7064 9.94907 49.7658 10.2164 49.8847 10.3352C50.0035 10.454 50.2114 10.5134 50.4788 10.5134C50.7462 10.5134 51.1621 10.4243 51.5186 10.3352C51.8157 10.2461 52.1722 10.0679 52.3207 9.97877L53.0337 6.38494C52.5287 6.11763 52.0534 6.05822 51.6672 6.05822Z" fill="#99CEFF" fill-opacity="0.5"/>
<path d="M64.2351 12.4448C64.2054 12.6527 64.0865 12.7418 63.8489 12.7418H63.0765C62.8685 12.7418 62.7794 12.6527 62.8388 12.4448L63.8786 7.09856C63.938 6.68274 63.9974 6.35603 63.9974 6.08872C63.9974 5.82141 63.9677 5.61351 63.8786 5.4353C63.7895 5.28679 63.6706 5.16799 63.4924 5.10859C63.3141 5.04919 63.0765 5.01948 62.8091 5.01948C62.6011 5.01948 62.3337 5.04918 62.007 5.13829C61.6802 5.22739 61.3831 5.31649 61.086 5.4353C60.7889 5.5541 60.4918 5.64321 60.1948 5.76201C59.9274 5.88082 59.7194 5.96992 59.5709 6.02932L58.3231 12.4448C58.2934 12.6527 58.1746 12.7418 57.9369 12.7418H57.1942C56.9863 12.7418 56.8971 12.6527 56.9565 12.4448L59.3629 0.297011C59.4223 0.0891033 59.5412 0 59.7194 0H60.4621C60.6701 0 60.7592 0.0891033 60.7295 0.297011L59.8382 4.90068H59.868C60.0462 4.81158 60.2542 4.69277 60.5215 4.54427C60.7889 4.42546 61.0563 4.27696 61.3831 4.18785C61.6802 4.06905 62.007 3.97995 62.3338 3.89084C62.6605 3.80174 62.9873 3.77204 63.3141 3.77204C63.9083 3.77204 64.3539 3.86114 64.651 4.03935C64.9778 4.21755 65.1857 4.45516 65.3046 4.72247C65.4234 5.01948 65.4828 5.3759 65.4531 5.79171C65.4234 6.20753 65.364 6.65304 65.2749 7.12826L64.2351 12.4448Z" fill="#99CEFF" fill-opacity="0.5"/>
<path d="M72.6418 12.4456C72.6121 12.6535 72.4933 12.7426 72.2853 12.7426H71.5426C71.3347 12.7426 71.2455 12.6535 71.2753 12.4456L71.3941 11.7625C70.9485 12.0298 70.4434 12.2971 69.9087 12.5644C69.3739 12.802 68.7501 12.9208 68.0668 12.9208C67.2349 12.9208 66.6408 12.7129 66.2843 12.2971C65.9278 11.8813 65.7495 11.2575 65.7495 10.4556C65.7495 10.1586 65.7792 9.83189 65.8089 9.50518C65.8386 9.14877 65.8981 8.79236 65.9872 8.46564C66.1357 7.72312 66.314 7.03999 66.5219 6.47567C66.7299 5.91135 66.9973 5.40643 67.3241 5.02032C67.6508 4.6342 68.0668 4.30749 68.5421 4.12929C69.0174 3.92138 69.6116 3.83228 70.3246 3.83228C70.6514 3.83228 71.0376 3.89168 71.4832 4.01048C71.9288 4.12929 72.3448 4.27779 72.7904 4.5154L72.8201 4.4857L72.8795 4.21839C72.9092 4.09959 72.9389 4.04018 72.9983 4.01048C73.0578 3.98078 73.1469 3.98078 73.2657 3.98078H73.949C74.0678 3.98078 74.157 4.01048 74.2164 4.04018C74.2461 4.06988 74.2461 4.15899 74.2461 4.30749L72.6418 12.4456ZM72.6418 5.58464C71.7803 5.19852 70.9485 5.02032 70.1463 5.02032C69.7601 5.02032 69.4036 5.07972 69.1363 5.19853C68.8392 5.31733 68.6015 5.49554 68.3935 5.76285C68.1856 6.03016 68.0073 6.38657 67.8588 6.83209C67.7103 7.2776 67.5617 7.81222 67.4429 8.46564C67.3835 8.85176 67.3241 9.20817 67.2646 9.50518C67.2349 9.83189 67.2052 10.0695 67.2052 10.2774C67.2052 10.8417 67.3241 11.1981 67.532 11.3764C67.74 11.5546 68.0668 11.6437 68.4827 11.6437C68.6906 11.6437 68.958 11.614 69.2551 11.5249C69.5522 11.4655 69.8493 11.3764 70.1463 11.2575C70.4434 11.1387 70.7405 11.0496 71.0079 10.9308C71.2753 10.812 71.5129 10.7229 71.6615 10.6338L72.6418 5.58464Z" fill="#99CEFF" fill-opacity="0.5"/>
<path d="M81.4356 4.98924C81.4059 5.07834 81.3464 5.13774 81.2573 5.16744C81.1682 5.19714 81.0494 5.19714 80.9305 5.19714C80.574 5.16744 80.1878 5.10804 79.8016 5.07834C79.4154 5.04864 79.0292 5.01894 78.643 5.01894C78.3459 5.01894 78.0785 5.04864 77.8409 5.07834C77.6032 5.10804 77.3655 5.19714 77.1873 5.31595C77.009 5.43475 76.8605 5.58326 76.7714 5.76147C76.6822 5.93967 76.6228 6.17728 76.6228 6.47429C76.6228 6.6822 76.6822 6.86041 76.7714 6.97921C76.8605 7.09801 76.9793 7.21682 77.1279 7.30592C77.2764 7.39503 77.4547 7.45443 77.6626 7.51383C77.8706 7.57323 78.0488 7.60293 78.2568 7.66233C78.435 7.69204 78.7024 7.75144 78.9995 7.84054C79.2966 7.92964 79.5937 8.04845 79.861 8.19695C80.1284 8.34546 80.3661 8.58307 80.574 8.85038C80.7523 9.11769 80.8711 9.4741 80.8711 9.91962C80.8711 10.5136 80.7523 11.0186 80.574 11.4047C80.3661 11.7908 80.0987 12.0878 79.7422 12.3254C79.3857 12.563 78.9698 12.7115 78.5241 12.8006C78.0488 12.8897 77.5735 12.9491 77.0684 12.9491C76.8308 12.9491 76.5931 12.9491 76.3257 12.9194C76.0584 12.8897 75.791 12.86 75.5236 12.8303C75.2562 12.8006 75.0186 12.7412 74.8106 12.7115C74.573 12.6521 74.3947 12.5927 74.2462 12.5333C74.0976 12.4442 74.0679 12.3254 74.1273 12.1472L74.2759 11.7611C74.3353 11.6423 74.3947 11.5829 74.4541 11.5532C74.5135 11.5235 74.6027 11.5235 74.7215 11.5235C74.8997 11.5532 75.1077 11.5829 75.3157 11.5829C75.5533 11.6126 75.7613 11.6423 75.9989 11.6423C76.2366 11.672 76.4446 11.672 76.6822 11.7017C76.8902 11.7017 77.0684 11.7314 77.217 11.7314C77.5438 11.7314 77.8111 11.7017 78.1082 11.672C78.3756 11.6126 78.6133 11.5532 78.8212 11.4344C79.0292 11.3156 79.1777 11.1671 79.2966 10.9592C79.4154 10.7512 79.4748 10.4839 79.4748 10.1572C79.4748 9.71171 79.3263 9.4147 79.0292 9.23649C78.7321 9.05829 78.3756 8.93948 77.93 8.88008C77.6626 8.85038 77.3952 8.79098 77.0684 8.70187C76.7417 8.61277 76.4743 8.49397 76.1772 8.34546C75.9098 8.19695 75.6722 7.98905 75.4939 7.72174C75.3157 7.45443 75.2265 7.12772 75.2265 6.7119C75.2265 6.17728 75.3157 5.73176 75.5236 5.37535C75.7316 5.01894 75.9692 4.72193 76.3257 4.48432C76.6525 4.24671 77.0387 4.0982 77.4844 4.0091C77.9003 3.92 78.3756 3.8606 78.8509 3.8606C79.0292 3.8606 79.2372 3.8606 79.4748 3.8903C79.7125 3.8903 79.9799 3.92 80.2472 3.9497C80.5146 3.9794 80.7523 4.0388 80.9899 4.0982C81.2276 4.15761 81.4356 4.21701 81.5841 4.27641C81.6732 4.30611 81.7029 4.36551 81.7327 4.42492C81.7327 4.48432 81.7327 4.57342 81.7029 4.63282L81.4356 4.98924Z" fill="#99CEFF" fill-opacity="0.5"/>
<path d="M88.7742 12.4448C88.7445 12.6527 88.6257 12.7418 88.388 12.7418H87.6156C87.4076 12.7418 87.3185 12.6527 87.3779 12.4448L88.4177 7.09856C88.4771 6.68274 88.5366 6.35603 88.5366 6.08872C88.5366 5.82141 88.5069 5.61351 88.4177 5.4353C88.3286 5.28679 88.2098 5.16799 88.0315 5.10859C87.8533 5.04919 87.6156 5.01948 87.3482 5.01948C87.1403 5.01948 86.8729 5.04918 86.5461 5.13829C86.2193 5.22739 85.9222 5.31649 85.6251 5.4353C85.3281 5.5541 85.031 5.64321 84.7339 5.76201C84.4665 5.88082 84.2586 5.96992 84.11 6.02932L82.892 12.4448C82.8623 12.6527 82.7434 12.7418 82.5058 12.7418H81.7631C81.5551 12.7418 81.466 12.6527 81.5254 12.4448L83.9021 0.297011C83.9615 0.0891033 84.0803 0 84.2586 0H85.0013C85.2092 0 85.2983 0.0891033 85.2686 0.297011L84.3774 4.90068H84.4071C84.5854 4.81158 84.7933 4.69277 85.0607 4.54427C85.328 4.42546 85.5954 4.27696 85.9222 4.18785C86.2193 4.06905 86.5461 3.97995 86.8729 3.89084C87.1997 3.80174 87.5265 3.77204 87.8533 3.77204C88.4474 3.77204 88.8931 3.86114 89.1901 4.03935C89.5169 4.21755 89.7249 4.45516 89.8437 4.72247C89.9626 5.01948 90.022 5.3759 89.9923 5.79171C89.9625 6.20753 89.9031 6.65304 89.814 7.12826L88.7742 12.4448Z" fill="#99CEFF" fill-opacity="0.5"/>
</svg>