<svg width="38" height="42" viewBox="0 0 38 42" fill="none" xmlns="http://www.w3.org/2000/svg">
<g filter="url(#filter0_d)">
<path fill-rule="evenodd" clip-rule="evenodd" d="M3 19.025C3 17.3543 4.36802 16 6.05556 16H29.9444C31.632 16 33 17.3543 33 19.025V24.1301H31.3333V19.025C31.3333 18.2656 30.7115 17.65 29.9444 17.65H6.05556C5.28849 17.65 4.66667 18.2656 4.66667 19.025V34.975C4.66667 35.7344 5.28849 36.35 6.05556 36.35H29.9444C30.7115 36.35 31.3333 35.7344 31.3333 34.975V29.8699H33V34.975C33 36.6457 31.632 38 29.9444 38H6.05556C4.36802 38 3 36.6457 3 34.975V19.025Z" fill="#99CEFF"/>
<path d="M21.685 25.6436L22 24.0479C22 23.9415 21.9475 23.8617 21.8425 23.8617H19.7686L20.0836 22.1596C20.1098 22.0798 20.0311 22 19.9523 22H17.9834C17.8259 22 17.6684 22.133 17.6421 22.2926L16.9333 25.9362H14.4919L15.2269 22.1596C15.2269 22.0798 15.1482 22 15.0432 22H13.0742C12.9167 22 12.7592 22.133 12.733 22.2926L12.4179 23.8617H10.4753C10.3178 23.8617 10.1602 23.9947 10.134 24.1543L9.81897 25.75C9.79272 25.8564 9.87147 25.9362 9.95023 25.9362H12.0242L11.6304 28.0106H9.66145C9.50394 28.0106 9.34643 28.1436 9.32018 28.3032L9.00515 29.8989C8.9789 30.0053 9.05765 30.0851 9.13641 30.0851H11.2103L10.8953 31.7872C10.8691 31.8936 10.9478 31.9734 11.0266 31.9734H12.9955C13.153 31.9734 13.3105 31.8404 13.3368 31.6809L14.0456 28.0372H16.487L15.752 31.8138C15.7257 31.9202 15.8045 32 15.8832 32H17.9309C18.0884 32 18.2459 31.867 18.2722 31.7074L18.5872 30.1383H20.5561C20.7136 30.1383 20.8712 30.0053 20.8974 29.8457L21.2124 28.25C21.2387 28.1436 21.1599 28.0638 21.0812 28.0638H19.0072L19.401 25.9894H21.3699C21.5012 25.9362 21.6587 25.8032 21.685 25.6436Z" fill="#99CEFF"/>
<path fill-rule="evenodd" clip-rule="evenodd" d="M35 29.25C35 30.2165 34.1643 31 33.1333 31L30.7333 31C28.6715 31 27 29.433 27 27.5C27 25.567 28.6715 24 30.7333 24L33.1333 24C34.1643 24 35 24.7835 35 25.75L35 29.25ZM33.1333 29.5C33.2806 29.5 33.4 29.3881 33.4 29.25L33.4 25.75C33.4 25.6119 33.2806 25.5 33.1333 25.5L30.7333 25.5C29.5551 25.5 28.6 26.3954 28.6 27.5C28.6 28.6046 29.5551 29.5 30.7333 29.5L33.1333 29.5Z" fill="#99CEFF"/>
<path d="M33 27C33 28.1046 32.1046 29 31 29C29.8954 29 29 28.1046 29 27C29 25.8954 29.8954 25 31 25C32.1046 25 33 25.8954 33 27Z" fill="#99CEFF"/>
<path d="M27 10.5C27 12.433 25.6569 14 24 14C22.3431 14 21 12.433 21 10.5C21 8.567 22.3431 7 24 7C25.6569 7 27 8.567 27 10.5Z" fill="#99CEFF"/>
<path d="M14 10C11.7909 10 10 12.2386 10 15H18C18 12.2386 16.2091 10 14 10Z" fill="#99CEFF"/>
<path d="M20 5.5C20 7.433 18.433 9 16.5 9C14.567 9 13 7.433 13 5.5C13 3.567 14.567 2 16.5 2C18.433 2 20 3.567 20 5.5Z" fill="#99CEFF"/>
</g>
<defs>
<filter id="filter0_d" x="0.655172" y="0.827586" width="36.6897" height="40.6897" filterUnits="userSpaceOnUse" color-interpolation-filters="sRGB">
<feFlood flood-opacity="0" result="BackgroundImageFix"/>
<feColorMatrix in="SourceAlpha" type="matrix" values="0 0 0 0 0 0 0 0 0 0 0 0 0 0 0 0 0 0 127 0"/>
<feOffset dy="1.17241"/>
<feGaussianBlur stdDeviation="1.17241"/>
<feColorMatrix type="matrix" values="0 0 0 0 0 0 0 0 0 0 0 0 0 0 0 0 0 0 0.25 0"/>
<feBlend mode="normal" in2="BackgroundImageFix" result="effect1_dropShadow"/>
<feBlend mode="normal" in="SourceGraphic" in2="effect1_dropShadow" result="shape"/>
</filter>
</defs>
</svg>
