<svg width="14" height="16" viewBox="0 0 14 16" fill="none" xmlns="http://www.w3.org/2000/svg"><path d="M0 0h13.113v15.656H0z"/><path fill-rule="evenodd" clip-rule="evenodd" d="M7.688 10.908v2.566H5.482v-2.566a2.246 2.246 0 0 1-1.071-1.925c0-1.22 1.008-2.246 2.206-2.246 1.197 0 2.205 1.027 2.205 2.246 0 .77-.441 1.54-1.134 1.925zM6.617 1.09c1.827 0 3.276 1.54 3.276 3.336H3.277c0-1.796 1.512-3.336 3.34-3.336zm5.482 3.4h-1.071c0-2.5-1.954-4.49-4.411-4.49-2.458 0-4.411 1.99-4.411 4.491H1.07C.504 4.491 0 5.005 0 5.582v8.983c0 .642.504 1.09 1.071 1.09h10.965c.63 0 1.071-.512 1.071-1.09V5.582c.063-.577-.378-1.09-1.008-1.09z" fill="#99CEFF"/></svg>