<svg width="283" height="164" viewBox="0 0 283 164" fill="none" xmlns="http://www.w3.org/2000/svg">
<path opacity="0.4" d="M53.4932 63.3748C53.4932 69.5604 48.4791 74.5748 42.2939 74.5748C36.1086 74.5748 31.0945 69.5604 31.0945 63.3748C31.0945 57.1892 36.1086 52.1748 42.2939 52.1748C48.4791 52.1748 53.4932 57.1892 53.4932 63.3748Z" stroke="white"/>
<g opacity="0.4" filter="url(#filter0_d)">
<path d="M4.27148 5C4.27148 2.23858 6.51006 0 9.27148 0H321.004C323.766 0 326.004 2.23858 326.004 5V151C326.004 153.761 323.766 156 321.004 156H9.27149C6.51007 156 4.27148 153.761 4.27148 151V5Z" fill="white" fill-opacity="0.5"/>
<path d="M4.77148 5C4.77148 2.51472 6.7862 0.5 9.27148 0.5H321.004C323.489 0.5 325.504 2.51472 325.504 5V151C325.504 153.485 323.489 155.5 321.004 155.5H9.27149C6.78621 155.5 4.77148 153.485 4.77148 151V5Z" stroke="white"/>
</g>
<rect opacity="0.4" x="18.8955" y="88.7251" width="44.8476" height="8.775" fill="white"/>
<rect opacity="0.4" x="18.8955" y="101.4" width="44.8476" height="8.775" fill="white"/>
<defs>
<filter id="filter0_d" x="0.271484" y="0" width="329.733" height="164" filterUnits="userSpaceOnUse" color-interpolation-filters="sRGB">
<feFlood flood-opacity="0" result="BackgroundImageFix"/>
<feColorMatrix in="SourceAlpha" type="matrix" values="0 0 0 0 0 0 0 0 0 0 0 0 0 0 0 0 0 0 127 0"/>
<feOffset dy="4"/>
<feGaussianBlur stdDeviation="2"/>
<feColorMatrix type="matrix" values="0 0 0 0 0 0 0 0 0 0 0 0 0 0 0 0 0 0 0.25 0"/>
<feBlend mode="normal" in2="BackgroundImageFix" result="effect1_dropShadow"/>
<feBlend mode="normal" in="SourceGraphic" in2="effect1_dropShadow" result="shape"/>
</filter>
</defs>
</svg>
