<svg width="13" height="11" viewBox="0 0 13 11" fill="none" xmlns="http://www.w3.org/2000/svg"><path d="M12.163 4.346l.296-1.517c0-.101-.05-.177-.148-.177h-1.952l.296-1.618c.025-.076-.05-.152-.123-.152H8.678a.344.344 0 0 0-.32.278L7.69 4.625H5.392l.692-3.591c0-.076-.074-.152-.173-.152H4.058a.344.344 0 0 0-.322.278L3.44 2.652H1.61a.344.344 0 0 0-.321.278L.994 4.448c-.025.1.049.177.123.177H3.07L2.7 6.597H.845a.344.344 0 0 0-.321.278L.228 8.393c-.025.1.049.177.123.177h1.952l-.296 1.618c-.025.101.05.177.123.177h1.853a.344.344 0 0 0 .322-.278l.667-3.465H7.27l-.692 3.591c-.025.102.05.178.124.178h1.927a.344.344 0 0 0 .321-.279l.297-1.492H11.1a.345.345 0 0 0 .321-.278l.297-1.517c.025-.101-.05-.177-.124-.177H9.642l.37-1.973h1.854c.124-.05.272-.177.297-.329z" fill="#C4C4C4"/></svg>