<svg width="16" height="21" fill="none" xmlns="http://www.w3.org/2000/svg"><path d="M14.565 10.044c-.69-.483-1.672-.676-1.672-.676s.831-.448 1.171-.896c.34-.447.51-1.141.539-1.501.028-.36.094-1.87-1.172-2.74-.979-.672-2.101-.939-3.608-1.026V.158H7.802V3.17h-1.54V.16H4.24v3.01H.264v1.952h1.169c.318 0 .885.033 1.126.283.24.25.283.382.283.869v7.774c0 .185-.037.413-.208.562-.17.15-.34.185-.746.185H.68L.264 17.05H4.24v3.003h2.022V17.05h1.54v3.003h2.021V17c.523-.029 1.01-.066 1.294-.1.576-.07 1.88-.21 3.099-1 1.218-.791 1.492-2.03 1.52-3.276.029-1.246-.482-2.098-1.17-2.581zm-8.303-4.75s.642-.052 1.275-.044c.633.009 1.19.027 2.022.264.83.237 1.322.816 1.34 1.501.02.685-.302 1.141-.868 1.431-.567.29-1.35.448-2.088.474-.736.026-1.681 0-1.681 0V5.294zm4.524 8.982c-.462.237-1.388.447-2.285.509-.898.061-2.24.035-2.24.035v-4.03s1.286-.061 2.287 0c1.001.062 1.842.299 2.22.474.377.176 1.039.562 1.039 1.484 0 .922-.558 1.29-1.02 1.528z" fill="#CCC"/></svg>