<svg width="20" height="16" fill="none" xmlns="http://www.w3.org/2000/svg"><path d="M19.465 5.9l.483-2.468c0-.165-.08-.289-.242-.289h-3.173L17.015.51c.04-.124-.08-.247-.201-.247H13.8a.56.56 0 0 0-.523.452l-1.084 5.638H8.457L9.582.51c0-.124-.12-.247-.281-.247H6.288a.56.56 0 0 0-.522.452l-.483 2.428H2.31a.56.56 0 0 0-.522.453l-.482 2.47c-.04.164.08.287.2.287h3.175l-.603 3.21H1.065a.56.56 0 0 0-.522.453l-.482 2.47c-.04.164.08.287.2.287h3.174l-.482 2.634c-.04.165.08.288.201.288h3.013a.56.56 0 0 0 .523-.453l1.084-5.637h3.737l-1.125 5.843c-.04.165.08.288.2.288h3.134a.56.56 0 0 0 .523-.452l.482-2.428h3.013a.56.56 0 0 0 .522-.453l.482-2.47c.04-.164-.08-.287-.2-.287h-3.175l.603-3.21h3.013c.201-.083.442-.288.482-.535z" fill="#CCC"/></svg>