<svg width="22" height="22" viewBox="0 0 22 22" fill="none" xmlns="http://www.w3.org/2000/svg">
<path d="M22 11C22 17.0751 17.0751 22 11 22C4.92487 22 0 17.0751 0 11C0 4.92487 4.92487 0 11 0C17.0751 0 22 4.92487 22 11Z" fill="#FB5E5B"/>
<path fill-rule="evenodd" clip-rule="evenodd" d="M11 16.1936C9.9 16.1936 8.85 15.8423 7.95 15.19L15.25 7.86384C15.85 8.71688 16.2 9.77063 16.2 10.9248C16.25 13.8351 13.9 16.1936 11 16.1936ZM5.75 10.9248C5.75 8.01436 8.1 5.65594 11 5.65594C12.15 5.65594 13.15 6.00719 14.05 6.65952L6.75 13.9857C6.15 13.1326 5.75 12.0789 5.75 10.9248ZM11 4C7.15 4 4 7.11111 4 11.0251C4 14.7501 7.30601 18 11 18C14.85 18 18 14.8889 18 10.9749C17.8877 7.25628 14.8208 4 11 4Z" fill="white"/>
</svg>
