<svg width="22" height="22" viewBox="0 0 22 22" fill="none" xmlns="http://www.w3.org/2000/svg">
<path d="M0.807311 6.76147C0.655935 7.06423 0.555019 7.367 0.454102 7.66976H2.1697L0.807311 6.76147Z" fill="#01247D"/>
<path d="M21.1931 15.2385C21.3445 14.9358 21.4454 14.633 21.5463 14.2798H19.7803L21.1931 15.2385Z" fill="#01247D"/>
<path d="M3.17871 18.7703C4.44018 20.0318 5.95394 20.9905 7.71999 21.5455V15.7932L3.17871 18.7703Z" fill="#01247D"/>
<path d="M7.67019 0.454346C5.9546 1.00939 4.39038 1.96811 3.12891 3.22958L7.67019 6.2571V0.454346Z" fill="#01247D"/>
<path d="M21.4946 7.66976C21.3937 7.367 21.2927 7.06423 21.1414 6.76147L19.7285 7.66976H21.4946Z" fill="#01247D"/>
<path d="M14.2803 21.5459C15.9959 20.9909 17.5601 20.0322 18.8216 18.7707L14.2803 15.7432V21.5459V21.5459Z" fill="#01247D"/>
<path d="M0.454102 14.3303C0.555019 14.6331 0.655935 14.9863 0.807311 15.2891L2.22016 14.3303H0.454102Z" fill="#01247D"/>
<path d="M18.8216 3.22958C17.5601 1.96811 16.0463 1.00939 14.2803 0.454346V6.2571L18.8216 3.22958Z" fill="#01247D"/>
<path d="M21.8482 12.9175H12.917V21.8487C13.3711 21.7478 13.8252 21.6468 14.2794 21.4954V15.7432L18.8207 18.7707C19.3252 18.2661 19.7794 17.7111 20.183 17.1056L15.995 14.3303H18.6188L20.8895 15.8441C20.9904 15.6423 21.0408 15.4909 21.1418 15.2891L19.7289 14.3303H21.495C21.6464 13.8762 21.7473 13.422 21.8482 12.9175Z" fill="white"/>
<path d="M7.67037 0.454285V6.25704L3.12909 3.22951C2.6245 3.7341 2.17037 4.28917 1.7667 4.89468L6.00523 7.72035H3.38138L1.06028 6.15614C0.959359 6.35798 0.858446 6.55979 0.757529 6.76162L2.17037 7.66991H0.454773C0.303397 8.12403 0.202481 8.57814 0.101564 9.03227H9.03275V0.101099C8.57863 0.252475 8.1245 0.353368 7.67037 0.454285Z" fill="white"/>
<path d="M0.151364 12.9175C0.252282 13.3716 0.353205 13.8257 0.504581 14.2799H2.27064L0.857791 15.2386C1.11008 15.8946 1.46329 16.5001 1.8165 17.0551L6.00458 14.2799H7.72017V14.8854L2.72476 18.2156C2.87614 18.4175 3.02751 18.5689 3.22935 18.7707L7.77063 15.7432V21.4954C8.22476 21.6468 8.67889 21.7478 9.13302 21.8487V12.9175H0.151364Z" fill="white"/>
<path d="M21.4963 7.66991H19.7807L21.1935 6.76162C20.9412 6.10566 20.588 5.44972 20.1843 4.89468L15.9458 7.72035H14.3311V7.06436L19.3265 3.7341C19.1752 3.58273 19.0238 3.43135 18.8724 3.22951L14.3311 6.25704V0.454285C13.877 0.302909 13.4229 0.202016 12.9688 0.101099V9.03227H21.8999C21.7486 8.57814 21.6477 8.12403 21.4963 7.66991Z" fill="white"/>
<path d="M21.8486 9.08256H12.9174V0.151388C12.3119 0.050471 11.656 -1.2319e-05 11 -1.2319e-05C10.344 -1.2319e-05 9.68808 0.050471 9.08257 0.151388V9.08256H0.151373C0.0504556 9.68806 3.07976e-06 10.344 3.07976e-06 11C3.07976e-06 11.656 0.0504556 12.3119 0.151373 12.9174H9.08257V21.8486C9.68808 21.9496 10.344 22 11 22C11.656 22 12.3119 21.9496 12.9174 21.8486V12.9174H21.8486C21.9495 12.3119 22 11.656 22 11C22 10.344 21.9495 9.68806 21.8486 9.08256Z" fill="#CF142B"/>
<path d="M16.0459 14.3303L20.234 17.1056C20.4863 16.7019 20.7386 16.2982 20.9404 15.8441L18.6698 14.3303H16.0459Z" fill="#CF142B"/>
<path d="M14.279 7.66986H15.8937L20.1322 4.84412C19.8799 4.44045 19.5771 4.03682 19.2239 3.68361L14.2285 7.01387V7.66986H14.279Z" fill="#CF142B"/>
<path d="M7.6693 14.3303H5.9537L1.76563 17.1056C2.01792 17.5092 2.32067 17.9129 2.62342 18.2661L7.61883 14.9358V14.3303H7.6693Z" fill="#CF142B"/>
<path d="M6.05531 7.66995L1.81677 4.84421C1.56448 5.24788 1.31219 5.65155 1.11035 6.10568L3.43145 7.66995H6.05531Z" fill="#CF142B"/>
</svg>
