<svg width="22" height="22" viewBox="0 0 22 22" fill="none" xmlns="http://www.w3.org/2000/svg">
<circle cx="11" cy="11" r="11" fill="#2F7BC2"/>
<path fill-rule="evenodd" clip-rule="evenodd" d="M15.4946 6H6.50538C5.68817 6 5 6.68817 5 7.50538V12.7527C5 13.5699 5.68817 14.2581 6.50538 14.2581H7.27957V17.2688L10.2903 14.2581H15.4946C16.3118 14.2581 17 13.5699 17 12.7527V7.46237C17 6.64516 16.3118 6 15.4946 6ZM6.81005 9.75327L7.78098 10.0426L7.13476 10.93L7.53664 11.2225L8.11534 10.3191L8.71333 11.245L9.11199 10.9428L8.47542 10.0716L9.46242 9.779L9.31453 9.29031L8.35968 9.64397L8.39183 8.52193H7.89993L7.92887 9.62789L6.95794 9.26781L6.81005 9.75327ZM10.6166 10.0426L9.64568 9.75327L9.79357 9.26781L10.7645 9.62789L10.7356 8.52193H11.2275L11.1953 9.64397L12.1502 9.29031L12.2981 9.779L11.3111 10.0716L11.9476 10.9428L11.549 11.245L10.951 10.3191L10.3723 11.2225L9.9704 10.93L10.6166 10.0426ZM12.4813 9.75327L13.4522 10.0426L12.806 10.93L13.2079 11.2225L13.7866 10.3191L14.3846 11.245L14.7833 10.9428L14.1467 10.0716L15.1337 9.779L14.9858 9.29031L14.0309 9.64397L14.0631 8.52193H13.5712L13.6001 9.62789L12.6292 9.26781L12.4813 9.75327Z" fill="white"/>
</svg>
