<svg width="20" height="20" viewBox="0 0 20 20" fill="none" xmlns="http://www.w3.org/2000/svg">
<path d="M12.453 0C10.063 0 7.92466 1.13208 6.54102 2.89308C6.91837 2.89308 7.16995 2.89308 7.5473 2.89308C12.8303 2.89308 17.2328 7.2956 17.2328 12.5786C17.2328 12.956 17.2328 13.2075 17.2328 13.5849C18.8681 12.0755 20.0001 9.93711 20.0001 7.54717C20.0001 3.39623 16.6039 0 12.453 0Z" fill="white"/>
<path fill-rule="evenodd" clip-rule="evenodd" d="M7.54717 4.90552C3.39623 4.90552 0 8.30174 0 12.4527C0 16.6036 3.39623 19.9999 7.54717 19.9999C11.6981 19.9999 15.0943 16.6036 15.0943 12.4527C15.0943 8.30174 11.6981 4.90552 7.54717 4.90552ZM11.193 10.8124L11.0186 11.7068C11.0093 11.7514 10.9859 11.7918 10.9517 11.8219C10.9176 11.852 10.8746 11.8702 10.8292 11.8738H9.70519L9.4786 13.0351H10.6697C10.682 13.035 10.6942 13.0376 10.7053 13.0429C10.7164 13.0482 10.7261 13.056 10.7337 13.0656C10.7414 13.0753 10.7467 13.0865 10.7493 13.0986C10.7519 13.1106 10.7517 13.123 10.7487 13.135L10.5743 14.0294C10.5647 14.075 10.5401 14.1161 10.5044 14.1461C10.4688 14.1761 10.4241 14.1932 10.3775 14.1949H9.26094L9.08951 15.0789C9.07906 15.1242 9.05398 15.1649 9.01814 15.1945C8.98231 15.2241 8.93771 15.2412 8.89124 15.2429H7.75974C7.74742 15.2436 7.73511 15.2414 7.72383 15.2363C7.71255 15.2313 7.70264 15.2237 7.69491 15.2141C7.68718 15.2044 7.68187 15.1931 7.6794 15.181C7.67693 15.1689 7.67739 15.1564 7.68073 15.1445L8.09069 13.0336H6.7013L6.30475 15.0789C6.29454 15.1244 6.26953 15.1651 6.23364 15.1948C6.19775 15.2245 6.15303 15.2414 6.10648 15.2429H4.98245C4.97012 15.2436 4.95781 15.2414 4.94653 15.2363C4.93526 15.2313 4.92534 15.2237 4.91761 15.2141C4.90989 15.2044 4.90457 15.1931 4.9021 15.181C4.89963 15.1689 4.90009 15.1564 4.90343 15.1445L5.0868 14.1949H3.90313C3.89078 14.1955 3.87846 14.1932 3.86715 14.1882C3.85585 14.1832 3.84588 14.1756 3.83805 14.166C3.83022 14.1565 3.82474 14.1452 3.82207 14.1331C3.81939 14.121 3.81958 14.1085 3.82263 14.0965L3.99854 13.1991C4.0087 13.1535 4.03366 13.1125 4.06952 13.0826C4.10538 13.0527 4.15014 13.0354 4.19681 13.0336H5.3134L5.5385 11.8708H4.36229C4.34999 11.8709 4.33783 11.8682 4.32673 11.863C4.31564 11.8577 4.3059 11.8499 4.29827 11.8402C4.29064 11.8306 4.28533 11.8193 4.28273 11.8073C4.28013 11.7953 4.28031 11.7828 4.28328 11.7709L4.4577 10.8765C4.46732 10.8309 4.49192 10.7898 4.52758 10.7598C4.56324 10.7298 4.60791 10.7126 4.65448 10.711H5.76063L5.93654 9.82845C5.94616 9.78286 5.97076 9.7418 6.00642 9.71181C6.04208 9.68182 6.08675 9.66463 6.13332 9.66297H7.25139C7.26422 9.66133 7.27725 9.66286 7.28935 9.66743C7.30145 9.672 7.31224 9.67947 7.32077 9.68919C7.32931 9.6989 7.33533 9.71056 7.33831 9.72315C7.34129 9.73573 7.34113 9.74885 7.33786 9.76136L6.9279 11.8723H8.3158L8.71383 9.83143C8.72346 9.78584 8.74806 9.74478 8.78372 9.71479C8.81938 9.6848 8.86405 9.66761 8.91062 9.66595H10.0391C10.0515 9.66534 10.0638 9.66763 10.0751 9.67265C10.0864 9.67766 10.0964 9.68526 10.1042 9.69483C10.112 9.7044 10.1175 9.71568 10.1202 9.72775C10.1229 9.73983 10.1227 9.75236 10.1196 9.76434L9.93477 10.714H11.114C11.1262 10.7136 11.1383 10.7161 11.1495 10.7212C11.1606 10.7263 11.1703 10.7339 11.178 10.7435C11.1857 10.753 11.191 10.7642 11.1936 10.7761C11.1962 10.7881 11.196 10.8005 11.193 10.8124Z" fill="white"/>
</svg>
