<svg width="18" height="20" viewBox="0 0 18 20" fill="none" xmlns="http://www.w3.org/2000/svg">
<path d="M14.5453 12.9243C13.7532 14.0121 12.4702 14.7206 11.0247 14.7206H8.99632C8.29564 14.7206 7.69895 14.2758 7.473 13.6531C7.19411 13.5699 6.9206 13.462 6.65372 13.3293C6.08852 13.0485 5.57533 12.6681 5.12357 12.1968C2.19319 12.8405 0 15.4516 0 18.5754V18.9837C0 19.545 0.455024 20 1.0163 20H16.7843C17.3456 20 17.8006 19.545 17.8006 18.9837V18.5754C17.8006 16.1623 16.4917 14.055 14.5453 12.9243Z" fill="white"/>
<path d="M4.04346 10.102C4.48025 10.102 4.86044 9.8599 5.05741 9.50264C5.06258 9.51678 5.06785 9.53084 5.07316 9.54489C5.07472 9.54911 5.07629 9.55333 5.07786 9.55755C5.53993 10.7738 6.43901 11.7934 7.62456 12.2389C7.91129 11.7833 8.41831 11.4803 8.99642 11.4803H11.0248C11.2271 11.4803 11.4154 11.4232 11.5805 11.331C11.8577 11.1759 12.107 10.7827 12.2358 10.5742C12.4418 10.2406 12.6014 9.88727 12.743 9.50203C12.8225 9.64648 12.9319 9.77214 13.0629 9.8706V10.368C13.0629 11.4918 12.1486 12.4062 11.0247 12.4062H8.99638C8.61293 12.4062 8.30205 12.717 8.30205 13.1005C8.30205 13.484 8.61293 13.7948 8.99638 13.7948H11.0247C12.9143 13.7948 14.4516 12.2575 14.4516 10.368V9.8706C14.7326 9.65945 14.9145 9.32338 14.9145 8.9448V6.85116V6.04832C14.9145 5.66196 14.725 5.3201 14.434 5.10991C14.2084 2.2545 11.8128 0 8.90035 0C5.9879 0 3.59231 2.2545 3.36666 5.10986C3.07572 5.32006 2.88623 5.66196 2.88623 6.04828V8.94472C2.88623 9.58566 3.40691 10.102 4.04346 10.102ZM8.90035 1.3887C11.0563 1.3887 12.8346 3.03632 13.0425 5.13858C12.906 5.24592 12.7943 5.3831 12.7172 5.54052C12.0621 3.8312 10.5995 2.64112 8.90031 2.64112C7.16445 2.64112 5.72537 3.8721 5.08595 5.53369C5.08508 5.53595 5.08425 5.53826 5.08338 5.54056C5.00637 5.38315 4.89459 5.24596 4.75815 5.13862C4.96612 3.03632 6.74436 1.3887 8.90035 1.3887Z" fill="white"/>
</svg>
