<svg width="22" height="22" viewBox="0 0 22 22" fill="none" xmlns="http://www.w3.org/2000/svg">
<circle cx="11" cy="11" r="11" fill="#747474"/>
<path d="M13.3542 15.7708C13.3542 15.9427 13.2969 16 13.125 16H9.28646C9.11458 16 9.05729 15.9427 9.05729 15.7708V14.7969C9.05729 14.625 9.11458 14.5677 9.28646 14.5677H10.2604V9.92707H9.22916C9.05729 9.92707 9 9.8698 9 9.69792V8.72396C9 8.55208 9.05729 8.49478 9.22916 8.49478H11.9219C12.0937 8.49478 12.151 8.55208 12.151 8.72396V14.5677H13.125C13.2969 14.5677 13.3542 14.625 13.3542 14.7969V15.7708ZM11.1771 7.52081C10.4896 7.52081 9.91666 6.94792 9.91666 6.26042C9.91666 5.57292 10.4896 5 11.1771 5C11.8646 5 12.4375 5.57292 12.4375 6.26042C12.4375 6.94792 11.8646 7.52081 11.1771 7.52081Z" fill="white"/>
</svg>
