<svg width="22" height="22" viewBox="0 0 22 22" fill="none" xmlns="http://www.w3.org/2000/svg">
<circle cx="11" cy="11" r="11" fill="#474FF5"/>
<path d="M15.3361 12.125C15.5914 12.125 15.7983 11.9198 15.7983 11.6667C15.7983 11.4136 15.5914 11.2083 15.3361 11.2083C15.0808 11.2083 14.8739 11.4136 14.8739 11.6667C14.8739 11.9198 15.0808 12.125 15.3361 12.125Z" fill="white"/>
<path fill-rule="evenodd" clip-rule="evenodd" d="M7.01681 8C6.45532 8 6 8.45144 6 9.00833V14.325C6 14.8819 6.45532 15.3333 7.01681 15.3333H14.9664C15.5279 15.3333 15.9832 14.8819 15.9832 14.325V13.3167H16.5584C16.816 13.3167 17 13.1026 17 12.8698V10.4635C17 10.2307 16.816 10.0167 16.5584 10.0167H15.9832V9.00833C15.9832 8.45144 15.5279 8 14.9664 8H7.01681ZM16.4454 10.5667H15.0794C14.5203 10.5667 14.042 11.0452 14.042 11.6667C14.042 12.2881 14.5203 12.7667 15.0794 12.7667H16.4454V10.5667Z" fill="white"/>
</svg>
