<svg width="20" height="20" fill="none" xmlns="http://www.w3.org/2000/svg"><path d="M2.467 0c1.288 0 0 0 0 0v19.739h.056c-1.289 0-2.521-1.217-2.521-2.544V2.488C-.054.94 1.178 0 2.467 0zm17.478 8.625h-2.521V4.921h1.232c1.233 0 1.233 1.327 1.233 1.327v2.377h.056zm0 6.137h-2.521v3.705h1.232c1.233 0 1.233-1.217 1.233-1.217v-2.488h.056zM20 9.842h-2.52v3.704H20V9.84zM13.67 0H3.7v19.739h9.97c1.289 0 2.52-.995 2.52-2.488V2.543C16.19 1.216 14.959 0 13.67 0zm0 12.33H6.22s-.056-.774.168-1.05c.224-.332 1.008-.554 1.736-.885.729-.332.953-.443.953-.443v-.718s-.28-.222-.392-.885c-.168.055-.336-.277-.392-.442 0-.166 0-.609.224-.553-.056-.332-.056-.609-.056-.774.056-.553.616-1.162 1.512-1.162s1.457.609 1.512 1.162c0 .165 0 .442-.055.774.223-.056.223.387.223.553 0 .165-.168.497-.392.442-.112.663-.392.885-.392.885v.718s.168.11.953.443c.728.331 1.512.553 1.736.884.224.277.112 1.05.112 1.05z" fill="#99CEFF"/></svg>