<svg width="18" height="31" fill="none" xmlns="http://www.w3.org/2000/svg"><path d="M17 1.5a.5.5 0 0 0 0-1v1zm0 25.308l.325.38a.5.5 0 0 0 .033-.729l-.358.35zm-3.375-4.178a.5.5 0 0 0-.716.698l.716-.698zm-.683 6.99a.5.5 0 0 0 .65.76l-.65-.76zM17 .5H6v1h11v-1zM5.809 27.308H17v-1H5.809v1zm11.549-.849l-3.733-3.83-.716.699 3.733 3.83.716-.699zm-.683-.03l-3.733 3.19.65.761 3.733-3.191-.65-.76zm-10.866-.12A4.309 4.309 0 0 1 1.5 22h-1a5.309 5.309 0 0 0 5.309 5.308v-1zM6 .5A5.5 5.5 0 0 0 .5 6h1A4.5 4.5 0 0 1 6 1.5v-1z" fill="#5487B7"/></svg>