<svg width="10" height="32" fill="none" xmlns="http://www.w3.org/2000/svg"><path opacity=".3" d="M9 1.5a.5.5 0 0 0 0-1v1zm0 26.308l.325.38a.5.5 0 0 0 .033-.729L9 27.81zM5.625 23.63a.5.5 0 0 0-.716.698l.716-.698zm-.683 6.99a.5.5 0 0 0 .65.76l-.65-.76zM9 .5H6v1h3v-1zM.5 6v16.808h1V6h-1zM6 28.308h3v-1H6v1zm3.358-.849l-3.733-3.83-.716.699 3.733 3.83.716-.699zm-.683-.03l-3.733 3.19.65.761 3.733-3.191-.65-.76zM.5 22.808a5.5 5.5 0 0 0 5.5 5.5v-1a4.5 4.5 0 0 1-4.5-4.5h-1zM6 .5A5.5 5.5 0 0 0 .5 6h1A4.5 4.5 0 0 1 6 1.5v-1z" fill="#99CEFF"/></svg>