<svg width="62" height="78" fill="none" xmlns="http://www.w3.org/2000/svg"><path d="M36 56l19.887 20m0-20L36.002 76" stroke="#FB5E5B" stroke-width="4" stroke-linecap="round"/><path d="M57.078 5.075c-6.762-6.767-17.501-6.767-24.263 0-4.773 4.777-6.165 11.744-3.978 17.715L3.381 48.267 0 58.617 10.342 62l3.182-3.384 9.944-3.383v-6.966l3.778-3.384 3.58 3.383 6.96-6.966-3.38-3.383 4.773-4.578c5.966 2.19 12.927.796 17.899-3.981 6.563-6.767 6.563-17.515 0-24.283zm-6.563 10.748c-1.193 1.195-3.182 1.195-4.376 0-1.193-1.194-1.193-3.184 0-4.378 1.194-1.195 3.183-1.195 4.376 0 1.193 1.393 1.193 3.184 0 4.378z" fill="#fff" fill-opacity=".3"/></svg>