<svg width="240" height="251" fill="none" xmlns="http://www.w3.org/2000/svg"><path opacity=".73" d="M224.921 88.819l-.001.007-.001.008c-.296 1.814-1.337 3.51-2.718 4.923-1.352 1.384-3 2.465-4.498 3.094h-47.876l-.076.408-9.512 50.623-.111.592h50.699c1.576 0 3.243 1.641 2.685 3.925l-.003.011-.002.011-7.61 38.941-.001.008-.001.008c-.596 3.657-4.197 6.719-7.751 6.719h-47.97l-.08.403-7.61 38.291-.002.009-.001.008c-.596 3.658-4.196 6.72-7.75 6.72H85.268c-1.576 0-3.243-1.641-2.685-3.925l.003-.012.002-.012 17.756-92.159.115-.595H40.466l-.078.406-17.122 88.914-.001.007-.002.007c-.595 3.658-4.196 6.72-7.75 6.72h-47.56c-1.576 0-3.243-1.641-2.685-3.925l.003-.014.003-.014 7.61-41.537.108-.59h-50.697c-1.576 0-3.243-1.641-2.685-3.924l.003-.012.002-.011 7.61-38.941.001-.007.002-.008c.595-3.658 4.196-6.72 7.75-6.72h47.975l.076-.407 9.512-50.623.112-.593h-50.7c-1.576 0-3.242-1.64-2.685-3.924l.003-.011.002-.012 7.61-38.94.002-.008v-.008c.596-3.658 4.197-6.72 7.751-6.72H1.972l.08-.402 7.61-38.291.002-.009.001-.009C10.261 3.562 13.862.5 17.415.5h47.56c2.28 0 3.91 1.729 3.94 3.349l-17.747 92.11-.115.594H111.046l.078-.405 17.122-88.914.001-.007.002-.008c.595-3.657 4.196-6.719 7.75-6.719h47.56c.788 0 1.607.409 2.159 1.045.548.63.787 1.426.536 2.194l-.01.032-.006.033-7.61 41.537-.108.59h50.697c1.126 0 1.927.424 2.46 1.106.538.688.837 1.686.845 2.89l-7.601 38.892z" stroke="url(#paint0_linear)"/><path opacity=".73" d="M231.899 95.79l-.001.008-.001.008c-.296 1.815-1.337 3.51-2.718 4.923-1.352 1.384-3 2.466-4.498 3.095h-47.876l-.076.407-9.512 50.623-.111.592h50.699c1.576 0 3.243 1.642 2.685 3.925l-.003.011-.002.012-7.61 38.94-.001.008-.001.008c-.596 3.658-4.197 6.719-7.751 6.719h-47.97l-.08.403-7.61 38.291-.002.009-.001.008c-.596 3.658-4.196 6.72-7.75 6.72H92.246c-1.576 0-3.243-1.641-2.685-3.924l.003-.012.002-.013 17.756-92.159.115-.595H47.444l-.078.406-17.122 88.914-.002.007v.007c-.596 3.658-4.197 6.72-7.75 6.72H-25.07c-1.576 0-3.243-1.641-2.685-3.924l.003-.015.003-.014 7.61-41.537.108-.59h-50.697c-1.576 0-3.243-1.641-2.685-3.924l.003-.012.002-.011 7.61-38.941.001-.007.002-.008c.595-3.658 4.196-6.72 7.75-6.72h47.975l.076-.407 9.512-50.623.112-.592h-50.7c-1.576 0-3.242-1.641-2.685-3.925l.003-.011.002-.011 7.61-38.941.002-.008v-.008c.596-3.657 4.197-6.72 7.751-6.72H8.95l.08-.402 7.61-38.291.002-.009.001-.008c.596-3.658 4.197-6.72 7.75-6.72h47.56c2.28 0 3.91 1.729 3.94 3.349l-17.747 92.11-.115.595h59.993l.078-.406 17.122-88.914.002-.007.001-.007c.595-3.658 4.196-6.72 7.75-6.72h47.56c.788 0 1.607.409 2.159 1.045.548.63.787 1.426.536 2.194l-.01.032-.006.033-7.61 41.537-.108.59h50.697c1.126 0 1.927.424 2.46 1.106.538.688.837 1.686.845 2.89l-7.601 38.892z" stroke="url(#paint1_linear)"/><defs><linearGradient id="paint0_linear" x1="179.812" y1="-32.246" x2="-31.917" y2="251.176" gradientUnits="userSpaceOnUse"><stop stop-color="#474FF5"/><stop offset="1" stop-color="#E90273"/></linearGradient><linearGradient id="paint1_linear" x1="162.367" y1="103.712" x2="-56.998" y2="146.924" gradientUnits="userSpaceOnUse"><stop stop-color="#00D9E6"/><stop offset="1" stop-color="#E1FF00"/></linearGradient></defs></svg>