<svg width="114" height="22" fill="none" xmlns="http://www.w3.org/2000/svg"><path d="M18.171 6.879l.44-2.146a.18.18 0 0 0-.038-.166.208.208 0 0 0-.162-.07h-2.976l.467-2.279a.18.18 0 0 0-.04-.167.208.208 0 0 0-.164-.07H12.85a.543.543 0 0 0-.32.118.497.497 0 0 0-.177.28l-1.005 4.897H7.845L8.88 2.21a.18.18 0 0 0-.043-.173.21.21 0 0 0-.175-.063H5.838a.543.543 0 0 0-.32.117.497.497 0 0 0-.177.28l-.444 2.117H2.106a.543.543 0 0 0-.32.118.497.497 0 0 0-.177.28l-.44 2.146a.184.184 0 0 0 .038.166.212.212 0 0 0 .162.073h2.969l-.569 2.79H.951a.551.551 0 0 0-.322.118.504.504 0 0 0-.179.28l-.444 2.152a.18.18 0 0 0 .04.167.207.207 0 0 0 .164.07h2.987l-.463 2.278a.177.177 0 0 0 .036.167.204.204 0 0 0 .164.07H5.77a.547.547 0 0 0 .321-.116.501.501 0 0 0 .18-.278l1-4.908h3.508l-1.035 5.065a.177.177 0 0 0 .036.167.204.204 0 0 0 .164.07H12.8a.55.55 0 0 0 .32-.117.505.505 0 0 0 .18-.277l.433-2.122h2.819a.543.543 0 0 0 .32-.117.497.497 0 0 0 .177-.28l.44-2.146a.185.185 0 0 0-.038-.166.203.203 0 0 0-.162-.073h-3.006l.572-2.787h2.837a.545.545 0 0 0 .31-.124.5.5 0 0 0 .168-.276zm18.594 8.344a.486.486 0 0 1-.403.14h-2.521c-.35 0-.49-.15-.414-.454l1.17-5.723c.14-.668.126-1.111-.045-1.33a1.054 1.054 0 0 0-.404-.276 1.104 1.104 0 0 0-.492-.068 3.54 3.54 0 0 0-1.053.207c-.385.12-.762.263-1.13.426l-.206 1.001-1.155 5.763a.908.908 0 0 1-.151.314.489.489 0 0 1-.421.14h-2.533c-.335 0-.467-.15-.376-.454L27.8 9.11c.12-.612.105-1.03-.049-1.256a.929.929 0 0 0-.38-.28.978.978 0 0 0-.478-.063c-.356.014-.708.08-1.042.197a9.25 9.25 0 0 0-1.16.436l-1.354 6.764a.937.937 0 0 1-.162.314.538.538 0 0 1-.436.14h-2.522c-.339 0-.466-.15-.376-.454L21.836 5.1a.667.667 0 0 1 .185-.358.573.573 0 0 1 .414-.128h2.521c.215 0 .339.05.376.15a.542.542 0 0 1 0 .329l-.113.508.023.021a7.593 7.593 0 0 1 1.78-.883 5.596 5.596 0 0 1 1.821-.315 3.83 3.83 0 0 1 1.743.358c.229.113.43.272.588.466.159.193.271.418.33.657.64-.428 1.328-.788 2.05-1.073a5.763 5.763 0 0 1 2.123-.426c.63-.041 1.258.09 1.81.38.38.234.663.585.802.994.142.444.186.912.128 1.373a16.398 16.398 0 0 1-.241 1.524l-1.26 6.23a1.063 1.063 0 0 1-.151.315zm2.231-3.322c.002-.471.045-.942.128-1.406.083-.472.188-.934.309-1.384.16-.57.376-1.124.643-1.656a5.141 5.141 0 0 1 1.13-1.506 5.621 5.621 0 0 1 1.836-1.073c.874-.299 1.8-.44 2.728-.415a6.668 6.668 0 0 1 1.547.175c.466.103.91.283 1.31.533.373.232.683.545.906.912.23.396.345.843.335 1.295.038.752-.22 1.49-.723 2.071a4.805 4.805 0 0 1-1.802 1.209 9.748 9.748 0 0 1-2.326.59c-.835.107-1.836.19-2.54.218-.078.254-.12.516-.124.78 0 .655 1.178.716 1.407.748.87.107 2.635-.1 3.93-.319a.855.855 0 0 1 .41 0c.108.036.161.158.161.358v1.044a.996.996 0 0 1-.15.623c-.181.17-.405.294-.651.357a6.632 6.632 0 0 1-.896.23c-.335.064-.689.117-1.054.153a31.14 31.14 0 0 1-1.102.086c-.35.022-.708.032-1.032.032a7.467 7.467 0 0 1-1.787-.175 3.6 3.6 0 0 1-1.377-.64 3.042 3.042 0 0 1-.892-1.145 3.987 3.987 0 0 1-.324-1.695zm7.59-4.106a.848.848 0 0 0-.076-.377.89.89 0 0 0-.236-.31 1.277 1.277 0 0 0-.873-.272 2.152 2.152 0 0 0-1.129.297 2.626 2.626 0 0 0-.685.715c-.196.306-.35.634-.459.977-.117.357-.113.314-.203.654 1.882.086 3.078-.493 3.312-.744.236-.26.36-.596.35-.94zm11.276 6.588a.542.542 0 0 1-.15.436.81.81 0 0 1-.4.261 7.79 7.79 0 0 1-.929.219c-.33.057-.647.107-.952.143a13.577 13.577 0 0 1-1.558.096 3.936 3.936 0 0 1-1.686-.293 1.975 1.975 0 0 1-.884-.773 2.17 2.17 0 0 1-.275-1.101c.002-.436.049-.871.14-1.299l1.008-4.857h-.99c-.184 0-.304-.04-.357-.122a.485.485 0 0 1-.034-.357l.342-1.635a.665.665 0 0 1 .173-.358.573.573 0 0 1 .403-.118h1.031l.43-2.092c.116-.43.285-.554.68-.554h2.454c.376 0 .316.225.286.4l-.455 2.246h2.337c.214 0 .338.036.376.108a.575.575 0 0 1 0 .357l-.346 1.656a.772.772 0 0 1-.147.358.544.544 0 0 1-.425.122H55.57l-.805 4.042a3.289 3.289 0 0 0-.079.536c-.011.126.02.251.09.358.097.11.23.187.377.218.246.057.5.082.752.075a17.77 17.77 0 0 0 1.603-.086c.128-.006.255.009.377.043.083.029.117.168.101.415l-.124 1.556zm11.349.5a.696.696 0 0 1-.14.33.532.532 0 0 1-.436.15h-2.59c-.199 0-.32-.04-.376-.118a.541.541 0 0 1 0-.336l.117-.547-.022-.022a9.483 9.483 0 0 1-1.826.905 4.95 4.95 0 0 1-1.66.293c-1.13 0-1.907-.279-2.329-.837a3.667 3.667 0 0 1-.628-2.257c.001-.368.028-.736.079-1.101.053-.383.117-.787.196-1.21.147-.78.354-1.548.62-2.3a6.086 6.086 0 0 1 .99-1.752c.393-.482.9-.87 1.48-1.134a5.228 5.228 0 0 1 2.167-.404c.466.01.928.077 1.377.197.495.123.972.306 1.419.544l.094-.358a.386.386 0 0 1 .158-.283.731.731 0 0 1 .346-.068h2.544c.215 0 .339.047.377.133a.659.659 0 0 1 0 .357l-1.957 9.819zm-3.764-7.596a2.67 2.67 0 0 0-.865.128c-.234.089-.441.231-.602.415a4.634 4.634 0 0 0-.538 1.073c-.13.364-.234.735-.309 1.113a8.01 8.01 0 0 0-.184 1.463c-.044.323.042.65.24.915.214.16.482.238.753.219a5.489 5.489 0 0 0 1.306-.222c.35-.106.688-.249 1.005-.426l.895-4.313a4.372 4.372 0 0 0-1.708-.365h.007zm15.922 7.708a.407.407 0 0 1-.163.273.449.449 0 0 1-.318.084h-.964c-.26 0-.376-.121-.297-.357l1.328-6.439c.084-.406.134-.817.15-1.23.02-.265-.027-.53-.138-.773a.779.779 0 0 0-.2-.243.825.825 0 0 0-.282-.15 2.858 2.858 0 0 0-.858-.107c-.341.009-.68.06-1.009.15-.398.104-.79.218-1.181.357-.392.14-.753.265-1.11.405-.358.14-.621.25-.806.336l-1.58 7.715a.407.407 0 0 1-.163.274.45.45 0 0 1-.319.084h-.94c-.26 0-.358-.122-.298-.358L75.201.358c.016-.1.07-.192.151-.258a.455.455 0 0 1 .293-.1h.941c.275 0 .377.126.343.358l-1.13 5.534h.05c.21-.115.481-.254.813-.415a11.422 11.422 0 0 1 2.291-.805c.401-.099.813-.15 1.227-.154a3.8 3.8 0 0 1 1.697.308c.373.177.669.473.836.837.169.405.236.842.195 1.277a10.859 10.859 0 0 1-.23 1.61l-1.309 6.445zm10.635 0a.38.38 0 0 1-.138.263.42.42 0 0 1-.294.094h-.941c-.275 0-.377-.121-.32-.357l.158-.83c-.607.35-1.236.666-1.882.948a5.712 5.712 0 0 1-2.329.447c-1.054 0-1.806-.25-2.258-.751-.451-.501-.677-1.238-.677-2.21 0-.386.025-.77.075-1.153.053-.422.124-.844.215-1.266.16-.813.383-1.614.666-2.396a5.533 5.533 0 0 1 1.03-1.764c.423-.476.958-.85 1.562-1.09a6.076 6.076 0 0 1 2.258-.358c.5.01.997.08 1.48.207a8.468 8.468 0 0 1 1.651.587l.023-.022.068-.307a.318.318 0 0 1 .045-.136.336.336 0 0 1 .101-.104c.116-.035.237-.05.358-.043h.854c.17 0 .275.025.324.079.049.053.052.154.022.315l-2.05 9.847zm0-8.26a8.206 8.206 0 0 0-3.16-.675 3.61 3.61 0 0 0-1.299.207c-.37.146-.692.388-.926.698a4.534 4.534 0 0 0-.677 1.284 13.119 13.119 0 0 0-.512 1.974c-.094.465-.166.884-.218 1.263-.047.31-.074.623-.08.937 0 .683.133 1.127.4 1.33.354.227.778.335 1.204.304.326-.006.65-.05.963-.132.383-.089.76-.198 1.13-.325.376-.133.752-.265 1.087-.405.335-.14.62-.257.835-.357l1.253-6.102zm11.148-.718a.332.332 0 0 1-.087.136.354.354 0 0 1-.143.082c-.134.03-.273.037-.41.021l-1.445-.143c-.488-.049-.978-.074-1.468-.075a6.446 6.446 0 0 0-1.02.075 2.434 2.434 0 0 0-.816.272c-.225.126-.41.306-.538.522a1.66 1.66 0 0 0-.196.848.976.976 0 0 0 .184.608c.127.163.287.3.47.404.21.114.434.202.667.261.25.065.502.118.752.161.245.043.554.115.93.208a4.57 4.57 0 0 1 1.087.433c.356.2.661.47.896.794.26.381.392.83.376 1.284a3.586 3.586 0 0 1-.395 1.788 3.06 3.06 0 0 1-1.065 1.109c-.473.284-1 .48-1.55.576-.61.109-1.228.163-1.848.16a15.148 15.148 0 0 1-1.945-.128c-.32-.043-.625-.097-.907-.154a3.16 3.16 0 0 1-.7-.218.363.363 0 0 1-.175-.199.342.342 0 0 1 .013-.259l.184-.458a.407.407 0 0 1 .086-.154.434.434 0 0 1 .144-.107.862.862 0 0 1 .342-.021l.753.086c.286.032.572.057.862.078l.846.054c.279 0 .505.021.69.021.377.003.755-.026 1.128-.085.316-.051.621-.152.903-.297a1.51 1.51 0 0 0 .61-.576 1.9 1.9 0 0 0 .218-.959 1.111 1.111 0 0 0-.123-.629 1.182 1.182 0 0 0-.453-.472 4.283 4.283 0 0 0-1.373-.447c-.364-.051-.724-.12-1.08-.208a4.469 4.469 0 0 1-1.13-.422 2.683 2.683 0 0 1-.835-.769 1.989 1.989 0 0 1-.353-1.22 3.316 3.316 0 0 1 .376-1.624 2.914 2.914 0 0 1 1-1.073 4.5 4.5 0 0 1 1.45-.59 7.807 7.807 0 0 1 1.712-.186c.215 0 .478 0 .794.022.316.021.636.046.967.09.331.042.644.1.941.167.258.055.51.133.753.233a.23.23 0 0 1 .173.186.61.61 0 0 1-.034.254l-.218.54zm9.286 8.978a.41.41 0 0 1-.164.272.453.453 0 0 1-.318.085h-.963c-.26 0-.376-.121-.297-.357l1.328-6.439c.082-.406.132-.817.151-1.23a1.61 1.61 0 0 0-.14-.773.782.782 0 0 0-.198-.243.827.827 0 0 0-.283-.15 2.858 2.858 0 0 0-.858-.107c-.342.009-.681.06-1.009.15-.399.104-.794.218-1.181.357-.388.14-.753.265-1.129.405-.377.14-.618.25-.802.336l-1.577 7.694a.41.41 0 0 1-.164.272.452.452 0 0 1-.317.085h-.941c-.26 0-.376-.121-.297-.357L106.27.358a.415.415 0 0 1 .157-.263.455.455 0 0 1 .302-.094h.937c.279 0 .377.125.347.357l-1.133 5.548h.045c.215-.115.486-.254.817-.415.35-.168.709-.317 1.076-.447.398-.14.804-.259 1.215-.358.401-.099.813-.15 1.227-.154a3.797 3.797 0 0 1 1.697.308c.373.179.668.474.836.837.169.405.236.843.196 1.277-.038.54-.115 1.079-.23 1.61l-1.321 6.43zM3.702 18.242h.218c.09.004.181.012.271.025.098 0 .192.026.29.043.089.016.176.04.26.072.045 0 .067.036.075.054a.072.072 0 0 1 0 .067l-.034.154a.226.226 0 0 1-.03.05.09.09 0 0 1-.08 0l-.45-.053c-.17 0-.343-.025-.52-.025a1.028 1.028 0 0 0-.53.121.823.823 0 0 0-.306.33 1.416 1.416 0 0 0-.131.479c0 .182-.03.357-.03.576-.001.18.011.358.037.536.018.16.065.314.14.458a.81.81 0 0 0 .304.315c.156.087.335.13.516.121.18 0 .35 0 .512-.025l.451-.053h.087a.227.227 0 0 1 .03.05l.03.146a.156.156 0 0 1 0 .072s-.03.032-.068.046c-.08.034-.163.058-.248.072a2.74 2.74 0 0 1-.294.046l-.282.026h-.222a1.61 1.61 0 0 1-.752-.15 1.184 1.184 0 0 1-.452-.409 1.525 1.525 0 0 1-.222-.582 4.358 4.358 0 0 1-.004-1.406c.032-.214.105-.42.215-.608.107-.178.261-.326.447-.43.242-.103.508-.143.772-.118zm5.382 1.825a5.828 5.828 0 0 1-.045.68 1.813 1.813 0 0 1-.196.622c-.105.185-.26.34-.448.45-.25.13-.532.193-.817.18a1.72 1.72 0 0 1-.58-.087 1.144 1.144 0 0 1-.402-.221 1.08 1.08 0 0 1-.26-.33 1.896 1.896 0 0 1-.146-.407 2.824 2.824 0 0 1-.068-.44v-.447c0-.147 0-.236.019-.358a2.169 2.169 0 0 1 .222-.794 1.22 1.22 0 0 1 .263-.333 1.24 1.24 0 0 1 .403-.232c.178-.067.366-.103.557-.108.274-.011.546.044.79.161.188.098.345.241.456.415.108.181.178.38.207.587.032.22.047.44.045.662zm-.444.053c0-.214-.016-.428-.05-.64a1.25 1.25 0 0 0-.172-.468.77.77 0 0 0-.324-.29 1.136 1.136 0 0 0-.512-.1 1.05 1.05 0 0 0-.485.103.81.81 0 0 0-.309.3c-.084.148-.14.308-.165.473a4.276 4.276 0 0 0-.008 1.23c.026.164.082.323.166.469.071.126.178.23.308.3.154.078.327.114.5.108a1.14 1.14 0 0 0 .516-.1.816.816 0 0 0 .328-.294c.083-.144.137-.302.158-.465a3.47 3.47 0 0 0 .049-.626zm2.562-1.059v2.794a.083.083 0 0 1-.027.07.092.092 0 0 1-.075.023h-.256c-.071 0-.105-.032-.105-.093v-3.48c0-.058.03-.082.094-.082h.24a.121.121 0 0 1 .091.024c.022.018.04.039.057.061l1.58 2.307.305.462v-2.758a.103.103 0 0 1 .023-.079.11.11 0 0 1 .075 0h.244a.095.095 0 0 1 .068 0c.018.023.027.051.023.079v3.47c0 .06-.03.089-.09.089h-.223a.165.165 0 0 1-.094-.021.366.366 0 0 1-.056-.068l-1.543-2.272-.331-.526zm5.487-.819h.214c.092.004.184.012.275.025.098 0 .192.025.29.043.088.016.175.04.26.072.044 0 .067.035.074.053a.105.105 0 0 1 0 .068l-.033.154a.225.225 0 0 1-.03.05.09.09 0 0 1-.08 0l-.451-.053c-.17 0-.342-.026-.52-.026a1.02 1.02 0 0 0-.53.122.823.823 0 0 0-.305.33 1.413 1.413 0 0 0-.131.479c0 .182-.03.357-.03.575 0 .18.01.359.033.537.021.159.07.314.143.458a.81.81 0 0 0 .32.332c.156.088.335.13.516.122.18 0 .35 0 .511-.025l.452-.054h.087a.228.228 0 0 1 .03.05l.03.147a.157.157 0 0 1 0 .072s-.03.032-.068.046c-.08.033-.163.057-.248.072-.097.02-.195.036-.294.046l-.282.025H16.7c-.26.011-.52-.04-.753-.15a1.184 1.184 0 0 1-.451-.408 1.524 1.524 0 0 1-.222-.583 3.745 3.745 0 0 1-.06-.69c-.001-.24.017-.479.056-.716a1.71 1.71 0 0 1 .214-.608c.107-.178.262-.326.448-.429.236-.107.496-.154.757-.136zm5.38 1.825c0 .223-.012.446-.037.668a1.815 1.815 0 0 1-.2.623c-.104.19-.26.349-.451.461-.25.13-.532.193-.817.18a1.72 1.72 0 0 1-.58-.087 1.144 1.144 0 0 1-.41-.221 1.08 1.08 0 0 1-.26-.33 1.898 1.898 0 0 1-.146-.407 2.824 2.824 0 0 1-.068-.44v-.447c0-.147 0-.236.02-.358.012-.142.038-.282.078-.418.034-.136.085-.267.15-.39a1.22 1.22 0 0 1 .264-.333 1.24 1.24 0 0 1 .403-.233 1.7 1.7 0 0 1 .557-.093c.273-.011.545.044.79.161.194.097.356.242.47.419.107.18.176.378.204.583.028.22.04.44.034.662zm-.444.053a3.628 3.628 0 0 0-.052-.64 1.186 1.186 0 0 0-.17-.468.77.77 0 0 0-.323-.29 1.147 1.147 0 0 0-.512-.1 1.05 1.05 0 0 0-.486.103.812.812 0 0 0-.308.3c-.084.148-.14.308-.166.473-.03.206-.041.414-.034.622 0 .204.014.407.042.608.024.164.077.323.158.469.071.126.178.23.308.3.154.078.327.114.501.108.172.004.342-.03.497-.1a.816.816 0 0 0 .327-.294 1.25 1.25 0 0 0 .17-.465c.035-.207.051-.416.048-.626zm4.547 1.735a.078.078 0 0 1 0 .064.062.062 0 0 1-.056.029h-.332a.212.212 0 0 1-.075 0 .137.137 0 0 1-.053-.057l-.753-1.467h-.752v1.431c0 .064-.034.1-.098.1h-.248a.094.094 0 0 1-.07-.03.084.084 0 0 1-.02-.07v-3.477c0-.057.033-.085.1-.085h1.179c.141-.001.282.018.417.057.138.035.266.098.377.182a.922.922 0 0 1 .248.322c.058.147.085.304.08.462a1.312 1.312 0 0 1-.042.314.966.966 0 0 1-.357.54c-.103.074-.217.131-.34.169l.795 1.516zm-.527-2.54a.713.713 0 0 0-.064-.318.523.523 0 0 0-.173-.193.666.666 0 0 0-.245-.097 1.446 1.446 0 0 0-.279-.028h-.726v1.352h.715c.089 0 .177-.008.264-.025a.622.622 0 0 0 .248-.1.511.511 0 0 0 .184-.215.798.798 0 0 0 .076-.375zm4.843.794c.002.24-.021.48-.068.716-.038.208-.12.406-.24.583-.12.177-.287.319-.486.411-.237.1-.494.149-.752.143h-1.088a.161.161 0 0 1-.098-.021.104.104 0 0 1-.026-.072v-3.484c0-.06.037-.089.105-.089h1.107c.258-.006.515.041.752.14.19.088.353.221.474.386.122.175.206.372.245.58.05.232.074.47.075.707zm-.482.05a2.598 2.598 0 0 0-.09-.754 1.197 1.197 0 0 0-.248-.447.757.757 0 0 0-.346-.215 1.543 1.543 0 0 0-.407-.054h-.752v2.862h.715c.133 0 .266-.015.395-.047a.842.842 0 0 0 .376-.193c.123-.118.215-.263.267-.422.069-.237.097-.484.083-.73h.008zm2.521 1.789h-.256c-.071 0-.105-.032-.105-.093v-3.466a.088.088 0 0 1 .026-.079.131.131 0 0 1 .08 0h.255a.115.115 0 0 1 .072 0 .09.09 0 0 1 .026.079v3.466a.08.08 0 0 1-.025.07.09.09 0 0 1-.073.023zm2.078-.09a.125.125 0 0 1-.05.072.155.155 0 0 1-.074 0h-.301c-.053 0-.068-.029-.046-.09l1.212-3.48a.099.099 0 0 1 .038-.06.11.11 0 0 1 .071-.022h.328a.099.099 0 0 1 .075.022.136.136 0 0 1 .034.06l1.212 3.492c0 .053 0 .078-.046.078h-.353a.112.112 0 0 1-.068 0 .096.096 0 0 1-.03-.053l-.286-.905h-1.415l-.301.887zm1.298-2.185l-.278-.894h-.02l-.27.876-.297.937h1.155l-.29-.919zm7.473 2.182a.066.066 0 0 1 0 .064.051.051 0 0 1-.021.023.055.055 0 0 1-.031.006h-.332a.212.212 0 0 1-.075 0 .138.138 0 0 1-.053-.057l-.752-1.467h-.753v1.431c0 .064-.034.1-.098.1h-.237a.091.091 0 0 1-.073-.023.08.08 0 0 1-.025-.07v-3.484c0-.057.034-.085.098-.085h1.186c.141-.001.282.018.417.057.138.034.266.096.377.182a.889.889 0 0 1 .252.322c.063.15.094.31.09.472a1.149 1.149 0 0 1-.165.608.97.97 0 0 1-.23.247c-.104.074-.22.13-.343.168l.768 1.506zm-.53-2.54a.664.664 0 0 0-.064-.318.486.486 0 0 0-.17-.193.693.693 0 0 0-.244-.097 1.453 1.453 0 0 0-.283-.028h-.722v1.352h.711c.089 0 .177-.008.264-.025a.62.62 0 0 0 .252-.1.54.54 0 0 0 .184-.215.8.8 0 0 0 .072-.375zm4.275 2.615a.134.134 0 0 1-.075 0h-2.032c-.068 0-.106-.029-.106-.09v-3.454c0-.065.038-.093.106-.093h1.998c.064 0 .098.028.098.085v.222c0 .06-.038.093-.106.093h-1.648v1.159h1.479c.068 0 .098.029.098.09v.214c0 .057-.03.086-.098.086h-1.479v1.313h1.69c.064 0 .094.032.094.093v.21a.086.086 0 0 1-.02.072zm4.004-.998c.004.172-.032.344-.106.5a.89.89 0 0 1-.286.33 1.243 1.243 0 0 1-.425.179 2.318 2.318 0 0 1-.508.057h-.27c-.102 0-.204 0-.302-.032l-.293-.047a1.084 1.084 0 0 1-.237-.068c-.042-.017-.068-.035-.076-.053a.095.095 0 0 1 0-.065l.042-.157c0-.04.045-.057.097-.054l.268.029.286.025.267.018h.214c.232.013.462-.042.659-.158a.512.512 0 0 0 .169-.19.483.483 0 0 0 .053-.242 1.087 1.087 0 0 0-.038-.315.426.426 0 0 0-.131-.204.711.711 0 0 0-.249-.125 2.96 2.96 0 0 0-.376-.086 4.338 4.338 0 0 1-.49-.097 1.497 1.497 0 0 1-.394-.16.748.748 0 0 1-.264-.272.907.907 0 0 1-.094-.448.93.93 0 0 1 .069-.42.973.973 0 0 1 .251-.352c.26-.192.586-.286.914-.265h.215l.275.022.29.043c.088.018.174.042.26.071.04.018.067.032.074.054a.105.105 0 0 1 0 .068l-.033.15a.15.15 0 0 1-.034.05h-.076a7.874 7.874 0 0 0-.455-.05 5.015 5.015 0 0 0-.516-.025 1.435 1.435 0 0 0-.376.043.618.618 0 0 0-.245.125.437.437 0 0 0-.124.197.77.77 0 0 0-.037.254.639.639 0 0 0 .041.26c.03.066.08.12.143.158.08.045.166.077.256.097l.376.075c.166.029.324.06.474.096.135.036.262.093.377.169.111.079.2.183.26.304.075.16.111.335.105.511zm6.394-1.577c0 .13-.02.258-.057.383a.998.998 0 0 1-.192.357 1.014 1.014 0 0 1-.376.261c-.182.076-.38.112-.58.104h-.752v1.395a.078.078 0 0 1-.004.038.082.082 0 0 1-.02.032.09.09 0 0 1-.073.023h-.246c-.067 0-.105-.032-.105-.093v-3.477c0-.057.038-.085.105-.085h1.103c.162-.001.323.02.478.064.14.04.268.108.376.2.112.09.198.204.252.333.063.147.094.306.09.465zm-.448 0a.598.598 0 0 0-.044-.282.626.626 0 0 0-.17-.233.913.913 0 0 0-.573-.165h-.722v1.402h.753a.987.987 0 0 0 .376-.06.603.603 0 0 0 .23-.165.632.632 0 0 0 .12-.233c.02-.084.03-.17.03-.257v-.007zm1.867 2.504a.108.108 0 0 1-.049.071.146.146 0 0 1-.075 0h-.301c-.053 0-.068-.029-.045-.09l1.211-3.48a.1.1 0 0 1 .039-.06.11.11 0 0 1 .07-.022h.328a.113.113 0 0 1 .079.022.188.188 0 0 1 .03.06l1.212 3.491c0 .054 0 .08-.045.08h-.354a.118.118 0 0 1-.068 0 .123.123 0 0 1-.03-.055l-.286-.905H59.24l-.3.888zm1.298-2.186l-.278-.894-.275.876-.297.937h1.155l-.305-.919zm5.114 2.182a.059.059 0 0 1 0 .064.052.052 0 0 1-.021.023.055.055 0 0 1-.031.006h-.332a.199.199 0 0 1-.075 0 .116.116 0 0 1-.053-.057l-.752-1.467h-.753v1.431c0 .064-.03.1-.098.1h-.248a.091.091 0 0 1-.074-.023.08.08 0 0 1-.024-.07v-3.484c0-.057.03-.085.098-.085h1.181c.142-.001.283.018.418.057.138.035.266.098.377.182a.84.84 0 0 1 .248.322c.067.15.099.31.094.472a1.314 1.314 0 0 1-.041.315.973.973 0 0 1-.358.54c-.102.074-.217.13-.339.168l.783 1.506zm-.527-2.54a.711.711 0 0 0-.064-.318.486.486 0 0 0-.169-.193.693.693 0 0 0-.245-.097 1.453 1.453 0 0 0-.282-.028h-.726v1.352h.715c.088 0 .177-.008.263-.025a.662.662 0 0 0 .252-.1.54.54 0 0 0 .185-.215.8.8 0 0 0 .071-.375zm3.247 2.075l1.009-3.015a.104.104 0 0 1 .042-.06.114.114 0 0 1 .074-.02h.29c.053 0 .068.03.049.09l-1.216 3.484a.1.1 0 0 1-.04.06.11.11 0 0 1-.073.019h-.304a.146.146 0 0 1-.076 0 .096.096 0 0 1-.033-.054l-1.22-3.498c-.019-.054 0-.082.053-.082h.297a.132.132 0 0 1 .076.018c.017.016.03.037.033.06l.58 1.7.459 1.298zm2.79.469a.12.12 0 0 1-.046.071.152.152 0 0 1-.075 0h-.3c-.057 0-.072-.029-.05-.09l1.212-3.48a.103.103 0 0 1 .04-.06.113.113 0 0 1 .073-.022h.323a.113.113 0 0 1 .08.022.188.188 0 0 1 .03.06l1.215 3.491c0 .054 0 .08-.049.08h-.353a.119.119 0 0 1-.068 0 .124.124 0 0 1-.03-.055l-.286-.905H71.16l-.301.888zm1.298-2.186l-.279-.894-.568 1.813h1.155l-.308-.919zm4.888 2.257a.134.134 0 0 1-.075 0h-2.032c-.072 0-.105-.029-.105-.09v-3.454c0-.065.033-.093.105-.093h1.994c.068 0 .102.028.102.085v.222c0 .06-.038.093-.105.093h-1.66v1.159h1.505c.068 0 .098.029.098.09v.214c0 .057-.03.086-.098.086H75.27v1.313h1.694c.063 0 .094.032.094.093v.21a.084.084 0 0 1-.012.072zm5.453-3.688h.214c.09.004.181.012.271.025.098 0 .196.026.29.043.09.017.178.04.263.072.042 0 .068.036.075.054a.105.105 0 0 1 0 .067l-.033.154a.15.15 0 0 1-.034.05h-.08l-.447-.053c-.173 0-.346-.025-.52-.025a1.036 1.036 0 0 0-.534.121.79.79 0 0 0-.3.33 1.42 1.42 0 0 0-.136.479c0 .182-.027.357-.027.576 0 .179.011.358.034.536.02.16.068.314.143.458a.81.81 0 0 0 .305.315c.155.088.335.13.516.121.176 0 .346 0 .511-.025l.452-.053h.083a.15.15 0 0 1 .034.05l.026.146a.12.12 0 0 1 0 .072s-.026.032-.068.046c-.079.035-.162.059-.248.072-.097.02-.195.036-.294.046l-.282.026h-.218c-.26.01-.52-.041-.753-.15a1.184 1.184 0 0 1-.451-.409 1.528 1.528 0 0 1-.226-.582 4.351 4.351 0 0 1 0-1.406c.028-.214.101-.421.214-.608.106-.179.26-.327.448-.43.242-.103.508-.143.772-.118zm5.046 3.613a.065.065 0 0 1 0 .064.052.052 0 0 1-.022.023.055.055 0 0 1-.031.006h-.331a.212.212 0 0 1-.076 0 .138.138 0 0 1-.052-.057l-.753-1.467h-.752v1.431a.084.084 0 0 1-.005.04.09.09 0 0 1-.021.033.094.094 0 0 1-.076.027h-.248a.091.091 0 0 1-.074-.023.079.079 0 0 1-.025-.07v-3.484c0-.057.035-.085.099-.085h1.185c.141-.001.282.018.418.057.137.035.265.097.376.182a.84.84 0 0 1 .248.322c.067.15.1.31.094.472a1.309 1.309 0 0 1-.041.315.973.973 0 0 1-.128.293.892.892 0 0 1-.226.247c-.103.074-.22.13-.342.168l.783 1.506zm-.531-2.54a.664.664 0 0 0-.064-.318.486.486 0 0 0-.17-.193.693.693 0 0 0-.244-.097 1.453 1.453 0 0 0-.282-.028h-.723v1.352h.712c.088 0 .176-.008.263-.025a.64.64 0 0 0 .252-.1.535.535 0 0 0 .177-.233.803.803 0 0 0 .079-.357zm4.276 2.615a.134.134 0 0 1-.075 0h-2.021c-.072 0-.106-.029-.106-.09v-3.454c0-.065.034-.093.106-.093h1.994c.068 0 .102.028.102.085v.222c0 .06-.038.093-.106.093h-1.648v1.159h1.48c.067 0 .097.029.097.09v.214c0 .057-.03.086-.098.086h-1.479v1.313h1.694c.064 0 .094.032.094.093v.21a.086.086 0 0 1-.034.072zm4.003-.998c.005.173-.031.344-.105.5a.892.892 0 0 1-.286.33 1.244 1.244 0 0 1-.425.179 2.35 2.35 0 0 1-.508.057h-.271l-.305-.032-.29-.047a1.032 1.032 0 0 1-.237-.068c-.041-.017-.068-.035-.075-.053a.096.096 0 0 1 0-.065l.041-.157c0-.04.045-.057.098-.054l.267.029.286.025.267.018h.215c.231.013.461-.042.658-.158a.512.512 0 0 0 .17-.19.483.483 0 0 0 .052-.242 1.084 1.084 0 0 0-.037-.315.427.427 0 0 0-.132-.204.711.711 0 0 0-.248-.125 2.972 2.972 0 0 0-.377-.086 4.312 4.312 0 0 1-.489-.097 1.495 1.495 0 0 1-.395-.16.73.73 0 0 1-.263-.272.908.908 0 0 1-.094-.448.936.936 0 0 1 .067-.42.98.98 0 0 1 .249-.352c.262-.19.588-.285.918-.265h.214l.275.022.29.043c.088.018.175.042.26.071.04.018.067.032.075.054a.106.106 0 0 1 0 .068l-.034.15a.149.149 0 0 1-.034.05h-.075a7.792 7.792 0 0 0-.456-.05 5.04 5.04 0 0 0-.515-.025 1.431 1.431 0 0 0-.376.043.616.616 0 0 0-.245.125.445.445 0 0 0-.128.197.883.883 0 0 0-.038.254.632.632 0 0 0 .045.26c.03.066.08.12.143.158.08.045.166.078.256.097l.377.075c.165.029.323.06.474.096.134.036.262.093.376.169.112.079.201.183.26.304.075.16.112.335.105.511zm2.981-2.69h.215c.09.004.18.012.27.025.099 0 .196.026.29.043.09.017.178.04.264.072.041 0 .067.036.075.054a.105.105 0 0 1 0 .067l-.038.154a.137.137 0 0 1-.03.05.09.09 0 0 1-.079 0l-.448-.053c-.173 0-.346-.025-.519-.025a1.036 1.036 0 0 0-.534.121.79.79 0 0 0-.301.33c-.075.15-.121.313-.136.479a5.418 5.418 0 0 0-.026.576c0 .179.01.358.034.536.019.16.067.314.143.458a.81.81 0 0 0 .305.315c.155.088.334.13.515.121.177 0 .346 0 .508-.025l.456-.053h.082a.137.137 0 0 1 .03.05l.03.146a.118.118 0 0 1 0 .072s-.03.032-.067.046a1.005 1.005 0 0 1-.249.072c-.096.02-.194.036-.293.046l-.282.026h-.219c-.26.012-.52-.04-.752-.15a1.226 1.226 0 0 1-.456-.409 1.59 1.59 0 0 1-.222-.582 4.109 4.109 0 0 1-.056-.69c0-.24.017-.48.053-.716.031-.214.104-.42.214-.608a1.18 1.18 0 0 1 .452-.43c.242-.103.508-.143.771-.118zm3.951 3.352c.125.007.25-.01.368-.05a.92.92 0 0 0 .317-.183.949.949 0 0 0 .241-.715v-2.257a.087.087 0 0 1 .004-.042.089.089 0 0 1 .022-.037.118.118 0 0 1 .079 0h.238a.104.104 0 0 1 .071 0c.018.023.026.05.023.079v2.236c.006.11.006.221 0 .332a1.206 1.206 0 0 1-.083.311 1.053 1.053 0 0 1-.512.551 1.68 1.68 0 0 1-.753.168c-.654 0-1.072-.238-1.253-.715a1.136 1.136 0 0 1-.09-.311 2.518 2.518 0 0 1-.023-.358v-2.214a.107.107 0 0 1 .023-.079.109.109 0 0 1 .075 0h.252a.107.107 0 0 1 .072 0c.01.01.018.023.023.037a.086.086 0 0 1 .003.042v2.25c-.021.257.06.512.226.715a.87.87 0 0 0 .311.19.908.908 0 0 0 .366.05zm3.56-2.533v2.794a.08.08 0 0 1-.025.07.088.088 0 0 1-.073.023h-.241c-.072 0-.105-.032-.105-.093v-3.48c0-.058.03-.083.094-.083h.24a.131.131 0 0 1 .091.025c.02.02.039.04.056.061l1.566 2.307.308.462v-2.758a.107.107 0 0 1 .023-.079.117.117 0 0 1 .075 0h.245a.104.104 0 0 1 .071 0c.018.023.027.05.023.079v3.47a.074.074 0 0 1-.023.067.085.085 0 0 1-.071.022h-.218a.16.16 0 0 1-.095-.021.394.394 0 0 1-.056-.069l-1.543-2.27-.342-.527zm6.303-.379h-.974v3.17c0 .064-.034.096-.094.096h-.249c-.071 0-.105-.032-.105-.097v-3.169h-.971a.097.097 0 0 1-.04-.003.085.085 0 0 1-.034-.02.077.077 0 0 1-.022-.032.082.082 0 0 1-.006-.038v-.21c0-.058.031-.087.098-.087h2.401c.068 0 .098.03.098.086v.222a.07.07 0 0 1-.009.034.077.077 0 0 1-.023.029.085.085 0 0 1-.032.017.1.1 0 0 1-.038.002z" fill="#fff"/></svg>