<svg width="125" height="28" fill="none" xmlns="http://www.w3.org/2000/svg"><g opacity=".5"><path d="M13.525.012C6.057.012 0 6.28 0 14.007 0 21.733 6.057 28 13.525 28S27.05 21.737 27.05 14.007C27.05 6.279 20.993.012 13.525.012zm9.353 11.936c-.046.251-.283.457-.525.457h-2.977l-.6 3.203h3.152c.148 0 .243.122.214.274l-.465 2.473c-.046.251-.283.457-.525.457h-2.98l-.456 2.435c-.046.25-.282.457-.525.457h-2.996c-.148 0-.243-.123-.214-.275l1.094-5.818h-3.7l-1.06 5.636c-.046.25-.283.457-.526.457H6.793c-.147 0-.243-.123-.214-.275l.49-2.616H3.92c-.147 0-.242-.123-.213-.275l.464-2.474c.047-.25.283-.457.526-.457h2.976l.6-3.201H5.142c-.147 0-.242-.123-.213-.275l.465-2.474c.046-.25.283-.457.525-.457h2.959l.456-2.434c.046-.25.283-.457.526-.457h2.996c.147 0 .243.122.214.275l-1.094 5.819h3.7l1.06-5.637c.046-.25.283-.457.525-.457h2.997c.147 0 .242.122.214.275L19.98 9.2h3.152c.147 0 .243.123.214.275l-.468 2.473zm9.059 8.136c-.029.084-.095.084-.205.075-.291-.03-.687-.075-.958-.075-.659 0-.93.332-1.126 1.378a4.32 4.32 0 0 0-.081.725c-.009.523.205.696.678.696.243 0 .716-.038 1.017-.074.086-.006.147 0 .147.098v.159c0 .068-.03.122-.11.158-.3.128-.774.173-1.14.173-.964 0-1.198-.544-1.198-1.087 0-.251.043-.589.1-.893.183-.977.44-1.837 1.756-1.837.3 0 .854.039 1.14.173.067.03.067.099.044.158l-.064.173zm3.32 1.345c-.205 1.135-.549 1.965-1.813 1.965-.811 0-1.273-.355-1.273-1.218 0-.248.037-.5.08-.75.191-1.028.601-1.852 1.762-1.852.802 0 1.316.325 1.316 1.2a3.49 3.49 0 0 1-.072.655zm-1.27-1.33c-.855 0-1.031.643-1.17 1.384-.043.218-.08.445-.08.672 0 .522.233.71.73.71.883 0 1.068-.597 1.212-1.382a3.47 3.47 0 0 0 .081-.667c0-.552-.277-.716-.773-.716zm4.8 3.107c-.014.098-.066.128-.152.128h-.306c-.081 0-.119-.03-.096-.128l.425-2.237c.124-.696.029-.87-.425-.87-.358 0-1.068.317-1.307.43l-.506 2.677c-.014.098-.066.128-.153.128h-.3c-.08 0-.115-.03-.095-.128l.644-3.426c.023-.099.057-.129.147-.129h.3c.087 0 .124.024.101.129l-.052.272h.015c.27-.159.868-.475 1.38-.475.95 0 .95.588.796 1.398l-.415 2.23zm4.129-3.122c-.03.084-.096.084-.205.075-.292-.03-.687-.075-.959-.075-.658 0-.93.332-1.126 1.378-.052.295-.08.528-.08.725-.01.523.205.696.678.696.243 0 .716-.038 1.016-.074.087-.006.147 0 .147.098v.159c0 .068-.029.122-.11.158-.3.128-.773.173-1.14.173-.964 0-1.198-.544-1.198-1.087 0-.251.044-.589.101-.893.182-.977.44-1.837 1.756-1.837.3 0 .854.039 1.14.173.066.03.066.099.043.158l-.063.173zm3.32 1.345c-.205 1.135-.55 1.965-1.813 1.965-.812 0-1.274-.355-1.274-1.218 0-.248.038-.5.081-.75.19-1.028.6-1.852 1.761-1.852.803 0 1.317.325 1.317 1.2 0 .225-.035.443-.073.655zm-1.274-1.33c-.854 0-1.03.643-1.169 1.384-.043.218-.08.445-.08.672 0 .522.233.71.73.71.883 0 1.068-.597 1.212-1.382a3.47 3.47 0 0 0 .081-.667c.003-.552-.274-.716-.774-.716zm4.218.105c-.41.084-.979.266-1.184.364l-.49 2.638c-.023.098-.072.128-.153.128h-.315c-.08 0-.11-.03-.087-.128l.644-3.426c.015-.099.058-.129.139-.129h.306c.086 0 .124.03.11.129l-.058.31.008.015c.22-.158.745-.415 1.132-.493.095-.02.11 0 .11.09l-.044.35c-.003.092-.046.146-.118.152zm3.046 3.002c-.023.099-.067.128-.148.128h-.306c-.08 0-.115-.024-.1-.128l.057-.296c-.008.01-.014.01-.014.01-.248.142-.849.474-1.337.474-.672 0-.92-.355-.92-1.051 0-.37.071-.81.152-1.171.234-1.028.635-1.595 1.71-1.595.262 0 .62.053.987.212l.008-.01.306-1.633c.023-.099.052-.143.153-.143h.306c.096 0 .11.038.096.143l-.95 5.06zm-1.022-3.107c-.54 0-.82.281-1.008 1.082-.08.325-.161.785-.161 1.126 0 .475.161.567.49.567.344 0 1.022-.295 1.288-.43l.41-2.177a3.237 3.237 0 0 0-1.02-.168zm2.696 3.107c-.014.098-.058.128-.139.128h-.3c-.086 0-.124-.03-.1-.128l.643-3.426c.014-.105.066-.129.153-.129h.292c.086 0 .115.03.1.129l-.649 3.426zm.52-4.197c-.148 0-.263-.039-.263-.212 0-.272.118-.454.387-.454.147 0 .271.03.271.203 0 .266-.118.463-.395.463zm3.47 4.197c-.015.099-.058.128-.139.128h-.3c-.087 0-.124-.03-.101-.128l.052-.287c-.373.236-.797.484-1.346.484-.672 0-.935-.355-.935-1.027 0-.242.038-.544.096-.84.233-1.248.62-1.95 1.76-1.95.272 0 .659.098.994.28l.008-.008.023-.105c.023-.09.058-.099.162-.099h.271c.101 0 .133.03.11.138l-.655 3.414zm-1.008-3.1c-.644 0-.883.364-1.088 1.445a4.982 4.982 0 0 0-.095.765c0 .475.176.567.51.567.35 0 1.002-.286 1.28-.424l.4-2.118a2.483 2.483 0 0 0-1.007-.236zm6.663.098c-.41.084-.979.266-1.184.364l-.49 2.638c-.023.098-.073.128-.153.128h-.315c-.08 0-.11-.03-.087-.128l.644-3.426c.015-.099.058-.129.139-.129h.306c.086 0 .124.03.11.129l-.058.31.008.015c.22-.158.745-.415 1.132-.493.095-.02.11 0 .11.09l-.044.35c0 .092-.043.146-.118.152zm.401 1.126c.148-.672.511-1.747 1.909-1.747.606 0 1.117.31 1.117.893 0 1.27-1.71 1.49-2.572 1.505a1.858 1.858 0 0 0-.044.37c0 .544.445.53.84.53.234 0 .716-.04 1.017-.075.086-.006.147 0 .147.098v.159c0 .068-.03.122-.11.158-.344.143-.849.173-1.236.173-.759 0-1.226-.233-1.226-1.057-.003-.332.086-.687.158-1.007zm1.857-1.23c-.93 0-1.132.72-1.242 1.11l-.075.296c.592-.015 1.923-.152 1.923-.938 0-.34-.277-.469-.606-.469zm4.405-.016c-.03.084-.096.09-.205.084-.292-.03-.63-.075-.93-.075-.459 0-.82.12-.82.598.006.331.33.439.664.499.32.053 1.045.227 1.045.944 0 .997-.716 1.263-1.541 1.263-.373 0-.907-.06-1.132-.173-.066-.039-.072-.09-.052-.159l.058-.158c.037-.098.095-.104.182-.098.286.038.768.083 1.007.083.506 0 .907-.128.907-.666 0-.361-.277-.475-.62-.537-.41-.07-1.09-.218-1.09-.909 0-.893.68-1.2 1.441-1.2.278 0 .84.045 1.103.173.067.03.067.09.043.152l-.06.18zm4.238 3.32c-.272 0-.65-.055-1.016-.213l-.01.009-.247 1.323c-.015.099-.052.144-.153.144h-.3c-.102 0-.116-.04-.096-.144l.883-4.74c.023-.09.067-.129.148-.129h.306c.08 0 .115.03.1.129l-.057.287c.009-.01.014-.01.014-.01.257-.143.855-.474 1.346-.474.664 0 .912.361.912 1.051 0 .302-.072.816-.153 1.165-.228 1.049-.595 1.601-1.677 1.601zm.768-3.299c-.358 0-1.002.287-1.288.43l-.41 2.178c.372.122.71.167 1.022.167.554 0 .82-.28 1.008-1.081.072-.325.147-.815.152-1.096.012-.484-.147-.598-.484-.598zm4.437 3.1c-.015.1-.058.13-.139.13h-.3c-.087 0-.124-.03-.101-.13l.052-.286c-.373.236-.797.484-1.346.484-.672 0-.935-.355-.935-1.027 0-.242.038-.544.096-.84.233-1.248.62-1.95 1.76-1.95.272 0 .659.098.993.28l.01-.008.022-.105c.023-.09.058-.099.162-.099h.271c.101 0 .13.03.11.138l-.655 3.414zm-1.01-3.1c-.645 0-.884.365-1.089 1.446a4.982 4.982 0 0 0-.095.765c0 .475.176.567.51.567.35 0 1.002-.286 1.28-.424l.4-2.118a2.462 2.462 0 0 0-1.007-.236zm4.44.099c-.41.084-.98.266-1.184.364l-.491 2.638c-.023.098-.072.128-.153.128h-.315c-.08 0-.11-.03-.086-.128l.643-3.426c.015-.099.058-.129.139-.129h.306c.087 0 .124.03.11.129l-.058.31.008.015c.22-.158.745-.415 1.132-.493.095-.02.11 0 .11.09l-.043.35c0 .092-.044.146-.119.152zm1.852 3.032c-.037.075-.072.098-.138.098h-.32c-.073 0-.087-.03-.102-.09l-.62-3.47c-.015-.06.014-.123.08-.123h.367c.072 0 .087.04.101.105l.335 2.079.11.785h.014l.401-.794 1.118-2.079c.037-.075.066-.099.133-.099h.415c.067 0 .067.045.03.114l-1.924 3.474zm4.764-.03c-.015.099-.058.128-.139.128h-.3c-.087 0-.124-.03-.101-.128l.052-.287c-.373.236-.797.484-1.345.484-.673 0-.936-.355-.936-1.027 0-.242.038-.544.096-.84.233-1.248.62-1.95 1.76-1.95.272 0 .659.098.994.28l.008-.008.023-.105c.02-.09.058-.099.162-.099h.271c.102 0 .133.03.11.138l-.655 3.414zm-1.008-3.1c-.643 0-.883.364-1.088 1.445a4.982 4.982 0 0 0-.095.765c0 .475.176.567.51.567.35 0 1.002-.286 1.28-.424l.4-2.118a2.462 2.462 0 0 0-1.007-.236zm2.382 1.224c.147-.672.51-1.747 1.908-1.747.606 0 1.12.31 1.12.893 0 1.27-1.709 1.49-2.572 1.505a1.857 1.857 0 0 0-.043.37c0 .544.447.53.84.53.234 0 .716-.04 1.016-.075.087-.006.147 0 .147.098v.159c0 .068-.029.122-.11.158-.343.143-.848.173-1.235.173-.76 0-1.227-.233-1.227-1.057-.006-.332.084-.687.156-1.007zm1.856-1.23c-.93 0-1.131.72-1.241 1.11l-.075.296c.592-.015 1.922-.152 1.922-.938 0-.34-.277-.469-.606-.469zm6.819-.016c-.029.084-.095.084-.205.075-.292-.03-.687-.075-.959-.075-.658 0-.93.332-1.125 1.378-.052.295-.081.528-.081.725-.009.523.205.696.678.696.243 0 .716-.038 1.016-.074.087-.006.148 0 .148.098v.159c0 .068-.03.122-.11.158-.3.128-.774.173-1.14.173-.965 0-1.199-.544-1.199-1.087 0-.251.044-.589.102-.893.181-.977.438-1.837 1.755-1.837.3 0 .854.039 1.14.173.066.03.066.099.043.158l-.063.173zm2.474.12c-.41.084-.979.266-1.184.364l-.49 2.638c-.023.098-.073.128-.153.128h-.315c-.08 0-.11-.03-.087-.128l.644-3.426c.015-.099.058-.129.139-.129h.306c.086 0 .124.03.109.129l-.057.31.008.015c.22-.158.745-.415 1.132-.493.095-.02.11 0 .11.09l-.044.35c0 .092-.043.146-.118.152zm.401 1.126c.147-.672.511-1.747 1.908-1.747.607 0 1.121.31 1.121.893 0 1.27-1.709 1.49-2.573 1.505a1.847 1.847 0 0 0-.043.37c0 .544.448.53.84.53.234 0 .716-.04 1.016-.075.087-.006.148 0 .148.098v.159c0 .068-.029.122-.11.158-.344.143-.849.173-1.236.173-.759 0-1.227-.233-1.227-1.057-.005-.332.084-.687.156-1.007zm1.856-1.23c-.929 0-1.131.72-1.241 1.11l-.075.296c.592-.015 1.923-.152 1.923-.938 0-.34-.277-.469-.607-.469zm4.406-.016c-.029.084-.096.09-.205.084-.292-.03-.63-.075-.93-.075-.462 0-.82.12-.82.598.009.331.329.439.664.499.321.053 1.045.227 1.045.944 0 .997-.716 1.263-1.541 1.263-.373 0-.907-.06-1.132-.173-.066-.039-.072-.09-.052-.159l.058-.158c.037-.098.095-.104.182-.098.286.038.768.083 1.007.083.505 0 .907-.128.907-.666 0-.361-.277-.475-.621-.537-.41-.07-1.088-.218-1.088-.909 0-.893.678-1.2 1.44-1.2.277 0 .84.045 1.103.173.066.03.066.09.043.152l-.06.18zm3.496 0c-.029.084-.095.084-.205.075-.292-.03-.687-.075-.959-.075-.658 0-.929.332-1.125 1.378a4.322 4.322 0 0 0-.081.725c-.009.523.205.696.678.696.243 0 .716-.038 1.016-.074.087-.006.148 0 .148.098v.159c0 .068-.029.122-.11.158-.3.128-.774.173-1.14.173-.965 0-1.199-.544-1.199-1.087 0-.251.044-.589.102-.893.181-.977.438-1.837 1.755-1.837.3 0 .854.039 1.14.173.066.03.066.099.043.158l-.063.173zm3.086 3.122c-.015.099-.058.128-.147.128h-.301c-.086 0-.124-.03-.101-.128l.052-.28c0 .008-.008 0-.014.008-.272.158-.869.475-1.383.475-.95 0-.964-.588-.811-1.398l.415-2.231c.021-.099.073-.129.153-.129h.306c.087 0 .116.03.102.129l-.425 2.237c-.13.696-.023.87.439.87.352 0 1.059-.317 1.302-.44l.505-2.67c.023-.099.067-.129.153-.129h.3c.081 0 .119.03.096.129l-.641 3.429zm3.966 0c-.014.098-.066.128-.153.128h-.306c-.081 0-.115-.03-.095-.128l.424-2.237c.124-.696.029-.87-.424-.87-.358 0-1.068.317-1.308.43l-.505 2.677c-.014.098-.066.128-.153.128h-.3c-.081 0-.119-.03-.095-.128l.643-3.426c.023-.099.058-.129.148-.129h.3c.086 0 .124.024.101.129l-.052.272h.014c.272-.159.869-.475 1.383-.475.95 0 .95.588.797 1.398l-.419 2.23zm2.907-.105c-.008.075-.037.114-.086.144-.197.098-.644.152-.855.152-.629 0-.73-.316-.644-.8l.468-2.465h-.401c-.095 0-.119-.039-.101-.128l.037-.212c.023-.09.058-.138.153-.138h.41l.153-.815c.015-.09.072-.12.153-.143l.306-.084c.081-.024.116.015.101.114l-.176.928h.811c.101 0 .116.045.101.129l-.043.218c-.014.092-.043.128-.147.128h-.811l-.43 2.291c-.067.356-.009.445.43.445.072 0 .329-.023.43-.03.118-.008.147.01.147.09l-.006.176zm-75.626-6.317h-2.529c-.39 0-.482-.191-.413-.499l1.172-6.252c.277-1.472-.092-1.807-.94-1.807-.552 0-1.54.38-2.183.69l-.208 1.093-1.172 6.276c-.046.239-.139.499-.575.499h-2.529c-.366 0-.459-.191-.39-.499l1.173-6.323c.254-1.333-.07-1.736-.895-1.736-.551 0-1.493.332-2.206.69l-1.38 7.37c-.046.238-.184.498-.597.498H30.51c-.367 0-.459-.191-.39-.499l1.998-10.7c.07-.31.23-.522.598-.522h2.528c.413 0 .436.284.39.523l-.092.546.023.024c1.126-.81 2.413-1.308 3.608-1.308 1.38 0 2.39.523 2.665 1.616 1.264-.926 2.803-1.616 4.183-1.616 3.239 0 2.919 2.45 2.506 4.66l-1.265 6.774c-.046.242-.161.502-.551.502zm2.61-6.822c.62-2.402 2.043-5.087 6.365-5.087 2.16 0 4.09 1.021 4.09 3.187 0 3.734-4.341 4.328-7.167 4.445-.07.19-.093.403-.093.594 0 .902.806.95 1.885.95 1.034 0 1.932-.072 3.193-.215.32-.048.575-.024.575.403v1.141c0 .642-.139.81-.806 1.07-1.01.379-2.803.546-4.09.546-2.619 0-4.388-1.117-4.388-3.993 0-.995.181-2.068.435-3.041zm6.047-2.61c-1.567 0-2.072 1.51-2.419 2.777 1.568-.11 3.589-.496 3.589-1.897 0-.522-.425-.88-1.17-.88zm11.95 8.362c.022.356-.255.667-.552.762-1.172.38-2.711.499-3.447.499-2.896 0-3.057-1.831-2.71-3.782l1.01-5.302h-1.01c-.367 0-.46-.167-.39-.522l.343-1.783c.07-.356.208-.523.574-.523h1.034l.551-2.912c.098-.547.347-.693.667-.679h2.275c.557 0 .505.404.505.404l-.597 3.187h2.344c.413 0 .459.167.39.499l-.344 1.807c-.07.355-.162.522-.575.522H65.02l-.805 4.421c-.185.902-.185 1.26 1.149 1.285.366 0 1.033-.048 1.608-.096.297 0 .482-.048.459.499l-.113 1.714zm10.732.547c-.023.24-.161.523-.574.523h-2.595c-.39 0-.436-.191-.367-.499l.115-.594-.023-.024c-1.31.881-2.39 1.308-3.493 1.308-2.275 0-2.965-1.332-2.965-3.375 0-.762.116-1.616.275-2.521.69-3.686 1.839-6.112 5.262-6.112.783 0 1.955.308 2.804.81l.092-.38c.07-.31.208-.379.505-.379h2.55c.435 0 .458.191.389.547L78.051 16.26zm-5.972-5.326c-.116.595-.185 1.094-.185 1.452 0 1.022.32 1.237 1.01 1.237.667 0 1.654-.427 2.229-.69l.805-4.28c-.62-.216-1.218-.332-1.723-.332-1.242.024-1.793.714-2.136 2.613zm17.748 5.326c-.046.24-.162.523-.575.523h-2.529c-.366 0-.459-.215-.412-.523a622.1 622.1 0 0 0 1.218-6.395c.254-1.284-.093-1.783-1.057-1.783-.69 0-1.816.45-2.39.69l-1.403 7.488c-.046.24-.162.523-.575.523h-2.528c-.344 0-.413-.215-.367-.523L82.151.523c.046-.31.208-.523.574-.523h2.55c.412 0 .435.284.389.523l-1.01 5.373c1.033-.546 2.482-1.069 3.631-1.069 3.447 0 3.216 2.473 2.803 4.684l-1.261 6.75zm11.536 0c-.024.24-.162.523-.575.523h-2.595c-.39 0-.436-.191-.367-.499l.116-.594-.023-.024c-1.311.881-2.39 1.308-3.493 1.308-2.275 0-2.965-1.332-2.965-3.375 0-.762.115-1.616.274-2.521.69-3.686 1.839-6.112 5.263-6.112.782 0 1.954.308 2.803.81l.092-.38c.07-.31.208-.379.505-.379h2.549c.436 0 .459.191.39.547l-1.974 10.696zm-5.973-5.326c-.116.595-.185 1.094-.185 1.452 0 1.022.32 1.237 1.01 1.237.667 0 1.654-.427 2.229-.69l.805-4.28c-.62-.216-1.218-.332-1.723-.332-1.241.024-1.793.714-2.136 2.613zm17.448-5.585c.574.215.851.379.597.997l-.505 1.237c-.162.451-.231.499-.782.427-.987-.12-2.483-.263-3.147-.287-1.056-.024-1.4.263-1.423.834-.046.499.667.642 1.241.738 1.908.286 3.814.833 3.814 3.187 0 3.71-2.919 4.516-5.837 4.516-1.126 0-2.688-.215-3.563-.523-.713-.284-.828-.546-.551-1.189l.459-1.14c.185-.476.32-.523.805-.428 1.034.191 2.437.31 3.216.31 1.103 0 1.701-.214 1.747-.949.046-.57-.39-.69-1.08-.833-2.067-.356-3.929-.95-3.929-3.28 0-3.211 2.618-4.16 5.468-4.16 1.01-.004 2.552.187 3.47.543zm10.669 10.911c-.046.24-.161.523-.574.523h-2.529c-.367 0-.459-.215-.413-.523a624.846 624.846 0 0 0 1.219-6.395c.254-1.284-.093-1.783-1.057-1.783-.69 0-1.816.45-2.39.69l-1.4 7.488c-.047.24-.162.523-.575.523h-2.529c-.343 0-.413-.215-.366-.523L115.834.523c.046-.31.208-.523.575-.523h2.549c.413 0 .436.284.39.523l-1.011 5.373c1.034-.546 2.483-1.069 3.632-1.069 3.447 0 3.216 2.473 2.803 4.684l-1.265 6.75z" fill="#99CEFF"/></g></svg>