<svg width="14" height="18" fill="none" xmlns="http://www.w3.org/2000/svg"><path d="M12.764 11.765c0-.21-.053-.42-.158-.63-.053-3.729 1.155-5.305 1.155-5.305s-1.733.053-3.781 1.156c-.053-.053-.105-.105-.105-.158.052-1.523.367-3.046.787-4.15-.262.158-1.313.579-2.416 1.419C7.67 2.784 7.511 1.418 8.194 0 3.046 3.677 0 7.826 0 11.135c0 2.574.63 6.618 6.88 6.618 3.677 0 5.516-1.418 5.884-4.15l.105.106c0-.105 0-.263-.053-.368 0-.577 0-1.05-.053-1.575zm-3.047 2.89c-.42.682-.578.892-3.204.997-2.574.053-3.046-.472-3.52-1.365-1.365-2.522.369-4.097.264-3.887-.106.157-.63 1.786 1.89 3.099-1.208-1.523.998-3.362 1.839-4.202 0 2.153.893 4.202.893 4.202s1.418-.84 2.416-3.834c.525 2.31.578 2.993-.578 4.99z" fill="#fff"/></svg>