<svg class="icon" width="16" height="16" fill="none" xmlns="http://www.w3.org/2000/svg"><path d="M0 0v7.304h7.304V0H0zm6.26 6.261H1.044V1.044h5.218V6.26z" fill="#99CEFF"/><path d="M5.219 2.087h-3.13v3.13h3.13v-3.13zM8.695 0v7.304h7.304V0H8.695zm6.26 6.26H9.739V1.044h5.218v5.218z" fill="#99CEFF"/><path d="M13.915 2.087h-3.13v3.13h3.13v-3.13zM0 8.696V16h7.304V8.696H0zm6.26 6.26H1.044V9.74h5.218v5.217z" fill="#99CEFF"/><path d="M5.219 10.783h-3.13v3.13h3.13v-3.13zm5.563-1.044V8.696H8.695V16h2.087v-1.043H9.738V12.87h1.044v-1.044H9.738V9.74h1.044zm5.217-1.043h-1.043v1.043H16V8.696zm-1.043 2.434v3.826h-1.044V16H16v-4.87h-1.043zm-1.042-2.434h-2.087v1.043h2.087V8.696zm0 3.13v-1.043h-2.087v3.13h2.087V12.87H12.87v-1.044h1.044zm-1.044 3.13h-1.043V16h1.043v-1.043z" fill="#99CEFF"/></svg>