<svg fill="none" height="16" width="16" xmlns="http://www.w3.org/2000/svg"><g fill="#99ceff"><path d="m0 0v7.304h7.304v-7.304zm6.26 6.261h-5.216v-5.217h5.218v5.216z"/><path d="m5.219 2.087h-3.13v3.13h3.13zm3.476-2.087v7.304h7.304v-7.304zm6.26 6.26h-5.216v-5.216h5.218v5.218z"/><path d="m13.915 2.087h-3.13v3.13h3.13zm-13.915 6.609v7.304h7.304v-7.304zm6.26 6.26h-5.216v-5.216h5.218v5.217z"/><path d="m5.219 10.783h-3.13v3.13h3.13zm5.563-1.044v-1.043h-2.087v7.304h2.087v-1.043h-1.044v-2.087h1.044v-1.044h-1.044v-2.086h1.044zm5.217-1.043h-1.043v1.043h1.044v-1.043zm-1.043 2.434v3.826h-1.044v1.044h2.088v-4.87h-1.043zm-1.042-2.434h-2.087v1.043h2.087zm0 3.13v-1.043h-2.087v3.13h2.087v-1.043h-1.044v-1.044zm-1.044 3.13h-1.043v1.044h1.043v-1.043z"/></g></svg>