<svg width="22" height="22" fill="none" xmlns="http://www.w3.org/2000/svg"><path d="M22 11c0 6.075-4.925 11-11 11S0 17.075 0 11 4.925 0 11 0s11 4.925 11 11z" fill="#99CEFF"/><path d="M14.915 15.134a.53.53 0 0 1-.431-.846l2.325-3.198-2.326-3.198a.535.535 0 0 1 .117-.745.53.53 0 0 1 .745.117l2.554 3.512a.544.544 0 0 1 0 .628l-2.554 3.511a.524.524 0 0 1-.43.219z" fill="#fff"/><path d="M17.468 11.622h-6.603a.534.534 0 0 1-.532-.532c0-.293.24-.532.532-.532h6.603c.293 0 .532.24.532.532a.53.53 0 0 1-.532.532zM6.412 17.289a.534.534 0 0 1-.532-.533V5.423c0-.292.24-.532.532-.532.293 0 .532.24.532.532v11.333a.53.53 0 0 1-.532.533z" fill="#fff"/><path d="M13.536 17.288h-7.12a.534.534 0 0 1-.531-.532c0-.292.24-.532.532-.532h7.119c.293 0 .532.24.532.532 0 .293-.24.532-.532.532zm0-11.332h-7.12a.534.534 0 0 1-.531-.533c0-.292.24-.532.532-.532h7.119c.293 0 .532.24.532.532 0 .293-.24.532-.532.532z" fill="#fff"/></svg>