<svg width="22" height="22" fill="none" xmlns="http://www.w3.org/2000/svg"><circle cx="11" cy="11" r="11" fill="#2F7BC2"/><path fill-rule="evenodd" clip-rule="evenodd" d="M15.495 6h-8.99C5.688 6 5 6.688 5 7.505v5.248c0 .817.688 1.505 1.505 1.505h.775v3.01l3.01-3.01h5.205c.817 0 1.505-.688 1.505-1.505v-5.29C17 6.644 16.312 6 15.495 6zM6.81 9.753l.971.29-.646.887.402.293.578-.904.598.926.399-.302-.637-.871.987-.293-.147-.489-.955.354.032-1.122H7.9l.029 1.106-.971-.36-.148.485zm3.807.29l-.971-.29.148-.485.97.36-.028-1.106h.491l-.032 1.122.955-.354.148.489-.987.293.637.87-.399.303-.598-.926-.579.903-.402-.292.647-.887zm1.864-.29l.971.29-.646.887.402.293.579-.904.598.926.398-.302-.636-.871.987-.293-.148-.489-.955.354.032-1.122h-.492l.03 1.106-.972-.36-.148.485z" fill="#fff"/></svg>