<svg width="22" height="22" fill="none" xmlns="http://www.w3.org/2000/svg"><path d="M22 11c0 6.075-4.925 11-11 11S0 17.075 0 11 4.925 0 11 0s11 4.925 11 11z" fill="#04D67E"/><mask id="a" maskUnits="userSpaceOnUse" x="1" y="1" width="20" height="20"><path d="M1 11C1 5.477 5.477 1 11 1s10 4.477 10 10-4.477 10-10 10S1 16.523 1 11z" fill="#C4C4C4"/></mask><g mask="url(#a)"><path fill-rule="evenodd" clip-rule="evenodd" d="M1.92 4.455v2.157a.46.46 0 1 1-.92 0V4.455A3.454 3.454 0 0 1 4.453 1h2.158a.46.46 0 1 1 0 .92H4.453A2.534 2.534 0 0 0 1.92 4.455zM17.545 1.92h-2.156a.461.461 0 0 1 0-.92h2.156A3.454 3.454 0 0 1 21 4.453v2.159a.46.46 0 1 1-.92 0V4.453c0-1.399-1.135-2.533-2.535-2.533zM6.61 20.08H4.455a2.534 2.534 0 0 1-2.535-2.533v-2.159a.46.46 0 1 0-.92 0v2.159A3.454 3.454 0 0 0 4.455 21h2.156a.46.46 0 1 0 0-.92zm13.47-2.535v-2.157a.46.46 0 1 1 .919 0v2.157A3.454 3.454 0 0 1 17.547 21h-2.158a.46.46 0 1 1 0-.92h2.158a2.534 2.534 0 0 0 2.533-2.535zm-4.26-7.349a.803.803 0 1 1-1.606 0V8.588a.803.803 0 1 1 1.605 0v1.608zM6.804 11c.443 0 .802-.36.802-.803V8.588A.803.803 0 1 0 6 8.59v1.607c0 .444.36.804.805.804zm4.049-2.756v3.32c0 .473-.235.913-.622 1.165l-.431.28a.467.467 0 0 0-.139.633.43.43 0 0 0 .607.145l.432-.28a2.315 2.315 0 0 0 1.035-1.944V8.244a.45.45 0 0 0-.441-.458.45.45 0 0 0-.441.458zm-2.438 8.058l-.598-.369a.448.448 0 0 1 .471-.76l.596.37a4.194 4.194 0 0 0 4.41 0l.6-.37a.446.446 0 1 1 .469.76l-.598.37a5.089 5.089 0 0 1-5.35 0z" fill="#fff"/></g></svg>