<svg width="22" height="22" fill="none" xmlns="http://www.w3.org/2000/svg"><circle cx="11" cy="11" r="11" fill="#474FF5"/><path d="M15.336 12.125a.46.46 0 0 0 .462-.458.46.46 0 0 0-.462-.459.46.46 0 0 0-.462.459.46.46 0 0 0 .462.458z" fill="#fff"/><path fill-rule="evenodd" clip-rule="evenodd" d="M7.017 8C6.455 8 6 8.451 6 9.008v5.317c0 .557.455 1.008 1.017 1.008h7.95c.56 0 1.016-.451 1.016-1.008v-1.008h.575A.444.444 0 0 0 17 12.87v-2.406a.444.444 0 0 0-.442-.447h-.575V9.008c0-.557-.455-1.008-1.017-1.008h-7.95zm9.428 2.567H15.08c-.559 0-1.037.478-1.037 1.1 0 .621.478 1.1 1.037 1.1h1.366v-2.2z" fill="#fff"/></svg>