<svg width="22" height="22" fill="none" xmlns="http://www.w3.org/2000/svg"><circle cx="11" cy="11" r="11" fill="#F86185"/><path fill-rule="evenodd" clip-rule="evenodd" d="M14.23 6.266l-4.51 4.511 1.503 1.504 4.155-4.155.079.08.356-.357-1.583-1.583zm2.493.475l-1.504-1.504-.514.515 1.504 1.503.514-.514zm-7.518 4.51l-.514 1.98 2.018-.515-1.504-1.464zm6.41-.078v2.77a.667.667 0 0 1-.672.672H8.058a.667.667 0 0 1-.673-.672V7.058c0-.396.316-.673.673-.673h4.154V5H8.058C6.91 5 6 5.91 6 7.058v6.885C6 15.09 6.91 16 8.058 16h6.885C16.09 16 17 15.09 17 13.943v-2.77h-1.385z" fill="#fff"/></svg>