<svg fill="none" height="22" width="22" xmlns="http://www.w3.org/2000/svg"><circle cx="11" cy="11" fill="#2f7bc2" r="11"/><path clip-rule="evenodd" d="m15.495 6h-8.99c-.817 0-1.505.688-1.505 1.505v5.248c0 .817.688 1.505 1.505 1.505h.775v3.01l3.01-3.01h5.205c.817 0 1.505-.688 1.505-1.505v-5.29c0-.819-.688-1.463-1.505-1.463zm-8.685 3.753.971.29-.646.887.402.293.578-.904.598.926.399-.302-.637-.871.987-.293-.147-.489-.955.354.032-1.122h-.492l.029 1.106-.971-.36zm3.807.29-.971-.29.148-.485.97.36-.028-1.106h.491l-.032 1.122.955-.354.148.489-.987.293.637.87-.399.303-.598-.926-.579.903-.402-.292zm1.864-.29.971.29-.646.887.402.293.579-.904.598.926.398-.302-.636-.871.987-.293-.148-.489-.955.354.032-1.122h-.492l.03 1.106-.972-.36z" fill="#fff" fill-rule="evenodd"/></svg>