<svg width="22" height="22" fill="none" xmlns="http://www.w3.org/2000/svg"><path d="M22 11c0 6.075-4.925 11-11 11S0 17.075 0 11 4.925 0 11 0s11 4.925 11 11z" fill="#FB5E5B"/><path fill-rule="evenodd" clip-rule="evenodd" d="M11 16.194c-1.1 0-2.15-.352-3.05-1.004l7.3-7.326c.6.853.95 1.907.95 3.06.05 2.911-2.3 5.27-5.2 5.27zm-5.25-5.27c0-2.91 2.35-5.268 5.25-5.268 1.15 0 2.15.351 3.05 1.004l-7.3 7.326c-.6-.853-1-1.907-1-3.061zM11 4c-3.85 0-7 3.111-7 7.025C4 14.75 7.306 18 11 18c3.85 0 7-3.111 7-7.025C17.888 7.256 14.82 4 11 4z" fill="#fff"/></svg>