<svg fill="none" height="22" width="22" xmlns="http://www.w3.org/2000/svg"><path d="m22 11c0 6.075-4.925 11-11 11s-11-4.925-11-11 4.925-11 11-11 11 4.925 11 11z" fill="#04d67e"/><g fill="#fff"><path d="m10.983 11.826 5.378-4.792c-.034-.034-.067-.034-.1-.034h-10.523-.067l5.31 4.826zm6.017-4.073c0-.103-.034-.171-.067-.24l-3.765 3.389 3.731 3.32a.67.67 0 0 0 .1-.342v-6.127zm-11.933-.274a.654.654 0 0 0 -.067.274v6.092c0 .103.034.206.067.308l3.765-3.285z"/><path d="m12.596 11.415-1.613 1.438-1.614-1.438-3.697 3.218h10.487z"/></g></svg>