<svg width="22" height="22" fill="none" xmlns="http://www.w3.org/2000/svg"><circle cx="11" cy="11" r="11" fill="#747474"/><path d="M13.354 15.77c0 .173-.057.23-.229.23H9.286c-.171 0-.229-.057-.229-.23v-.973c0-.172.058-.23.23-.23h.973v-4.64H9.23c-.173 0-.23-.057-.23-.23v-.973c0-.172.057-.23.23-.23h2.692c.172 0 .229.058.229.23v5.844h.974c.172 0 .23.057.23.229v.974zm-2.177-8.25c-.687 0-1.26-.572-1.26-1.26 0-.687.573-1.26 1.26-1.26.688 0 1.26.573 1.26 1.26 0 .688-.572 1.26-1.26 1.26z" fill="#fff"/></svg>