<svg fill="none" height="22" width="22" xmlns="http://www.w3.org/2000/svg"><circle cx="11" cy="11" fill="#f86185" r="11"/><path clip-rule="evenodd" d="m14.23 6.266-4.51 4.511 1.503 1.504 4.155-4.155.079.08.356-.357zm2.493.475-1.504-1.504-.514.515 1.504 1.503zm-7.518 4.51-.514 1.98 2.018-.515-1.504-1.464zm6.41-.078v2.77a.667.667 0 0 1 -.672.672h-6.885a.667.667 0 0 1 -.673-.672v-6.885c0-.396.316-.673.673-.673h4.154v-1.385h-4.154c-1.148 0-2.058.91-2.058 2.058v6.885c0 1.147.91 2.057 2.058 2.057h6.885c1.147 0 2.057-.91 2.057-2.057v-2.77z" fill="#fff" fill-rule="evenodd"/></svg>