<svg width="19" height="19" viewBox="0 0 19 19" fill="none" xmlns="http://www.w3.org/2000/svg">
<path d="M2.31265 -6.32821e-06C3.52063 -6.32821e-06 2.31265 -6.32821e-06 2.31265 -6.32821e-06V18.5071C2.31265 18.5071 3.57315 18.5071 2.36517 18.5071C1.15718 18.5071 0.0017215 17.3666 0.0017215 16.1224C0.0017215 15.1893 0.0017215 6.32456 0.0017215 2.33282C-0.0507995 0.881285 1.10467 -6.32821e-06 2.31265 -6.32821e-06Z" fill="#99CEFF"/>
<path d="M18.6994 8.0871H16.3359V4.61378C16.3359 4.61378 16.3359 4.61378 17.4914 4.61378C18.6469 4.61378 18.6469 5.85795 18.6469 5.85795V8.0871H18.6994Z" fill="#99CEFF"/>
<path d="M18.6994 13.8411H16.3359V17.3144C16.3359 17.3144 16.3359 17.3144 17.4914 17.3144C18.6469 17.3144 18.6469 16.1739 18.6469 16.1739V13.8411H18.6994Z" fill="#99CEFF"/>
<path d="M18.7521 9.22705H16.3887V12.7004H18.7521V9.22705Z" fill="#99CEFF"/>
<path d="M12.8175 -6.32821e-06C11.6095 -6.32821e-06 3.46875 -6.32821e-06 3.46875 -6.32821e-06V18.5071C3.46875 18.5071 11.6095 18.5071 12.8175 18.5071C14.0255 18.5071 15.1809 17.574 15.1809 16.1743C15.1809 12.2344 15.1809 3.3178 15.1809 2.38467C15.1809 1.14049 14.0255 -6.32821e-06 12.8175 -6.32821e-06ZM12.8175 11.5605H9.29859H5.8322C5.8322 11.5605 5.77968 10.8347 5.98976 10.5755C6.19985 10.2645 6.93513 10.0571 7.61791 9.74605C8.30068 9.43501 8.51077 9.33132 8.51077 9.33132V8.65739C8.51077 8.65739 8.24816 8.45003 8.14312 7.82794C7.98556 7.87978 7.82799 7.56874 7.77547 7.41322C7.77547 7.2577 7.77548 6.84297 7.98556 6.89481C7.93304 6.58377 7.93304 6.32457 7.93304 6.16905C7.98556 5.65064 8.51077 5.08039 9.3511 5.08039C10.1914 5.08039 10.7166 5.65064 10.7692 6.16905C10.7692 6.32457 10.7692 6.58377 10.7167 6.89481C10.9267 6.84297 10.9267 7.2577 10.9267 7.41322C10.9267 7.56874 10.7692 7.87978 10.5591 7.82794C10.454 8.45003 10.1914 8.65739 10.1914 8.65739V9.33132C10.1914 9.33132 10.349 9.43501 11.0843 9.74605C11.7671 10.0571 12.5024 10.2645 12.7125 10.5755C12.9225 10.8347 12.8175 11.5605 12.8175 11.5605Z" fill="#99CEFF"/>
</svg>
