<svg width="85" height="52" viewBox="0 0 85 52" fill="none" xmlns="http://www.w3.org/2000/svg"><g opacity=".3"><path d="M.638.17h77.723v41.26H.638z"/><path d="M7.116 35.725l23.75-23.766" stroke="#fff" stroke-width="2"/><ellipse cx="7.704" cy="34.376" rx="7.066" ry="7.052" fill="#fff"/><ellipse cx="30.079" cy="13.1" rx="7.066" ry="7.052" fill="#fff"/><path d="M28.706 11.959l23.15 21.726" stroke="#fff" stroke-width="2"/><ellipse cx="51.276" cy="34.256" rx="7.066" ry="7.052" fill="#fff"/><path d="M72.246 7.157l-20.39 26.528" stroke="#fff" stroke-width="2"/><ellipse cx="71.295" cy="7.223" rx="7.066" ry="7.052" fill="#fff"/></g><path d="M64.22 31.962H83v18.78H64.22z"/><path d="M83 36.5L81.5 40l-4-1" stroke="#99CEFF" stroke-width="2" stroke-miterlimit="6.407" stroke-linecap="round"/><path d="M81.308 45.333a1 1 0 1 0-1.776-.919l1.776.92zM67.17 43.078a6.667 6.667 0 0 1 4.714-8.165l-.517-1.932a8.667 8.667 0 0 0-6.129 10.614l1.932-.517zm4.714-8.165a6.667 6.667 0 0 1 8.165 4.714l1.932-.518a8.667 8.667 0 0 0-10.614-6.128l.517 1.932zm3.451 12.88a6.667 6.667 0 0 1-8.165-4.715l-1.932.517a8.667 8.667 0 0 0 10.615 6.129l-.518-1.932zm4.197-3.379a6.647 6.647 0 0 1-4.197 3.378l.518 1.932a8.646 8.646 0 0 0 5.455-4.39l-1.776-.92z" fill="#99CEFF"/></svg>