<svg width="12" height="13" viewBox="0 0 12 13" fill="none" xmlns="http://www.w3.org/2000/svg">
<path d="M5.99999 1.76993C8.35293 1.76993 10.2745 3.69149 10.2745 6.04443C10.2745 8.39737 8.35293 10.3189 5.99999 10.3189C3.64705 10.3189 1.72549 8.39737 1.72549 6.04443C1.72549 3.69149 3.64705 1.76993 5.99999 1.76993ZM5.99999 0.0444336C2.66666 0.0444336 -4.78707e-06 2.75031 -4.78707e-06 6.04443C-4.78707e-06 9.37776 2.70587 12.0444 5.99999 12.0444C9.33332 12.0444 12 9.33855 12 6.04443C12 2.7111 9.33332 0.0444336 5.99999 0.0444336Z" fill="#99CEFF"/>
<path d="M8.27473 7.69122C8.1963 7.69122 8.07864 7.652 8.00021 7.61278L5.80412 5.84808C5.60804 5.69122 5.56884 5.41672 5.72571 5.22064C5.88257 5.02456 6.15707 4.98534 6.35315 5.1422L8.54922 6.90691C8.7453 7.06377 8.78452 7.33827 8.62765 7.53435C8.51001 7.61278 8.39237 7.69122 8.27473 7.69122Z" fill="#99CEFF"/>
</svg>
