<svg width="232" height="237" viewBox="0 0 232 237" fill="none" xmlns="http://www.w3.org/2000/svg">
<path d="M46.8518 120.456C55.3116 103.248 78.1234 72.2678 88.5464 66.7276C96.5 62.5 105.005 63.9105 112 59.6708C117.509 56.3317 125.612 48 132 48C153.029 48 145.952 60.0859 148.369 57.6708C161.149 47.9057 172.241 33.3109 180.5 21.5C186.011 13.6188 189.905 7.25466 193.5 3.37249C197.509 -0.956923 202.753 -1.57767 202.753 4.23566C202.753 27.7834 179.187 63.1049 179.187 72.1617C179.187 81.2185 164.684 111.2 171.936 116.634C179.187 122.069 183.719 115.634 202.753 115.634C221.788 115.634 237.448 123.786 229.29 129.22C221.133 134.654 203.66 133.748 193.689 138.276C183.719 142.805 151.995 171.787 127.522 168.164C107.943 165.266 -56.4253 225.83 -67 237L-54.6654 138.276L46.8518 120.456Z" fill="white"/>
<path d="M136 68.9998L147 57.9998C146.5 57.4998 147 55.3544 146 53.4999C144.922 51.5005 143.588 50.4309 144 51.9997C144.587 54.2331 138.689 64.8122 136 68.9998Z" fill="url(#paint0_linear)"/>
<defs>
<linearGradient id="paint0_linear" x1="144.8" y1="52.9473" x2="138.707" y2="65.7513" gradientUnits="userSpaceOnUse">
<stop stop-color="#C4C4C4"/>
<stop offset="1" stop-color="#C4C4C4" stop-opacity="0"/>
</linearGradient>
</defs>
</svg>
