<svg width="15" height="16" viewBox="0 0 15 16" fill="none" xmlns="http://www.w3.org/2000/svg">
<path d="M11.839 8.46529L11.1406 9.22631L12.5687 10.7834L13.2671 10.0224L11.839 8.46529Z" fill="#99CEFF"/>
<path d="M14.769 5.03955H12.749V6.11596H14.769V5.03955Z" fill="#99CEFF"/>
<path d="M13.3092 0.733681L11.8789 2.28832L12.5762 3.05053L14.0065 1.49589L13.3092 0.733681Z" fill="#99CEFF"/>
<path d="M9.64914 2.98629e-06H8.66163V2.20174H9.64914V2.98629e-06Z" fill="#99CEFF"/>
<path d="M5.46479 1.52392L4.7666 2.28516L6.19511 3.84178L6.89329 3.08055L5.46479 1.52392Z" fill="#99CEFF"/>
<path d="M9.69572 3.13208L-1.09589e-05 13.7004L2.10971 16L11.8054 5.43167L9.69572 3.13208ZM7.54113 6.99734L9.65082 4.69775L10.369 5.4806L8.25932 7.78018L7.54113 6.99734Z" fill="#99CEFF"/>
</svg>
