<svg width="16" height="16" viewBox="0 0 16 16" fill="none" xmlns="http://www.w3.org/2000/svg"><path d="M12.092 8.372c0-.047 0-.047 0 0 .047-.047.047-.093.047-.093v-.605s0-.046-.046-.046c0 0 0-.047-.047-.047l-3.21-3.21a.674.674 0 0 0-.976 0 .674.674 0 0 0 0 .978l2 2H3.58c-.232 0-.418.14-.557.279-.093.093-.093.232-.093.372a.71.71 0 0 0 .186.465c.14.14.279.186.465.186H9.86l-2 2a.674.674 0 0 0 .465 1.163.597.597 0 0 0 .465-.186l3.163-3.163c.093-.047.093-.047.14-.093z" fill="url(#a)"/><path d="M8 0a8 8 0 0 0-8 8 8 8 0 0 0 8 8 8 8 0 0 0 8-8c-.046-4.419-3.628-8-8-8zm0 14.79c-3.767 0-6.837-3.07-6.837-6.79 0-3.767 3.07-6.79 6.837-6.79S14.79 4.28 14.79 8 11.768 14.79 8 14.79z" fill="url(#b)"/><defs><linearGradient id="a" x1="4" y1="2" x2="16" y2="16" gradientUnits="userSpaceOnUse"><stop stop-color="#BCDDFD"/><stop offset="1" stop-color="#2F7BC2"/></linearGradient><linearGradient id="b" x1="4" y1="2" x2="16" y2="16" gradientUnits="userSpaceOnUse"><stop stop-color="#BCDDFD"/><stop offset="1" stop-color="#2F7BC2"/></linearGradient></defs></svg>