<svg width="114" height="22" viewBox="0 0 114 22" fill="none" xmlns="http://www.w3.org/2000/svg">
<path d="M18.171 6.87876L18.6113 4.73266C18.6189 4.70421 18.6194 4.67447 18.6128 4.64579C18.6063 4.6171 18.5928 4.59026 18.5735 4.56737C18.5541 4.54449 18.5295 4.52618 18.5014 4.5139C18.4734 4.50161 18.4427 4.49569 18.4118 4.49659H15.4352L15.9018 2.21815C15.9095 2.18939 15.91 2.15932 15.9032 2.13035C15.8965 2.10139 15.8826 2.07433 15.8629 2.05137C15.8431 2.02841 15.8179 2.01017 15.7894 1.99814C15.7609 1.9861 15.7298 1.9806 15.6986 1.98208H12.8499C12.7323 1.98606 12.6196 2.02731 12.5295 2.09926C12.4395 2.17121 12.3774 2.26972 12.3531 2.37911L11.3484 7.27579H7.84485L8.87972 2.21099C8.88799 2.18098 8.88838 2.14949 8.88087 2.1193C8.87335 2.08911 8.85815 2.06113 8.8366 2.03782C8.81505 2.01451 8.78781 1.99659 8.75727 1.98562C8.72674 1.97466 8.69384 1.97098 8.66146 1.97492H5.83908C5.72153 1.9789 5.60877 2.02015 5.51875 2.0921C5.42873 2.16405 5.36663 2.26257 5.34234 2.37195L4.89828 4.48944H2.10601C1.98846 4.49341 1.8757 4.53466 1.78568 4.60662C1.69566 4.67857 1.63356 4.77708 1.60927 4.88646L1.16898 7.03256C1.1615 7.0612 1.16103 7.09108 1.16759 7.11991C1.17415 7.14874 1.18758 7.17577 1.20683 7.1989C1.22609 7.22204 1.25067 7.24068 1.27868 7.25339C1.30669 7.26609 1.33739 7.27253 1.36842 7.27221H4.33757L3.76933 10.0621H0.950712C0.83289 10.0666 0.719913 10.1079 0.629385 10.1797C0.538857 10.2515 0.47586 10.3498 0.45021 10.4592L0.00615545 12.6124C-0.00154014 12.6412 -0.00202687 12.6712 0.00473439 12.7002C0.0114957 12.7292 0.0253161 12.7562 0.0450838 12.7792C0.0648515 12.8022 0.0900144 12.8204 0.118548 12.8324C0.147081 12.8445 0.178189 12.85 0.209367 12.8485H3.19733L2.73446 15.1269C2.72602 15.1554 2.72486 15.1855 2.73109 15.2145C2.73731 15.2435 2.75074 15.2707 2.77025 15.2938C2.78976 15.3169 2.81479 15.3352 2.84325 15.3472C2.87172 15.3593 2.9028 15.3647 2.9339 15.363H5.77134C5.88883 15.3594 6.00174 15.3188 6.09233 15.2476C6.18291 15.1764 6.24606 15.0786 6.27184 14.9696L7.27284 10.0621H10.7801L9.74525 15.1269C9.73681 15.1554 9.73566 15.1855 9.74188 15.2145C9.74811 15.2435 9.76153 15.2707 9.78104 15.2938C9.80055 15.3169 9.82558 15.3352 9.85404 15.3472C9.88251 15.3593 9.91359 15.3647 9.9447 15.363H12.8009C12.9183 15.3588 13.0308 15.318 13.1213 15.2469C13.2118 15.1757 13.2751 15.0783 13.3014 14.9696L13.7342 12.8485H16.5528C16.6704 12.8445 16.7831 12.8033 16.8732 12.7313C16.9632 12.6594 17.0253 12.5608 17.0496 12.4515L17.4899 10.3054C17.4973 10.2767 17.4978 10.2469 17.4912 10.218C17.4847 10.1892 17.4713 10.1622 17.452 10.139C17.4327 10.1159 17.4082 10.0972 17.3802 10.0845C17.3521 10.0718 17.3214 10.0654 17.2904 10.0657H14.2836L14.8556 7.27937H17.6931C17.8076 7.27078 17.9162 7.22709 18.0023 7.15485C18.0885 7.0826 18.1477 6.98572 18.171 6.87876Z" fill="white"/>
<path d="M36.7648 15.2234C36.7145 15.2758 36.6516 15.3159 36.5815 15.3402C36.5114 15.3644 36.4361 15.3723 36.3621 15.3629H33.8408C33.4908 15.3629 33.3516 15.2127 33.4269 14.9087L34.5972 9.18575C34.7377 8.51808 34.7227 8.07455 34.5521 7.85517C34.4424 7.73422 34.3039 7.63994 34.1481 7.58021C33.9923 7.52048 33.8237 7.49702 33.6564 7.5118C33.2958 7.52713 32.9401 7.59717 32.6027 7.71925C32.2179 7.83972 31.8409 7.98185 31.4738 8.1449L31.2668 9.14641L30.1115 14.9087C30.0825 15.0216 30.0314 15.1284 29.961 15.2234C29.9076 15.277 29.8415 15.3177 29.7681 15.342C29.6948 15.3662 29.6164 15.3734 29.5395 15.3629H27.0069C26.672 15.3629 26.5403 15.2127 26.6306 14.9087L27.8009 9.11064C27.9214 8.499 27.9063 8.08051 27.752 7.85517C27.6531 7.73156 27.5218 7.63479 27.3713 7.57454C27.2207 7.51428 27.0561 7.49264 26.894 7.5118C26.5379 7.52559 26.1862 7.59196 25.8516 7.70852C25.4551 7.82823 25.0678 7.97404 24.6925 8.1449L23.3378 14.9087C23.3047 15.0222 23.2499 15.1289 23.176 15.2234C23.1188 15.2762 23.0499 15.3161 22.9743 15.3402C22.8988 15.3643 22.8186 15.3721 22.7395 15.3629H20.2181C19.8794 15.3629 19.7515 15.2127 19.8418 14.9087L21.8363 5.10101C21.8588 4.96695 21.923 4.84237 22.0207 4.74333C22.0773 4.69688 22.143 4.66157 22.2141 4.63947C22.2851 4.61736 22.3601 4.6089 22.4346 4.61456H24.956C25.1705 4.61456 25.2947 4.66464 25.3323 4.76479C25.3664 4.87208 25.3664 4.98656 25.3323 5.09386L25.2194 5.60177L25.242 5.62323C25.7906 5.25375 26.3894 4.95655 27.022 4.73975C27.6052 4.53498 28.2216 4.42847 28.8433 4.42499C29.4462 4.40627 30.0447 4.52913 30.5857 4.78267C30.815 4.89569 31.0159 5.05462 31.1744 5.24851C31.3329 5.4424 31.4453 5.66665 31.5039 5.9058C32.1441 5.47776 32.8319 5.11792 33.5548 4.83275C34.2257 4.55876 34.9471 4.41409 35.6772 4.40711C36.3064 4.36574 36.9348 4.49736 37.4873 4.78625C37.8666 5.02052 38.1496 5.37159 38.2889 5.78061C38.4315 6.22503 38.475 6.6928 38.4168 7.15411C38.3604 7.66202 38.2814 8.16993 38.176 8.67784L36.9153 14.9087C36.8831 15.0205 36.8323 15.1268 36.7648 15.2234Z" fill="white"/>
<path d="M38.9962 11.9007C38.998 11.4296 39.0408 10.9594 39.1241 10.495C39.2069 10.0229 39.3123 9.56147 39.4327 9.11079C39.5931 8.54112 39.8086 7.98674 40.0762 7.45472C40.3534 6.89191 40.736 6.38167 41.2052 5.94887C41.7379 5.48085 42.3617 5.11633 43.0416 4.87582C43.916 4.57747 44.8412 4.43675 45.7699 4.46091C46.2911 4.4588 46.8105 4.51767 47.3166 4.63617C47.7828 4.73872 48.2263 4.91917 48.6261 5.16912C48.9996 5.40124 49.3103 5.71371 49.5331 6.08121C49.7629 6.4772 49.8784 6.9239 49.868 7.37603C49.9061 8.12769 49.6486 8.86594 49.1455 9.44701C48.6516 9.97761 48.0344 10.3915 47.3429 10.656C46.5977 10.9471 45.816 11.1454 45.0173 11.2462C44.1818 11.3535 43.1808 11.4357 42.4771 11.4643C42.3994 11.7179 42.3577 11.9801 42.3529 12.2441C42.3529 12.8987 43.5308 12.9595 43.7604 12.9917C44.6297 13.099 46.3946 12.8915 47.6891 12.6733C47.8236 12.64 47.9648 12.64 48.0993 12.6733C48.2084 12.7091 48.2611 12.8307 48.2611 13.031V14.0754C48.281 14.2928 48.2284 14.5106 48.1106 14.6978C47.9298 14.8686 47.7055 14.9919 47.4596 15.0555C47.1673 15.1524 46.8679 15.2289 46.5639 15.2844C46.229 15.3488 45.8753 15.4024 45.5102 15.4382C45.1452 15.474 44.7576 15.5026 44.4076 15.5241C44.0576 15.5455 43.7001 15.5562 43.3765 15.5562C42.7753 15.5699 42.1746 15.511 41.589 15.381C41.086 15.2663 40.6158 15.0477 40.2117 14.7407C39.8228 14.4321 39.5171 14.0397 39.3198 13.5961C39.0889 13.0586 38.9787 12.4811 38.9962 11.9007ZM46.5865 7.79452C46.5902 7.66533 46.5642 7.53693 46.5102 7.41831C46.4563 7.29969 46.3757 7.1937 46.2742 7.10777C46.0308 6.91375 45.7181 6.81639 45.4011 6.83593C45.0026 6.82949 44.6105 6.93258 44.2721 7.1328C43.9983 7.32794 43.7659 7.57069 43.5872 7.84817C43.391 8.15369 43.2367 8.48186 43.1281 8.82464C43.0115 9.18233 43.0153 9.13941 42.9249 9.4792C44.8065 9.56505 46.0032 8.9856 46.2365 8.73522C46.4728 8.47426 46.5977 8.13864 46.5865 7.79452Z" fill="white"/>
<path d="M57.8622 14.383C57.8704 14.4617 57.8613 14.5411 57.8354 14.6162C57.8094 14.6914 57.7673 14.7605 57.7117 14.8193C57.6099 14.9431 57.4707 15.0342 57.3128 15.0805C57.0082 15.172 56.6977 15.2449 56.3833 15.2986C56.0521 15.3559 55.736 15.4059 55.4312 15.4417C55.1264 15.4775 54.8329 15.5025 54.5582 15.5168C54.2834 15.5311 54.0539 15.5383 53.8733 15.5383C53.295 15.5651 52.7181 15.4647 52.1874 15.245C51.8166 15.0792 51.508 14.8096 51.303 14.4724C51.1146 14.1333 51.0201 13.7542 51.0283 13.3707C51.0299 12.9346 51.0765 12.4998 51.1675 12.0723L52.1761 7.215H51.1863C51.002 7.215 50.8815 7.17565 50.8288 7.09339C50.7721 6.98206 50.7601 6.85487 50.795 6.7357L51.1374 5.10109C51.1567 4.96824 51.217 4.84379 51.3105 4.74341C51.4231 4.65511 51.5678 4.61269 51.7132 4.62537H52.7443L53.1733 2.53292C53.29 2.1037 53.4593 1.97852 53.8544 1.97852H56.308C56.6843 1.97852 56.6241 2.20386 56.594 2.37912L56.1387 4.62537H58.4756C58.6901 4.62537 58.8143 4.66114 58.8519 4.73268C58.8899 4.84917 58.8899 4.97386 58.8519 5.09036L58.5057 6.74643C58.4883 6.87528 58.4379 6.99809 58.359 7.10412C58.3014 7.15218 58.2336 7.18791 58.1603 7.2089C58.0869 7.22988 58.0096 7.23562 57.9337 7.22573H55.5704L54.7651 11.2675C54.724 11.4441 54.6976 11.6235 54.6861 11.8041C54.6745 11.9295 54.7062 12.055 54.7764 12.1618C54.8727 12.2723 55.0052 12.3491 55.1527 12.3799C55.3989 12.4372 55.6521 12.4624 55.9054 12.4551C56.091 12.4551 56.3319 12.4479 56.6279 12.4336C56.9239 12.4193 57.2175 12.3978 57.5085 12.3692C57.6356 12.3633 57.7628 12.3778 57.8848 12.4121C57.9676 12.4408 58.0015 12.5802 57.9864 12.827L57.8622 14.383Z" fill="white"/>
<path d="M69.2106 14.8839C69.194 15.0029 69.1461 15.1161 69.0714 15.2129C69.0164 15.2692 68.9481 15.3121 68.8722 15.3382C68.7963 15.3644 68.7149 15.3729 68.6349 15.3632H66.0458C65.8463 15.3632 65.7259 15.3238 65.6695 15.2451C65.6338 15.1356 65.6338 15.0184 65.6695 14.9089L65.7861 14.3617L65.7636 14.3402C65.1923 14.7051 64.5801 15.0086 63.9384 15.2451C63.4082 15.4366 62.8461 15.536 62.2789 15.5384C61.1474 15.5384 60.3709 15.2594 59.9494 14.7015C59.4966 14.0302 59.2768 13.2408 59.321 12.4445C59.3224 12.076 59.3488 11.708 59.4 11.3428C59.4527 10.9601 59.5167 10.5559 59.5957 10.1338C59.7426 9.35367 59.9501 8.58493 60.2166 7.83394C60.4448 7.20274 60.779 6.61085 61.2064 6.08129C61.5994 5.59871 62.1059 5.21038 62.6853 4.94743C63.3671 4.66084 64.1077 4.52274 64.8529 4.54325C65.3188 4.55394 65.7815 4.62003 66.2302 4.73998C66.7254 4.8634 67.2021 5.04608 67.6489 5.28366L67.743 4.92597C67.7475 4.87108 67.7638 4.81765 67.791 4.76904C67.8182 4.72042 67.8557 4.67765 67.901 4.6434C68.0084 4.59297 68.1276 4.56957 68.2472 4.57544H70.7912C71.0057 4.57544 71.1298 4.62194 71.1675 4.70779C71.2005 4.82494 71.2005 4.94831 71.1675 5.06547L69.2106 14.8839ZM65.4474 7.28668C65.1533 7.28178 64.8604 7.32535 64.5819 7.41545C64.3479 7.50371 64.1408 7.64637 63.9798 7.83036C63.7537 8.16514 63.5729 8.52566 63.4417 8.90341C63.3111 9.26674 63.2079 9.63849 63.1331 10.0158C63.0267 10.4974 62.965 10.9869 62.9487 11.4787C62.9053 11.8019 62.9912 12.1287 63.1895 12.3944C63.4028 12.5542 63.6714 12.632 63.9422 12.6126C64.3856 12.5915 64.8244 12.517 65.248 12.3908C65.5986 12.285 65.9356 12.1422 66.2528 11.9652L67.1484 7.65152C66.6123 7.41685 66.0301 7.29252 65.4399 7.28668H65.4474Z" fill="white"/>
<path d="M81.3693 14.9946C81.3552 15.1027 81.2966 15.2011 81.2063 15.2681C81.116 15.3352 81.0014 15.3655 80.8876 15.3523H79.9242C79.6646 15.3523 79.5479 15.2307 79.627 14.9946L80.9554 8.55635C81.0386 8.15047 81.0889 7.73912 81.1059 7.32592C81.1259 7.06147 81.0782 6.79635 80.9667 6.55332C80.9183 6.46037 80.8507 6.37762 80.7679 6.31003C80.6852 6.24243 80.5889 6.19136 80.485 6.15987C80.2068 6.08088 79.9172 6.04466 79.627 6.05256C79.2855 6.06192 78.9466 6.1124 78.6184 6.20279C78.2195 6.30652 77.8282 6.42098 77.4368 6.56047C77.0454 6.69997 76.6842 6.82516 76.3267 6.96466C75.9692 7.10415 75.7057 7.21503 75.5213 7.30088L73.9408 15.0161C73.9267 15.1242 73.8681 15.2225 73.7778 15.2896C73.6875 15.3567 73.5729 15.3869 73.4591 15.3738H72.5183C72.2587 15.3738 72.1608 15.2522 72.221 15.0161L75.2015 0.358248C75.217 0.25748 75.2707 0.16556 75.3524 0.099714C75.4342 0.0338682 75.5384 -0.00138361 75.6455 0.00056495H76.5863C76.861 0.00056495 76.9626 0.125754 76.9288 0.358248L75.7998 5.89161H75.8487C76.0595 5.77715 76.3304 5.63765 76.6616 5.47669C77.0118 5.30974 77.371 5.16049 77.7378 5.02959C78.1361 4.89009 78.5418 4.77069 78.9534 4.67191C79.3541 4.573 79.7661 4.52134 80.1802 4.5181C80.7637 4.48951 81.3458 4.59502 81.8773 4.82571C82.2502 5.0033 82.5458 5.29945 82.7128 5.66269C82.8817 6.06805 82.9487 6.5053 82.9084 6.93962C82.8723 7.48065 82.7956 8.01854 82.6789 8.54919L81.3693 14.9946Z" fill="white"/>
<path d="M92.0044 14.9946C91.9967 15.0965 91.9468 15.1913 91.8657 15.2583C91.7846 15.3254 91.6789 15.3591 91.5716 15.3522H90.6308C90.3561 15.3522 90.2545 15.2306 90.311 14.9946L90.469 14.1647C89.8615 14.5148 89.2333 14.8313 88.5874 15.1126C87.8549 15.4222 87.0596 15.5748 86.258 15.5597C85.2043 15.5597 84.4517 15.3093 84.0001 14.8086C83.5485 14.3078 83.3228 13.571 83.3228 12.5981C83.3224 12.2131 83.3475 11.8284 83.398 11.4463C83.4507 11.0243 83.5222 10.6022 83.6125 10.1802C83.7729 9.36698 83.9955 8.56602 84.2786 7.78367C84.5073 7.14144 84.8566 6.54397 85.3097 6.02029C85.7321 5.54431 86.2674 5.17042 86.8714 4.92936C87.5916 4.66882 88.3592 4.54723 89.1293 4.57168C89.6294 4.58254 90.1262 4.65222 90.6083 4.77913C91.1795 4.9176 91.7334 5.11427 92.2603 5.36573L92.2829 5.34427L92.3506 5.03667C92.3552 4.98898 92.3708 4.94282 92.3961 4.90143C92.4215 4.86004 92.456 4.82441 92.4974 4.79702C92.6128 4.7622 92.734 4.74765 92.8549 4.7541H93.7091C93.8785 4.7541 93.9838 4.77913 94.0328 4.83279C94.0817 4.88644 94.0854 4.98659 94.0553 5.14755L92.0044 14.9946ZM92.0044 6.73566C91.0115 6.30414 89.935 6.07391 88.8433 6.05964C88.4006 6.04887 87.9598 6.11931 87.545 6.2671C87.1741 6.41299 86.8534 6.65458 86.6193 6.96458C86.3244 7.3564 86.0959 7.78967 85.9419 8.24866C85.72 8.89381 85.5489 9.55377 85.4301 10.2231C85.3361 10.6881 85.2645 11.1066 85.2119 11.4857C85.1647 11.7962 85.1383 12.1092 85.1329 12.4228C85.1329 13.106 85.2646 13.5495 85.5317 13.7534C85.8858 13.9805 86.31 14.0876 86.736 14.0574C87.0616 14.0514 87.3852 14.007 87.6993 13.9251C88.0816 13.8361 88.4584 13.7274 88.8283 13.5996C89.2046 13.4673 89.5809 13.3349 89.9158 13.1954C90.2508 13.0559 90.5368 12.9379 90.7513 12.8377L92.0044 6.73566Z" fill="white"/>
<path d="M103.152 6.01671C103.135 6.06799 103.105 6.11463 103.065 6.15263C103.025 6.19062 102.976 6.21885 102.922 6.23489C102.788 6.2652 102.649 6.27247 102.512 6.25635L101.067 6.11328C100.579 6.06405 100.089 6.03898 99.5991 6.03817C99.2576 6.03617 98.9164 6.0613 98.5793 6.11328C98.2917 6.15511 98.0149 6.24729 97.7627 6.38512C97.538 6.51104 97.3523 6.6912 97.2245 6.90734C97.0846 7.16953 97.0173 7.46127 97.0289 7.75505C97.0204 7.97125 97.085 8.18436 97.2133 8.36311C97.3402 8.52626 97.5001 8.66368 97.6837 8.76729C97.8931 8.88091 98.1169 8.96865 98.3497 9.0284C98.6006 9.09278 98.8515 9.14643 99.1024 9.18935C99.347 9.23228 99.6556 9.30381 100.032 9.39681C100.413 9.49465 100.779 9.64019 101.119 9.82961C101.475 10.0299 101.78 10.3008 102.015 10.6237C102.275 11.0052 102.407 11.4533 102.391 11.9077C102.417 12.5258 102.281 13.1402 101.996 13.6962C101.746 14.1457 101.379 14.5272 100.931 14.805C100.458 15.0887 99.9314 15.2841 99.3809 15.3809C98.7717 15.4899 98.153 15.5438 97.5331 15.5418C97.2421 15.5418 96.926 15.5311 96.5848 15.5096C96.2386 15.4882 95.9074 15.456 95.5876 15.413C95.2677 15.3701 94.9629 15.3165 94.6806 15.2592C94.4389 15.2137 94.2039 15.1404 93.9807 15.0411C93.8984 14.9978 93.8362 14.9268 93.8062 14.842C93.7763 14.7573 93.7808 14.6649 93.8189 14.5832L94.0033 14.1254C94.0199 14.0689 94.049 14.0164 94.0886 13.9714C94.1282 13.9264 94.1773 13.8899 94.2328 13.8643C94.3441 13.8343 94.4608 13.8269 94.5753 13.8428L95.3279 13.9287C95.6139 13.9608 95.8999 13.9859 96.1897 14.0073L97.0364 14.061C97.3149 14.061 97.5407 14.0825 97.7251 14.0825C98.1033 14.0852 98.481 14.0565 98.854 13.9966C99.1702 13.9457 99.4754 13.8454 99.7572 13.6997C100.014 13.5664 100.225 13.3667 100.367 13.1239C100.523 12.8268 100.598 12.4971 100.585 12.1653C100.607 11.9489 100.564 11.7311 100.462 11.5364C100.361 11.3418 100.204 11.178 100.009 11.0636C99.5827 10.8388 99.1177 10.6875 98.6357 10.6165C98.272 10.566 97.9115 10.4967 97.5557 10.4091C97.1604 10.3194 96.7804 10.1773 96.4268 9.98699C96.0936 9.79043 95.8087 9.52818 95.5913 9.21797C95.342 8.85663 95.2183 8.43001 95.2376 7.99827C95.2222 7.43594 95.3514 6.87854 95.6139 6.37439C95.8463 5.94174 96.1908 5.57246 96.6149 5.30134C97.0563 5.02289 97.5472 4.82292 98.0637 4.71116C98.625 4.5863 99.1996 4.52388 99.776 4.52517C99.9905 4.52517 100.254 4.52517 100.57 4.54663C100.886 4.56809 101.206 4.59313 101.537 4.63605C101.868 4.67897 102.181 4.7362 102.478 4.80416C102.736 4.85897 102.988 4.93681 103.231 5.03665C103.275 5.04813 103.316 5.07188 103.347 5.10494C103.377 5.13801 103.397 5.17894 103.404 5.22265C103.411 5.30861 103.399 5.395 103.37 5.4766L103.152 6.01671Z" fill="white"/>
<path d="M112.438 14.9947C112.423 15.1024 112.364 15.2001 112.274 15.267C112.184 15.3339 112.07 15.3645 111.956 15.3524H110.993C110.733 15.3524 110.617 15.2307 110.696 14.9947L112.024 8.55637C112.106 8.15022 112.156 7.739 112.175 7.32594C112.193 7.06159 112.145 6.79689 112.035 6.55335C111.987 6.46039 111.919 6.37765 111.837 6.31006C111.754 6.24246 111.658 6.19139 111.554 6.1599C111.276 6.08091 110.986 6.04468 110.696 6.05259C110.354 6.06195 110.015 6.11243 109.687 6.20282C109.288 6.30655 108.893 6.421 108.506 6.5605C108.118 6.7 107.753 6.82519 107.377 6.96468C107 7.10418 106.759 7.21506 106.575 7.30091L104.998 14.9947C104.983 15.1024 104.924 15.2001 104.834 15.267C104.744 15.3339 104.63 15.3645 104.517 15.3524H103.576C103.316 15.3524 103.2 15.2307 103.279 14.9947L106.27 0.358275C106.286 0.254971 106.342 0.16101 106.427 0.0948334C106.512 0.0286573 106.62 -0.00495566 106.729 0.000591744H107.666C107.945 0.000591744 108.043 0.125781 108.013 0.358275L106.88 5.90594H106.925C107.14 5.79148 107.411 5.65199 107.742 5.49103C108.092 5.32342 108.451 5.17416 108.818 5.04392C109.216 4.90442 109.622 4.78503 110.033 4.68624C110.434 4.58733 110.846 4.53568 111.26 4.53244C111.844 4.50384 112.426 4.60936 112.957 4.84005C113.33 5.01861 113.625 5.31446 113.793 5.67702C113.962 6.08239 114.029 6.51963 113.989 6.95395C113.951 7.4948 113.874 8.03257 113.759 8.56353L112.438 14.9947Z" fill="white"/>
<path d="M3.70192 18.2424H3.92018C4.0109 18.2461 4.10135 18.2545 4.19113 18.2675C4.28897 18.2675 4.38305 18.2925 4.48089 18.3104C4.56964 18.3264 4.65659 18.3503 4.74055 18.3819C4.78571 18.3819 4.80829 18.4177 4.81582 18.4356C4.82144 18.4461 4.82436 18.4578 4.82436 18.4696C4.82436 18.4814 4.82144 18.493 4.81582 18.5035L4.78195 18.6574C4.77417 18.6752 4.76406 18.692 4.75184 18.7074C4.73962 18.7134 4.72607 18.7165 4.71233 18.7165C4.69859 18.7165 4.68504 18.7134 4.67282 18.7074L4.22123 18.6538C4.05189 18.6538 3.87879 18.6287 3.70192 18.6287C3.51653 18.621 3.33261 18.6632 3.17131 18.7503C3.03975 18.8313 2.93426 18.9451 2.86649 19.0794C2.79445 19.231 2.74992 19.393 2.73478 19.5587C2.73478 19.7411 2.70468 19.9164 2.70468 20.1346C2.70372 20.3141 2.71629 20.4934 2.74231 20.6711C2.76022 20.8303 2.80735 20.9852 2.88154 21.1289C2.95094 21.2584 3.05637 21.3673 3.18636 21.4437C3.34202 21.5312 3.52126 21.5735 3.70192 21.5653C3.88255 21.5653 4.05189 21.5653 4.21371 21.5403L4.66529 21.4866C4.71045 21.4866 4.73679 21.4866 4.75184 21.4866C4.76406 21.502 4.77417 21.5189 4.78195 21.5367L4.81205 21.6834C4.81757 21.7069 4.81757 21.7313 4.81205 21.7549C4.81205 21.7549 4.78195 21.7871 4.74432 21.8014C4.66488 21.8347 4.58148 21.8587 4.49595 21.8729C4.3991 21.8937 4.3011 21.9092 4.20242 21.9194L3.92018 21.9445H3.69815C3.43796 21.9556 3.17903 21.9039 2.94552 21.7942C2.76008 21.6982 2.60437 21.5576 2.49394 21.3865C2.37998 21.208 2.30451 21.0099 2.27191 20.8035C2.2324 20.5752 2.21227 20.3444 2.2117 20.1131C2.21082 19.8736 2.22969 19.6344 2.26815 19.3978C2.30003 19.1843 2.37272 18.9782 2.48265 18.7897C2.58963 18.6117 2.74409 18.4636 2.93047 18.3605C3.1722 18.2573 3.43832 18.2166 3.70192 18.2424Z" fill="white"/>
<path d="M9.08369 20.0666C9.0819 20.2938 9.06682 20.5207 9.03853 20.7462C9.01176 20.9629 8.94554 21.1735 8.84284 21.3686C8.73819 21.5539 8.58365 21.7094 8.39503 21.8193C8.14554 21.9497 7.8628 22.0116 7.57842 21.9981C7.38139 22.0028 7.18509 21.9737 6.99889 21.9123C6.84992 21.8658 6.71279 21.7902 6.59623 21.6905C6.48816 21.5978 6.39999 21.486 6.33657 21.3615C6.27203 21.2311 6.22281 21.0943 6.18981 20.9537C6.15566 20.8089 6.13302 20.6618 6.12207 20.5137C6.12207 20.3635 6.12207 20.2133 6.12207 20.0666C6.12207 19.92 6.12207 19.8306 6.14089 19.709C6.15186 19.5725 6.17579 19.4372 6.21239 19.3048C6.24623 19.1696 6.29676 19.0388 6.36291 18.9149C6.42989 18.7904 6.51901 18.6779 6.62634 18.5823C6.74349 18.4808 6.88023 18.4018 7.029 18.3498C7.20658 18.2832 7.39511 18.2469 7.58594 18.2425C7.85952 18.2309 8.13163 18.2863 8.37621 18.4034C8.56387 18.5011 8.72097 18.6442 8.83156 18.8183C8.93998 18.9992 9.01029 19.1985 9.03853 19.4049C9.07067 19.6241 9.08576 19.8453 9.08369 20.0666ZM8.63963 20.1203C8.64028 19.906 8.62392 19.692 8.59071 19.48C8.56545 19.3147 8.50666 19.1556 8.41761 19.0115C8.34129 18.8873 8.22892 18.7867 8.09397 18.7218C7.93447 18.6493 7.75881 18.615 7.58218 18.6216C7.41377 18.617 7.24684 18.6526 7.09673 18.7253C6.96726 18.7972 6.86064 18.901 6.78815 19.0258C6.70436 19.1728 6.64832 19.3326 6.62257 19.4979C6.58744 19.7037 6.57108 19.9119 6.57365 20.1203C6.57296 20.3236 6.58679 20.5268 6.61505 20.7284C6.64122 20.8925 6.69725 21.0511 6.78063 21.1969C6.85201 21.3225 6.95889 21.4265 7.08921 21.4974C7.24315 21.5745 7.41583 21.6115 7.58971 21.6047C7.76758 21.6118 7.94458 21.5774 8.10526 21.5045C8.24067 21.4372 8.35395 21.3357 8.43266 21.2112C8.516 21.0672 8.56964 20.9094 8.59071 20.7462C8.62591 20.5393 8.64227 20.3299 8.63963 20.1203Z" fill="white"/>
<path d="M11.2019 19.0615V21.855C11.2031 21.8678 11.2013 21.8807 11.1966 21.8928C11.1919 21.9049 11.1844 21.9158 11.1746 21.9247C11.1648 21.9336 11.1531 21.9404 11.1402 21.9444C11.1274 21.9484 11.1137 21.9496 11.1003 21.948H10.8444C10.7729 21.948 10.739 21.9158 10.739 21.855V18.3747C10.739 18.3175 10.7691 18.2925 10.8331 18.2925H11.0739C11.09 18.2904 11.1063 18.2916 11.1219 18.2959C11.1374 18.3002 11.1519 18.3076 11.1643 18.3175C11.1858 18.3353 11.2048 18.3558 11.2207 18.3783L12.8012 20.6854L13.1061 21.1468V18.389C13.1024 18.361 13.1105 18.3327 13.1286 18.3103C13.1529 18.3015 13.1797 18.3015 13.2039 18.3103H13.4485C13.4702 18.302 13.4945 18.302 13.5162 18.3103C13.5344 18.3327 13.5425 18.361 13.5388 18.389V21.8586C13.5388 21.9194 13.5087 21.948 13.4485 21.948H13.2265C13.1935 21.9503 13.1606 21.9428 13.1324 21.9265C13.1108 21.9061 13.0918 21.8833 13.0759 21.8586L11.533 19.5873L11.2019 19.0615Z" fill="white"/>
<path d="M16.6886 18.2422H16.9031C16.9951 18.2457 17.0868 18.2541 17.1778 18.2672C17.2757 18.2672 17.3697 18.2923 17.4676 18.3102C17.5563 18.3261 17.6433 18.3501 17.7272 18.3817C17.7724 18.3817 17.795 18.4175 17.8025 18.4354C17.81 18.4574 17.81 18.4812 17.8025 18.5033L17.7686 18.6571C17.7609 18.6749 17.7507 18.6918 17.7385 18.7072C17.7263 18.7132 17.7128 18.7163 17.699 18.7163C17.6853 18.7163 17.6717 18.7132 17.6595 18.7072L17.2079 18.6535C17.0386 18.6535 16.8655 18.6285 16.6886 18.6285C16.5032 18.6204 16.3191 18.6626 16.158 18.7501C16.0264 18.831 15.921 18.9449 15.8532 19.0792C15.7811 19.2307 15.7366 19.3928 15.7215 19.5585C15.7215 19.7409 15.6914 19.9162 15.6914 20.1343C15.6911 20.3137 15.7024 20.4929 15.7252 20.6709C15.7461 20.8299 15.7944 20.9846 15.8682 21.1287C15.9388 21.2666 16.0499 21.3822 16.1881 21.4614C16.3438 21.5489 16.523 21.5912 16.7037 21.583C16.8843 21.583 17.0536 21.583 17.2154 21.5579L17.667 21.5043C17.7122 21.5043 17.7385 21.5043 17.7536 21.5043C17.7658 21.5197 17.7759 21.5365 17.7837 21.5543L17.8138 21.701C17.8193 21.7246 17.8193 21.749 17.8138 21.7725C17.8138 21.7725 17.7837 21.8047 17.7461 21.819C17.6666 21.8524 17.5832 21.8764 17.4977 21.8906C17.4008 21.9113 17.3028 21.9268 17.2042 21.9371L16.9219 21.9621H16.6999C16.4397 21.9732 16.1808 21.9215 15.9473 21.8119C15.7618 21.7158 15.6061 21.5752 15.4957 21.4041C15.3817 21.2257 15.3063 21.0275 15.2737 20.8211C15.2323 20.5931 15.2121 20.3621 15.2134 20.1308C15.2126 19.8913 15.2314 19.6521 15.2699 19.4154C15.3018 19.202 15.3745 18.9959 15.4844 18.8073C15.5914 18.6293 15.7458 18.4813 15.9322 18.3781C16.1677 18.2713 16.4283 18.2244 16.6886 18.2422Z" fill="white"/>
<path d="M22.0695 20.0666C22.0698 20.2901 22.0572 20.5134 22.0319 20.7355C22.0039 20.9524 21.9364 21.163 21.8324 21.3579C21.7283 21.5475 21.5723 21.707 21.3808 21.8193C21.1313 21.9497 20.8486 22.0116 20.5642 21.9981C20.3672 22.0028 20.1709 21.9737 19.9847 21.9123C19.833 21.8667 19.6933 21.7911 19.5745 21.6905C19.4664 21.5978 19.3783 21.486 19.3148 21.3615C19.2503 21.2311 19.2011 21.0943 19.1681 20.9537C19.1339 20.8089 19.1113 20.6618 19.1003 20.5137C19.1003 20.3635 19.1003 20.2133 19.1003 20.0666C19.1003 19.92 19.1003 19.8306 19.1192 19.709C19.1317 19.5674 19.1581 19.4273 19.1982 19.2905C19.232 19.1553 19.2826 19.0245 19.3487 18.9006C19.4157 18.7761 19.5048 18.6636 19.6121 18.568C19.7293 18.4665 19.866 18.3875 20.0148 18.3355C20.1933 18.2738 20.3818 18.2423 20.5717 18.2425C20.8453 18.2309 21.1174 18.2863 21.362 18.4034C21.5557 18.5 21.7182 18.6446 21.8324 18.8219C21.9391 19.002 22.0081 19.2 22.0356 19.4049C22.064 19.6244 22.0753 19.8456 22.0695 20.0666ZM21.6254 20.1203C21.6268 19.9059 21.6092 19.6917 21.5727 19.48C21.5504 19.3145 21.4928 19.1551 21.4034 19.0115C21.3271 18.8873 21.2147 18.7867 21.0798 18.7218C20.9201 18.6497 20.7446 18.6154 20.568 18.6216C20.3996 18.617 20.2326 18.6526 20.0825 18.7253C19.9531 18.7972 19.8464 18.901 19.7739 19.0258C19.6902 19.1728 19.6341 19.3326 19.6084 19.4979C19.5783 19.7041 19.5669 19.9123 19.5745 20.1203C19.5738 20.3236 19.5876 20.5268 19.6159 20.7284C19.6397 20.8921 19.6932 21.0506 19.7739 21.1969C19.8453 21.3225 19.9522 21.4265 20.0825 21.4974C20.2365 21.5745 20.4092 21.6115 20.583 21.6047C20.7546 21.6089 20.9248 21.5746 21.0798 21.5045C21.2152 21.4372 21.3285 21.3357 21.4072 21.2112C21.4945 21.068 21.5519 20.9101 21.5765 20.7462C21.6117 20.5393 21.6281 20.3299 21.6254 20.1203Z" fill="white"/>
<path d="M26.1715 21.855C26.1761 21.8652 26.1784 21.8762 26.1784 21.8872C26.1784 21.8983 26.1761 21.9092 26.1715 21.9194C26.1659 21.9287 26.1576 21.9364 26.1476 21.9414C26.1376 21.9465 26.1263 21.9488 26.1151 21.948H25.7839C25.759 21.9525 25.7335 21.9525 25.7086 21.948C25.6857 21.9341 25.6674 21.9143 25.656 21.8908L24.9033 20.4243H24.1507V21.855C24.1507 21.9194 24.1168 21.9552 24.0528 21.9552H23.8045C23.7912 21.9554 23.7781 21.9528 23.766 21.9476C23.754 21.9424 23.7432 21.9348 23.7346 21.9252C23.726 21.9157 23.7197 21.9044 23.7162 21.8923C23.7126 21.8802 23.7119 21.8674 23.7142 21.855V18.3783C23.7142 18.3211 23.748 18.2925 23.8158 18.2925H24.9936C25.1351 18.2917 25.2759 18.311 25.4113 18.3497C25.5486 18.3855 25.6766 18.4476 25.7877 18.5322C25.8943 18.6209 25.9791 18.7308 26.036 18.8541C26.0944 19.0014 26.1212 19.1582 26.1151 19.3155C26.1141 19.4216 26.1002 19.5272 26.0737 19.6302C26.0461 19.7334 26.003 19.8321 25.9457 19.9235C25.8849 20.0179 25.8072 20.1014 25.7162 20.1703C25.6141 20.2443 25.4996 20.3011 25.3775 20.3385L26.1715 21.855ZM25.6447 19.3155C25.6482 19.2062 25.6264 19.0975 25.5807 18.9971C25.5408 18.92 25.4813 18.8536 25.4076 18.804C25.3339 18.7561 25.2506 18.7232 25.163 18.7074C25.0714 18.6889 24.9781 18.6793 24.8845 18.6788H24.1582V20.0308H24.8732C24.9617 20.031 25.0499 20.0226 25.1366 20.0058C25.2263 19.9906 25.3112 19.9564 25.385 19.9057C25.4663 19.8519 25.5302 19.7775 25.5694 19.691C25.6248 19.5731 25.6505 19.4445 25.6447 19.3155Z" fill="white"/>
<path d="M30.4882 20.1094C30.4896 20.3494 30.4669 20.5889 30.4204 20.8248C30.3823 21.0326 30.3003 21.2309 30.1796 21.4078C30.0605 21.5847 29.8926 21.727 29.6941 21.8192C29.4574 21.919 29.2004 21.9678 28.9415 21.9622H27.854C27.8197 21.9656 27.7853 21.9581 27.7561 21.9408C27.7385 21.9208 27.7291 21.8953 27.7298 21.8692V18.3854C27.7298 18.3246 27.7674 18.296 27.8351 18.296H28.9415C29.2001 18.2896 29.457 18.3372 29.6941 18.4355C29.884 18.5241 30.0471 18.657 30.1683 18.8218C30.2903 18.9972 30.3735 19.1943 30.4129 19.4012C30.4621 19.6344 30.4873 19.8716 30.4882 20.1094ZM30.0065 20.1595C30.0136 19.9052 29.9832 19.6511 29.9162 19.4048C29.8673 19.2409 29.7826 19.0885 29.6678 18.9577C29.5757 18.8568 29.4558 18.7825 29.3216 18.7431C29.1894 18.7072 29.0526 18.6892 28.9152 18.6894H28.1625V21.5509H28.8775C29.0108 21.5513 29.1436 21.5357 29.2727 21.5044C29.4137 21.4725 29.5435 21.4058 29.649 21.3112C29.7722 21.1928 29.8638 21.0481 29.9162 20.8892C29.9849 20.6518 30.0128 20.4054 29.999 20.1595H30.0065Z" fill="white"/>
<path d="M32.5272 21.948H32.2713C32.1998 21.948 32.1659 21.9158 32.1659 21.855V18.389C32.1636 18.3749 32.1648 18.3604 32.1694 18.3467C32.174 18.3331 32.1818 18.3206 32.1923 18.3103C32.2179 18.3022 32.2457 18.3022 32.2713 18.3103H32.5272C32.5503 18.3027 32.5755 18.3027 32.5987 18.3103C32.6092 18.3206 32.617 18.3331 32.6216 18.3467C32.6261 18.3604 32.6273 18.3749 32.625 18.389V21.855C32.6269 21.8676 32.6257 21.8805 32.6214 21.8926C32.6172 21.9047 32.61 21.9157 32.6005 21.9247C32.591 21.9337 32.5795 21.9405 32.5667 21.9445C32.554 21.9486 32.5405 21.9498 32.5272 21.948Z" fill="white"/>
<path d="M34.6048 21.8586C34.5978 21.8872 34.5805 21.9125 34.5559 21.9302C34.5312 21.9364 34.5053 21.9364 34.4806 21.9302H34.1796C34.1269 21.9302 34.1119 21.9015 34.1344 21.8407L35.3462 18.3605C35.3507 18.3365 35.3643 18.3149 35.3844 18.2998C35.4045 18.2846 35.4297 18.277 35.4553 18.2782H35.7827C35.7961 18.2764 35.8098 18.2774 35.8228 18.2811C35.8358 18.2848 35.8478 18.2911 35.858 18.2997C35.8744 18.3169 35.8861 18.3378 35.8918 18.3605L37.1036 21.8515C37.1036 21.9051 37.1036 21.9302 37.0584 21.9302H36.7047C36.6827 21.9372 36.6589 21.9372 36.6369 21.9302C36.6211 21.9158 36.6105 21.897 36.6068 21.8765L36.3208 20.9716H34.9059L34.6048 21.8586ZM35.9031 19.6732L35.6246 18.779H35.6058L35.3349 19.6553L35.0376 20.5924H36.1929L35.9031 19.6732Z" fill="white"/>
<path d="M43.3762 21.855C43.3818 21.8649 43.3848 21.876 43.3848 21.8872C43.3848 21.8985 43.3818 21.9095 43.3762 21.9194C43.3716 21.9288 43.3641 21.9365 43.3546 21.9417C43.3452 21.9468 43.3344 21.949 43.3235 21.948H42.9924C42.9675 21.9525 42.942 21.9525 42.9171 21.948C42.8942 21.9341 42.8759 21.9143 42.8644 21.8908L42.1118 20.4243H41.3592V21.855C41.3592 21.9194 41.3253 21.9552 41.2613 21.9552H41.0242C41.0109 21.957 40.9974 21.9558 40.9847 21.9518C40.9719 21.9477 40.9604 21.9409 40.9509 21.9319C40.9414 21.9229 40.9342 21.9119 40.93 21.8998C40.9257 21.8877 40.9245 21.8748 40.9264 21.8622V18.3783C40.9264 18.3211 40.9603 18.2925 41.0242 18.2925H42.2096C42.3511 18.2917 42.4919 18.311 42.6273 18.3497C42.7651 18.3842 42.8934 18.4464 43.0037 18.5322C43.1126 18.6197 43.1988 18.7298 43.2558 18.8541C43.3195 19.0039 43.3502 19.1646 43.3461 19.3262C43.347 19.4324 43.333 19.5382 43.3047 19.641C43.2784 19.7439 43.2366 19.8427 43.1805 19.9343C43.1197 20.0286 43.042 20.1121 42.951 20.1811C42.8473 20.2546 42.7316 20.3114 42.6085 20.3492L43.3762 21.855ZM42.8456 19.3155C42.851 19.2061 42.8291 19.097 42.7816 18.9971C42.7443 18.9196 42.6858 18.8529 42.6123 18.804C42.5383 18.7567 42.4551 18.7239 42.3677 18.7074C42.2749 18.6887 42.1803 18.6791 42.0854 18.6788H41.3629V20.0308H42.0742C42.1626 20.0312 42.2509 20.0228 42.3376 20.0058C42.4286 19.9912 42.5149 19.957 42.5897 19.9057C42.67 19.8508 42.7336 19.7768 42.7741 19.691C42.8281 19.5728 42.8525 19.4442 42.8456 19.3155Z" fill="white"/>
<path d="M47.1209 21.9301C47.0964 21.9373 47.0702 21.9373 47.0457 21.9301H45.0136C44.9458 21.9301 44.9082 21.9015 44.9082 21.8407V18.3855C44.9082 18.3211 44.9458 18.2925 45.0136 18.2925H47.0118C47.0758 18.2925 47.1097 18.3211 47.1097 18.3783V18.6001C47.1097 18.6609 47.072 18.6931 47.0043 18.6931H45.356V19.852H46.8349C46.9027 19.852 46.9328 19.8806 46.9328 19.9414V20.156C46.9328 20.2132 46.9027 20.2419 46.8349 20.2419H45.356V21.5546H47.0457C47.1097 21.5546 47.1398 21.5867 47.1398 21.6476V21.8586C47.1422 21.8711 47.1417 21.8839 47.1385 21.8963C47.1352 21.9086 47.1293 21.9202 47.1209 21.9301Z" fill="white"/>
<path d="M51.1248 20.9321C51.1294 21.1044 51.0934 21.2755 51.0194 21.4329C50.954 21.5632 50.8557 21.6762 50.7334 21.7619C50.6052 21.8471 50.4608 21.9078 50.3082 21.9408C50.1418 21.9785 49.9713 21.9977 49.8002 21.998H49.5292C49.4276 21.998 49.326 21.998 49.2282 21.9658L48.9346 21.9193C48.8531 21.9057 48.7735 21.8828 48.6976 21.8513C48.6562 21.8335 48.6298 21.8156 48.6223 21.7977C48.6148 21.7768 48.6148 21.7542 48.6223 21.7333L48.6637 21.5759C48.6637 21.5366 48.7088 21.5187 48.7615 21.5223L49.0287 21.5509L49.3147 21.5759L49.5819 21.5938H49.7964C50.0277 21.6068 50.2576 21.5519 50.455 21.4364C50.527 21.3876 50.585 21.3224 50.6238 21.2468C50.6626 21.1713 50.6809 21.0877 50.677 21.0036C50.6799 20.8976 50.6673 20.7916 50.6394 20.6889C50.6167 20.6104 50.571 20.5397 50.5076 20.485C50.4346 20.4277 50.3501 20.3851 50.2593 20.3598C50.136 20.3231 50.0103 20.2944 49.8829 20.274C49.718 20.2512 49.5546 20.2189 49.3937 20.1774C49.2544 20.1426 49.1212 20.0884 48.9986 20.0164C48.8878 19.9487 48.7971 19.8551 48.7352 19.7446C48.666 19.6051 48.6337 19.4516 48.6411 19.2975C48.6312 19.1543 48.6547 19.0107 48.71 18.8771C48.7653 18.7436 48.851 18.6233 48.961 18.5249C49.2215 18.3334 49.5468 18.2392 49.8754 18.2602H50.0899L50.3646 18.2817L50.6544 18.3246C50.7426 18.3427 50.8294 18.3666 50.9141 18.3961C50.9555 18.414 50.9818 18.4283 50.9893 18.4498C50.9968 18.4719 50.9968 18.4956 50.9893 18.5177L50.9555 18.668C50.9478 18.6866 50.9363 18.7037 50.9216 18.718C50.9216 18.718 50.884 18.718 50.8463 18.718C50.7184 18.7002 50.5679 18.6823 50.391 18.668C50.2197 18.6508 50.0476 18.6424 49.8754 18.6429C49.7485 18.6405 49.6218 18.655 49.4991 18.6858C49.4085 18.709 49.3247 18.7519 49.2545 18.811C49.1955 18.865 49.1527 18.9329 49.1303 19.0078C49.1036 19.09 49.0909 19.1757 49.0927 19.2617C49.0881 19.3505 49.1022 19.4393 49.1341 19.5228C49.1643 19.5876 49.2141 19.6424 49.2771 19.6802C49.3567 19.7246 49.443 19.7572 49.533 19.7768L49.9093 19.8519C50.0749 19.8805 50.2329 19.9127 50.3835 19.9485C50.5179 19.984 50.6452 20.0408 50.7598 20.1166C50.8715 20.196 50.9607 20.3004 51.0194 20.4206C51.0951 20.5813 51.1311 20.7562 51.1248 20.9321Z" fill="white"/>
<path d="M57.5187 19.3548C57.5182 19.4842 57.4992 19.613 57.4622 19.7376C57.4239 19.8677 57.3587 19.9893 57.2703 20.0952C57.1678 20.2088 57.039 20.2982 56.894 20.3563C56.7115 20.4321 56.5134 20.4676 56.3145 20.4601H55.5618V21.855C55.5637 21.8677 55.5625 21.8805 55.5582 21.8926C55.554 21.9047 55.5468 21.9157 55.5373 21.9248C55.5278 21.9338 55.5163 21.9406 55.5036 21.9446C55.4908 21.9487 55.4773 21.9498 55.464 21.948H55.2194C55.1516 21.948 55.114 21.9158 55.114 21.855V18.3784C55.114 18.3211 55.1516 18.2925 55.2194 18.2925H56.322C56.4838 18.2916 56.6448 18.3133 56.7999 18.3569C56.9392 18.3968 57.0677 18.4651 57.1762 18.5572C57.2876 18.6468 57.3742 18.761 57.4284 18.8898C57.4914 19.0374 57.5221 19.1956 57.5187 19.3548ZM57.0709 19.3548C57.0791 19.2591 57.064 19.1628 57.0268 19.0735C56.9896 18.9842 56.9313 18.9042 56.8564 18.8398C56.6917 18.7232 56.4894 18.665 56.2844 18.6752H55.5618V20.0774H56.3145C56.443 20.0817 56.571 20.061 56.6908 20.0165C56.7801 19.98 56.8588 19.9236 56.9203 19.852C56.9766 19.7831 57.0176 19.704 57.0408 19.6195C57.0615 19.5351 57.0716 19.4487 57.0709 19.362V19.3548Z" fill="white"/>
<path d="M58.9381 21.8586C58.9353 21.873 58.9295 21.8867 58.9211 21.899C58.9128 21.9113 58.9019 21.9219 58.8892 21.9301C58.8645 21.9367 58.8385 21.9367 58.8139 21.9301H58.5128C58.4602 21.9301 58.4451 21.9015 58.4677 21.8407L59.6794 18.3605C59.684 18.3365 59.6976 18.3149 59.7176 18.2997C59.7377 18.2846 59.7629 18.2769 59.7886 18.2782H60.1159C60.1442 18.2753 60.1726 18.283 60.195 18.2997C60.2087 18.3181 60.2189 18.3387 60.2251 18.3605L61.4368 21.8514C61.4368 21.9051 61.4368 21.9301 61.3917 21.9301H61.0379C61.0159 21.9367 60.9922 21.9367 60.9702 21.9301C60.9557 21.9149 60.9453 21.8964 60.9401 21.8765L60.6541 20.9715H59.2391L58.9381 21.8586ZM60.2364 19.6732L59.9579 18.7789L59.6832 19.6553L59.3859 20.5924H60.5412L60.2364 19.6732Z" fill="white"/>
<path d="M65.3502 21.855C65.3565 21.8647 65.3599 21.8758 65.3599 21.8872C65.3599 21.8986 65.3565 21.9098 65.3502 21.9194C65.3456 21.9288 65.338 21.9365 65.3286 21.9417C65.3192 21.9468 65.3083 21.949 65.2975 21.948H64.9663C64.9415 21.9528 64.9159 21.9528 64.891 21.948C64.8671 21.9352 64.8485 21.915 64.8384 21.8908L64.0857 20.4243H63.3331V21.855C63.3331 21.9194 63.303 21.9552 63.2353 21.9552H62.9869C62.9736 21.957 62.96 21.9558 62.9473 21.9518C62.9346 21.9477 62.923 21.9409 62.9135 21.9319C62.904 21.9229 62.8969 21.9119 62.8926 21.8998C62.8884 21.8877 62.8872 21.8748 62.889 21.8622V18.3783C62.889 18.3211 62.9191 18.2925 62.9869 18.2925H64.1685C64.31 18.2917 64.4508 18.311 64.5862 18.3497C64.7235 18.3855 64.8515 18.4476 64.9625 18.5322C65.0714 18.6188 65.1567 18.7293 65.2109 18.8541C65.2777 19.0032 65.3098 19.1642 65.305 19.3262C65.304 19.4323 65.2901 19.5379 65.2636 19.641C65.2377 19.7446 65.1945 19.8436 65.1357 19.9343C65.0771 20.0302 64.9991 20.1141 64.9061 20.1811C64.8041 20.255 64.6895 20.3118 64.5674 20.3492L65.3502 21.855ZM64.8233 19.3155C64.8269 19.2062 64.805 19.0975 64.7593 18.9971C64.722 18.9196 64.6635 18.8529 64.59 18.804C64.516 18.7567 64.4328 18.7239 64.3454 18.7074C64.2526 18.6887 64.158 18.6791 64.0631 18.6788H63.3369V20.0308H64.0519C64.1404 20.0312 64.2286 20.0228 64.3153 20.0058C64.4059 19.99 64.4919 19.9558 64.5674 19.9057C64.6477 19.8508 64.7113 19.7768 64.7518 19.691C64.8058 19.5728 64.8302 19.4442 64.8233 19.3155Z" fill="white"/>
<path d="M68.07 21.3899L69.0786 18.3746C69.0848 18.3503 69.1 18.329 69.1214 18.3145C69.1429 18.3001 69.1691 18.2935 69.1952 18.2959H69.485C69.5377 18.2959 69.5527 18.3245 69.5339 18.3853L68.3184 21.8692C68.313 21.8931 68.2985 21.9144 68.2777 21.9289C68.2569 21.9434 68.2312 21.9501 68.2055 21.9478H67.9007C67.8761 21.9544 67.8501 21.9544 67.8254 21.9478C67.8082 21.934 67.7963 21.9152 67.7916 21.8942L66.5723 18.3961C66.5535 18.3424 66.5723 18.3138 66.625 18.3138H66.9223C66.9487 18.3122 66.975 18.3184 66.9975 18.3317C67.0155 18.3479 67.0275 18.3692 67.0314 18.3925L67.6109 20.0915L68.07 21.3899Z" fill="white"/>
<path d="M70.8596 21.8586C70.8539 21.8868 70.8379 21.9121 70.8145 21.9301C70.7898 21.9364 70.7638 21.9364 70.7392 21.9301H70.4381C70.3817 21.9301 70.3666 21.9015 70.3892 21.8407L71.601 18.3605C71.6063 18.3362 71.6206 18.3145 71.6414 18.2994C71.6621 18.2843 71.6878 18.2768 71.7139 18.2782H72.0375C72.0658 18.2753 72.0941 18.283 72.1165 18.2997C72.1302 18.3181 72.1404 18.3387 72.1466 18.3605L73.3621 21.8514C73.3621 21.9051 73.3621 21.9301 73.3132 21.9301H72.9595C72.9374 21.9367 72.9138 21.9367 72.8917 21.9301C72.8772 21.9149 72.8669 21.8964 72.8616 21.8765L72.5756 20.9715H71.1607L70.8596 21.8586ZM72.1579 19.6732L71.8794 18.7789L71.3112 20.5924H72.4665L72.1579 19.6732Z" fill="white"/>
<path d="M77.0462 21.9301C77.0217 21.9373 76.9955 21.9373 76.971 21.9301H74.9389C74.8674 21.9301 74.8335 21.9015 74.8335 21.8407V18.3855C74.8335 18.3211 74.8674 18.2925 74.9389 18.2925H76.9333C77.0011 18.2925 77.035 18.3211 77.035 18.3783V18.6001C77.035 18.6609 76.9973 18.6931 76.9296 18.6931H75.27V19.852H76.7753C76.843 19.852 76.8731 19.8806 76.8731 19.9414V20.156C76.8731 20.2132 76.843 20.2419 76.7753 20.2419H75.27V21.5546H76.9635C77.0274 21.5546 77.0575 21.5867 77.0575 21.6476V21.8586C77.061 21.8706 77.0618 21.8832 77.0598 21.8955C77.0579 21.9078 77.0533 21.9196 77.0462 21.9301Z" fill="white"/>
<path d="M82.4986 18.2424H82.7131C82.8038 18.2458 82.8943 18.2542 82.984 18.2675C83.0818 18.2675 83.1797 18.2925 83.2738 18.3104C83.3636 18.3269 83.4518 18.3508 83.5372 18.3819C83.5786 18.3819 83.6049 18.4177 83.6124 18.4356C83.6199 18.4577 83.6199 18.4815 83.6124 18.5035L83.5786 18.6574C83.5709 18.676 83.5594 18.693 83.5447 18.7074C83.5447 18.7074 83.5071 18.7074 83.4657 18.7074L83.0179 18.6538C82.8448 18.6538 82.6717 18.6287 82.4986 18.6287C82.3119 18.6207 82.1267 18.6629 81.9642 18.7503C81.8328 18.8304 81.7283 18.9446 81.6631 19.0794C81.5898 19.2308 81.544 19.3928 81.5276 19.5587C81.5276 19.7411 81.5013 19.9164 81.5013 20.1346C81.501 20.3139 81.5123 20.4931 81.5352 20.6711C81.5543 20.8305 81.6027 20.9855 81.6782 21.1289C81.7476 21.2584 81.853 21.3673 81.983 21.4437C82.1385 21.5316 82.3178 21.5739 82.4986 21.5653C82.6754 21.5653 82.8448 21.5653 83.0103 21.5403L83.4619 21.4866C83.5033 21.4866 83.5334 21.4866 83.5447 21.4866C83.5594 21.501 83.5709 21.518 83.5786 21.5367L83.6049 21.6834C83.6122 21.7067 83.6122 21.7316 83.6049 21.7549C83.6049 21.7549 83.5786 21.7871 83.5372 21.8014C83.4581 21.8357 83.3746 21.8598 83.2888 21.8729C83.192 21.8937 83.094 21.9092 82.9953 21.9194L82.7131 21.9445H82.4948C82.2346 21.9556 81.9757 21.9039 81.7421 21.7942C81.5567 21.6982 81.401 21.5576 81.2906 21.3865C81.1754 21.2083 81.0986 21.0101 81.0648 20.8035C81.0266 20.5751 81.0077 20.3443 81.0083 20.1131C81.0074 19.8736 81.0263 19.6344 81.0648 19.3978C81.0932 19.1836 81.1661 18.9769 81.2793 18.7897C81.3852 18.611 81.5399 18.4627 81.7271 18.3605C81.9688 18.2573 82.235 18.2166 82.4986 18.2424Z" fill="white"/>
<path d="M87.5446 21.855C87.5502 21.8649 87.5531 21.876 87.5531 21.8872C87.5531 21.8985 87.5502 21.9095 87.5446 21.9194C87.54 21.9288 87.5324 21.9365 87.523 21.9417C87.5136 21.9468 87.5027 21.949 87.4919 21.948H87.1608C87.1359 21.9525 87.1104 21.9525 87.0855 21.948C87.0625 21.9341 87.0443 21.9143 87.0328 21.8908L86.2802 20.4243H85.5275V21.855C85.5293 21.8683 85.5279 21.8817 85.5234 21.8944C85.519 21.907 85.5116 21.9186 85.5019 21.9282C85.4922 21.9378 85.4803 21.9452 85.4671 21.9499C85.454 21.9545 85.4399 21.9564 85.4259 21.9552H85.1776C85.1643 21.957 85.1507 21.9558 85.138 21.9518C85.1253 21.9477 85.1137 21.9409 85.1042 21.9319C85.0947 21.9229 85.0876 21.9119 85.0833 21.8998C85.0791 21.8877 85.0778 21.8748 85.0797 21.8622V18.3783C85.0797 18.3211 85.1136 18.2925 85.1776 18.2925H86.363C86.5044 18.2917 86.6452 18.311 86.7807 18.3497C86.9181 18.3851 87.0462 18.4472 87.157 18.5322C87.2659 18.6188 87.3511 18.7293 87.4054 18.8541C87.4722 19.0032 87.5043 19.1642 87.4994 19.3262C87.4984 19.4323 87.4846 19.5379 87.458 19.641C87.4321 19.7446 87.3889 19.8436 87.3301 19.9343C87.2718 20.0293 87.1952 20.113 87.1043 20.1811C87.0006 20.2546 86.8849 20.3114 86.7618 20.3492L87.5446 21.855ZM87.014 19.3155C87.0194 19.2061 86.9975 19.097 86.95 18.9971C86.9127 18.9196 86.8542 18.8529 86.7807 18.804C86.7067 18.7567 86.6235 18.7239 86.5361 18.7074C86.4433 18.6887 86.3487 18.6791 86.2538 18.6788H85.5313V20.0308H86.2425C86.331 20.0312 86.4193 20.0228 86.506 20.0058C86.5968 19.9906 86.6829 19.9564 86.7581 19.9057C86.8383 19.845 86.8995 19.7646 86.935 19.6732C86.9887 19.5609 87.0157 19.4388 87.014 19.3155Z" fill="white"/>
<path d="M91.2898 21.9301C91.2653 21.9373 91.2391 21.9373 91.2146 21.9301H89.1937C89.1222 21.9301 89.0884 21.9015 89.0884 21.8407V18.3855C89.0884 18.3211 89.1222 18.2925 89.1937 18.2925H91.1882C91.256 18.2925 91.2898 18.3211 91.2898 18.3783V18.6001C91.2898 18.6609 91.2522 18.6931 91.1845 18.6931H89.5362V19.852H91.0151C91.0829 19.852 91.113 19.8806 91.113 19.9414V20.156C91.113 20.2132 91.0829 20.2419 91.0151 20.2419H89.5362V21.5546H91.2296C91.2936 21.5546 91.3237 21.5867 91.3237 21.6476V21.8586C91.3242 21.8722 91.3213 21.8857 91.3155 21.8981C91.3096 21.9105 91.3008 21.9214 91.2898 21.9301Z" fill="white"/>
<path d="M95.2933 20.9322C95.2979 21.1045 95.2619 21.2756 95.1879 21.4329C95.1224 21.5632 95.0242 21.6763 94.9019 21.762C94.7736 21.8471 94.6292 21.9079 94.4766 21.9408C94.3102 21.9783 94.1397 21.9975 93.9686 21.9981H93.6977L93.3929 21.9659L93.1031 21.9194C93.0214 21.9062 92.9417 21.8834 92.866 21.8514C92.8246 21.8335 92.7983 21.8156 92.7907 21.7977C92.7833 21.7769 92.7833 21.7542 92.7907 21.7334L92.8321 21.576C92.8321 21.5366 92.8773 21.5188 92.93 21.5223L93.1972 21.5509L93.4832 21.576L93.7504 21.5939H93.9649C94.1962 21.6069 94.4261 21.5519 94.6234 21.4365C94.6954 21.3877 94.7535 21.3225 94.7923 21.2469C94.8311 21.1713 94.8493 21.0877 94.8454 21.0037C94.8484 20.8976 94.8357 20.7917 94.8078 20.6889C94.7851 20.6105 94.7394 20.5398 94.6761 20.4851C94.6031 20.4278 94.5186 20.3852 94.4277 20.3599C94.3045 20.3232 94.1788 20.2945 94.0514 20.274C93.8864 20.2512 93.7231 20.219 93.5622 20.1774C93.4228 20.1427 93.2897 20.0884 93.1671 20.0165C93.0557 19.9494 92.9649 19.8556 92.9036 19.7446C92.8345 19.6051 92.8022 19.4516 92.8096 19.2975C92.7997 19.1546 92.8228 19.0114 92.8774 18.8779C92.9321 18.7444 93.0168 18.6239 93.1257 18.5249C93.388 18.3341 93.7142 18.2401 94.0439 18.2603H94.2584L94.5331 18.2817L94.8229 18.3246C94.9109 18.3432 94.9976 18.3671 95.0825 18.3962C95.1239 18.4141 95.1503 18.4284 95.1578 18.4498C95.1653 18.4719 95.1653 18.4957 95.1578 18.5178L95.1239 18.668C95.1163 18.6867 95.1047 18.7037 95.09 18.7181C95.09 18.7181 95.0524 18.7181 95.0148 18.7181C94.8868 18.7002 94.7363 18.6823 94.5594 18.668C94.3882 18.6509 94.2161 18.6425 94.0439 18.643C93.917 18.6406 93.7903 18.655 93.6676 18.6859C93.5769 18.7091 93.4932 18.7519 93.423 18.8111C93.3629 18.8649 93.3188 18.9327 93.295 19.0078C93.2701 19.0904 93.2575 19.1759 93.2574 19.2618C93.2538 19.3508 93.2691 19.4396 93.3025 19.5229C93.3328 19.5876 93.3825 19.6424 93.4455 19.6803C93.5248 19.7253 93.6112 19.7579 93.7014 19.7768L94.0778 19.852C94.2433 19.8806 94.4014 19.9128 94.5519 19.9485C94.6864 19.9841 94.8136 20.0409 94.9282 20.1166C95.0399 20.196 95.1291 20.3005 95.1879 20.4207C95.2635 20.5813 95.2996 20.7563 95.2933 20.9322Z" fill="white"/>
<path d="M98.2742 18.2424H98.4887C98.5794 18.246 98.6699 18.2543 98.7596 18.2675C98.8575 18.2675 98.9553 18.2925 99.0494 18.3104C99.1392 18.3269 99.2274 18.3508 99.3128 18.3819C99.3542 18.3819 99.3805 18.4177 99.3881 18.4356C99.3956 18.4577 99.3956 18.4815 99.3881 18.5035L99.3504 18.6574C99.3442 18.6759 99.3339 18.6929 99.3203 18.7074C99.3081 18.7134 99.2946 18.7165 99.2808 18.7165C99.2671 18.7165 99.2535 18.7134 99.2413 18.7074L98.7935 18.6538C98.6204 18.6538 98.4473 18.6287 98.2742 18.6287C98.0876 18.6207 97.9023 18.6629 97.7398 18.7503C97.6084 18.8304 97.5039 18.9446 97.4387 19.0794C97.3637 19.2301 97.3178 19.3925 97.3033 19.5587C97.2845 19.7411 97.2769 19.9164 97.2769 20.1346C97.2766 20.3139 97.2879 20.4931 97.3108 20.6711C97.3299 20.8305 97.3783 20.9855 97.4538 21.1289C97.5232 21.2584 97.6286 21.3673 97.7586 21.4437C97.9139 21.532 98.0934 21.5744 98.2742 21.5653C98.451 21.5653 98.6204 21.5653 98.7822 21.5403L99.2375 21.4866C99.2789 21.4866 99.3053 21.4866 99.3203 21.4866C99.3339 21.5011 99.3442 21.5182 99.3504 21.5367L99.3805 21.6834C99.3879 21.7067 99.3879 21.7316 99.3805 21.7549C99.3805 21.7549 99.3504 21.7871 99.3128 21.8014C99.2338 21.8357 99.1502 21.8598 99.0644 21.8729C98.9676 21.8937 98.8696 21.9092 98.7709 21.9194L98.4887 21.9445H98.2704C98.0101 21.9572 97.7507 21.9054 97.5178 21.7942C97.3321 21.6972 97.1754 21.5569 97.0624 21.3865C96.9501 21.2073 96.8747 21.0095 96.8404 20.8035C96.8022 20.5751 96.7833 20.3443 96.784 20.1131C96.7838 19.8738 96.8014 19.6347 96.8366 19.3978C96.8685 19.1843 96.9412 18.9782 97.0511 18.7897C97.1584 18.6107 97.3144 18.4625 97.5027 18.3605C97.7445 18.2573 98.0106 18.2166 98.2742 18.2424Z" fill="white"/>
<path d="M102.225 21.5938C102.35 21.6014 102.475 21.5847 102.593 21.5447C102.711 21.5048 102.819 21.4423 102.91 21.3613C103.087 21.1625 103.174 20.9053 103.151 20.6459V18.3889C103.149 18.3748 103.15 18.3603 103.155 18.3467C103.159 18.333 103.167 18.3206 103.177 18.3103C103.203 18.3012 103.231 18.3012 103.256 18.3103H103.494C103.517 18.302 103.542 18.302 103.565 18.3103C103.583 18.3326 103.591 18.3609 103.588 18.3889V20.6245C103.594 20.7353 103.594 20.8463 103.588 20.9571C103.574 21.0638 103.547 21.1684 103.505 21.2683C103.411 21.5053 103.229 21.7013 102.993 21.8191C102.76 21.9324 102.502 21.9901 102.24 21.9872C101.586 21.9872 101.168 21.7488 100.987 21.2719C100.942 21.1725 100.912 21.0678 100.897 20.9607C100.881 20.8421 100.873 20.7226 100.874 20.603V18.3889C100.871 18.3609 100.879 18.3326 100.897 18.3103C100.921 18.3014 100.948 18.3014 100.972 18.3103H101.224C101.247 18.302 101.273 18.302 101.296 18.3103C101.306 18.3206 101.314 18.333 101.319 18.3467C101.323 18.3603 101.325 18.3748 101.322 18.3889V20.6388C101.301 20.8956 101.382 21.1508 101.548 21.3541C101.636 21.4381 101.742 21.503 101.859 21.5444C101.976 21.5857 102.101 21.6026 102.225 21.5938Z" fill="white"/>
<path d="M105.785 19.0614V21.8549C105.787 21.8675 105.785 21.8804 105.781 21.8925C105.777 21.9046 105.77 21.9156 105.76 21.9246C105.751 21.9337 105.739 21.9405 105.726 21.9445C105.714 21.9485 105.7 21.9497 105.687 21.9479H105.446C105.374 21.9479 105.341 21.9157 105.341 21.8549V18.3747C105.341 18.3174 105.371 18.2924 105.435 18.2924H105.675C105.708 18.2892 105.74 18.2982 105.766 18.3174C105.786 18.3362 105.805 18.3565 105.822 18.3782L107.388 20.6853L107.696 21.1467V18.389C107.693 18.3609 107.701 18.3327 107.719 18.3103C107.743 18.3021 107.77 18.3021 107.794 18.3103H108.039C108.062 18.302 108.087 18.302 108.11 18.3103C108.128 18.3327 108.137 18.3609 108.133 18.389V21.8585C108.135 21.8707 108.134 21.8831 108.13 21.8947C108.126 21.9064 108.119 21.917 108.11 21.9257C108.1 21.9344 108.089 21.941 108.077 21.9448C108.065 21.9487 108.052 21.9497 108.039 21.9479H107.821C107.788 21.9508 107.754 21.9433 107.726 21.9265C107.705 21.9061 107.686 21.8832 107.67 21.8585L106.127 19.5872L105.785 19.0614Z" fill="white"/>
<path d="M112.088 18.6824H111.114V21.8514C111.114 21.9158 111.08 21.948 111.02 21.948H110.771C110.7 21.948 110.666 21.9158 110.666 21.8514V18.6824H109.695C109.682 18.684 109.668 18.6828 109.655 18.6788C109.642 18.6747 109.63 18.668 109.621 18.6591C109.611 18.6501 109.603 18.6392 109.599 18.6272C109.594 18.6151 109.592 18.6022 109.593 18.5894V18.3783C109.593 18.3211 109.624 18.2925 109.691 18.2925H112.092C112.16 18.2925 112.19 18.3211 112.19 18.3783V18.6001C112.19 18.612 112.187 18.6237 112.181 18.6345C112.176 18.6452 112.168 18.6548 112.158 18.6625C112.149 18.6703 112.138 18.676 112.126 18.6795C112.113 18.6829 112.101 18.6839 112.088 18.6824Z" fill="white"/>
</svg>
