<svg width="20" height="16" viewBox="0 0 20 16" fill="none" xmlns="http://www.w3.org/2000/svg">
<path d="M16.8961 7.27125L6.36356 7.27125C5.8615 7.27125 5.45446 7.69697 5.45446 8.22208C5.45446 8.7472 5.8615 9.17292 6.36356 9.17292L16.8961 9.17292L15.7207 10.4022C15.3657 10.7735 15.3657 11.3756 15.7207 11.7469C16.0756 12.1182 16.6513 12.1182 17.0064 11.7469L19.7335 8.89457C19.7546 8.87258 19.7745 8.84957 19.7934 8.82548C19.798 8.81959 19.8019 8.81325 19.8064 8.80723C19.8203 8.78878 19.8339 8.77027 19.8464 8.75075C19.8501 8.74504 19.853 8.73902 19.8566 8.73325C19.8691 8.71284 19.8813 8.69224 19.8924 8.67075C19.8945 8.6665 19.8962 8.662 19.8984 8.65775C19.9098 8.63449 19.9208 8.61091 19.9305 8.58657C19.9317 8.58359 19.9325 8.58042 19.9337 8.57738C19.9436 8.55177 19.9527 8.52584 19.9605 8.49915C19.9615 8.49579 19.9621 8.49231 19.963 8.48889C19.9703 8.46271 19.977 8.43627 19.9822 8.4092C19.9837 8.40115 19.9844 8.39285 19.9858 8.38474C19.9895 8.3623 19.9933 8.33986 19.9954 8.31697C19.9985 8.2856 20 8.2539 20 8.22208C20 8.19026 19.9985 8.15857 19.9954 8.12712C19.9933 8.10392 19.9894 8.08129 19.9857 8.05866C19.9844 8.0508 19.9837 8.04275 19.9822 8.03496C19.977 8.00764 19.9703 7.98095 19.9629 7.95452C19.962 7.95141 19.9615 7.94811 19.9605 7.94501C19.9527 7.91819 19.9436 7.89201 19.9336 7.86615C19.9325 7.86336 19.9317 7.86038 19.9305 7.85759C19.9208 7.83306 19.9098 7.80935 19.8982 7.78596C19.8962 7.78184 19.8945 7.77753 19.8924 7.77341C19.8813 7.7518 19.869 7.73101 19.8563 7.7104C19.8529 7.70483 19.85 7.69893 19.8465 7.69348C19.8339 7.67389 19.8202 7.65526 19.8064 7.63675C19.8019 7.63079 19.798 7.62451 19.7935 7.61868C19.7745 7.59466 19.7546 7.57158 19.7336 7.54959L17.0064 4.69727C16.8289 4.51154 16.5963 4.41874 16.3636 4.41874C16.1309 4.41874 15.8982 4.51154 15.7208 4.69727C15.3658 5.0686 15.3658 5.67061 15.7208 6.04194L16.8961 7.27125Z" fill="#99CEFF"/>
<path d="M7.43644 16C9.91793 16 12.2267 14.7124 13.6125 12.5559C13.8925 12.1201 13.7817 11.5293 13.365 11.2364C12.9483 10.9435 12.3835 11.0593 12.1034 11.4952C11.056 13.1252 9.31138 14.0984 7.43644 14.0984C4.33852 14.0983 1.81812 11.4623 1.81812 8.2221C1.81812 4.98191 4.33852 2.34588 7.43644 2.34588C9.30586 2.34588 11.0476 3.31465 12.0958 4.93728C12.3769 5.37245 12.9419 5.4868 13.358 5.19287C13.774 4.89887 13.8835 4.30783 13.6024 3.87273C12.2157 1.72587 9.91066 0.444207 7.43644 0.444207C3.33596 0.444207 -8.67844e-05 3.93333 -8.67844e-05 8.2221C-8.67844e-05 12.5109 3.33596 16 7.43644 16Z" fill="#99CEFF"/>
</svg>
