<svg width="22" height="22" viewBox="0 0 22 22" fill="none" xmlns="http://www.w3.org/2000/svg">
<circle cx="11" cy="11" r="11" fill="#F86185"/>
<path fill-rule="evenodd" clip-rule="evenodd" d="M14.2302 6.26621L9.71944 10.777L11.223 12.2806L15.3777 8.1259L15.4569 8.20507L15.8129 7.84894L14.2302 6.26621ZM16.723 6.74101L15.2194 5.23745L14.7051 5.75181L16.2086 7.25542L16.723 6.74101ZM9.20503 11.2518L8.69063 13.2302L10.7087 12.7158L9.20503 11.2518ZM15.6151 11.1727V13.9425C15.6151 14.3382 15.2986 14.6151 14.9425 14.6151H8.05754C7.66186 14.6151 7.3849 14.2986 7.3849 13.9425V7.05758C7.3849 6.6619 7.70142 6.38489 8.05754 6.38489H12.2122V5H8.05754C6.91006 5 6 5.9101 6 7.05758V13.9425C6 15.0899 6.91006 16 8.05754 16H14.9425C16.0899 16 17 15.0899 17 13.9425V11.1727H15.6151Z" fill="white"/>
</svg>
