<svg width="22" height="22" viewBox="0 0 22 22" fill="none" xmlns="http://www.w3.org/2000/svg">
<path d="M22 11C22 17.0751 17.0751 22 11 22C4.92487 22 0 17.0751 0 11C0 4.92487 4.92487 0 11 0C17.0751 0 22 4.92487 22 11Z" fill="#04D67E"/>
<mask id="mask0" mask-type="alpha" maskUnits="userSpaceOnUse" x="1" y="1" width="20" height="20">
<path d="M1 11C1 5.47715 5.47715 1 11 1C16.5228 1 21 5.47715 21 11C21 16.5228 16.5228 21 11 21C5.47715 21 1 16.5228 1 11Z" fill="#C4C4C4"/>
</mask>
<g mask="url(#mask0)">
<path fill-rule="evenodd" clip-rule="evenodd" d="M1.91992 4.45459V6.61157C1.91992 6.86548 1.71484 7.07153 1.45898 7.07153C1.20508 7.07153 1 6.86548 1 6.61157V4.45459C1 2.54663 2.54688 1 4.45312 1L6.61133 1C6.86523 1 7.07227 1.20581 7.07227 1.45996C7.07227 1.71387 6.86523 1.91992 6.61133 1.91992L4.45312 1.91992C3.05469 1.91992 1.91992 3.05469 1.91992 4.45459ZM17.5449 1.91992L15.3887 1.91992C15.1348 1.91992 14.9277 1.71387 14.9277 1.45996C14.9277 1.20581 15.1348 1 15.3887 1L17.5449 1C19.4531 1 21 2.54614 21 4.45337V6.61157C21 6.86548 20.7949 7.07153 20.541 7.07153C20.2852 7.07153 20.0801 6.86548 20.0801 6.61157V4.45337C20.0801 3.0542 18.9453 1.91992 17.5449 1.91992ZM6.61133 20.0801H4.45508C3.05469 20.0801 1.91992 18.9458 1.91992 17.5466V15.3884C1.91992 15.1345 1.71484 14.9285 1.45898 14.9285C1.20508 14.9285 1 15.1345 1 15.3884V17.5466C1 19.4539 2.54687 21 4.45508 21H6.61133C6.86523 21 7.07227 20.7942 7.07227 20.54C7.07227 20.2861 6.86523 20.0801 6.61133 20.0801ZM20.0801 17.5454V15.3884C20.0801 15.1345 20.2852 14.9285 20.541 14.9285C20.7949 14.9285 21 15.1345 21 15.3884V17.5454C21 19.4534 19.4531 21 17.5469 21H15.3887C15.1348 21 14.9277 20.7942 14.9277 20.54C14.9277 20.2861 15.1348 20.0801 15.3887 20.0801H17.5469C18.9453 20.0801 20.0801 18.9453 20.0801 17.5454ZM15.8203 10.1963C15.8203 10.6399 15.4609 10.9995 15.0176 10.9995C14.5742 10.9995 14.2148 10.6399 14.2148 10.1963V8.58838C14.2148 8.14478 14.5742 7.78516 15.0176 7.78516C15.4609 7.78516 15.8203 8.14478 15.8203 8.58838V10.1963ZM6.80469 11C7.24805 11 7.60742 10.6401 7.60742 10.1965V8.58936C7.60742 8.14551 7.24805 7.78564 6.80469 7.78564C6.35937 7.78564 6 8.14551 6 8.58936V10.1965C6 10.6401 6.35937 11 6.80469 11ZM10.8535 8.24438V11.5632C10.8535 12.0369 10.6191 12.4771 10.2324 12.7288L9.80078 13.0098C9.59375 13.1443 9.53125 13.4275 9.66211 13.6421C9.79102 13.8567 10.0645 13.9214 10.2695 13.7869L10.7012 13.5061C11.3457 13.0864 11.7363 12.3525 11.7363 11.5632V8.24438C11.7363 7.99097 11.5391 7.78564 11.2949 7.78564C11.0508 7.78564 10.8535 7.99097 10.8535 8.24438ZM8.41602 16.3025L7.81836 15.9333C7.60937 15.8037 7.54492 15.5288 7.67383 15.3188C7.80469 15.1091 8.07812 15.0442 8.28906 15.1738L8.88477 15.543C10.2363 16.3784 11.9434 16.3787 13.2949 15.5435L13.8945 15.1738C14.1035 15.0442 14.3789 15.1094 14.5078 15.3191C14.6387 15.5288 14.5723 15.804 14.3633 15.9336L13.7656 16.3032C12.125 17.3159 10.0547 17.3157 8.41602 16.3025Z" fill="white"/>
</g>
</svg>
