<svg width="22" height="22" viewBox="0 0 22 22" fill="none" xmlns="http://www.w3.org/2000/svg">
<g opacity="0.4">
<path d="M22 11C22 17.0751 17.0751 22 11 22C4.92487 22 0 17.0751 0 11C0 4.92487 4.92487 0 11 0C17.0751 0 22 4.92487 22 11Z" fill="#DADADA"/>
<path d="M10.9829 11.8259L16.3611 7.03423C16.3274 7 16.2938 7 16.2602 7H5.7391C5.7391 7 5.70549 7 5.67188 7L10.9829 11.8259Z" fill="white"/>
<path d="M16.9999 7.75301C16.9999 7.65033 16.9663 7.58188 16.9327 7.51343L13.168 10.9018L16.8991 14.2218C16.9663 14.1191 16.9999 13.9822 16.9999 13.8795V7.75301V7.75301Z" fill="white"/>
<path d="M5.06723 7.47925C5.03361 7.5477 5 7.65038 5 7.75306V13.8454C5 13.948 5.03361 14.0507 5.06723 14.1534L8.83197 10.8677L5.06723 7.47925Z" fill="white"/>
<path d="M12.5963 11.4153L10.9829 12.8528L9.36939 11.4153L5.67188 14.6326H5.70549H16.1594L12.5963 11.4153Z" fill="white"/>
</g>
</svg>
