<svg width="140" height="21" viewBox="0 0 140 21" fill="none" xmlns="http://www.w3.org/2000/svg">
<path d="M22.1984 6.30478L22.7363 3.54644C22.7455 3.50987 22.7462 3.47165 22.7382 3.43478C22.7301 3.39792 22.7137 3.36342 22.6901 3.334C22.6664 3.30459 22.6363 3.28106 22.602 3.26527C22.5678 3.24948 22.5303 3.24187 22.4926 3.24302H18.8562L19.4262 0.314584C19.4356 0.277625 19.4362 0.238976 19.428 0.201746C19.4197 0.164515 19.4028 0.129744 19.3787 0.100228C19.3545 0.0707128 19.3238 0.0472779 19.2889 0.0318092C19.2541 0.0163406 19.2161 0.00927008 19.178 0.0111666H15.6979C15.5543 0.01628 15.4165 0.0692977 15.3066 0.161775C15.1966 0.254252 15.1207 0.38087 15.0911 0.52146L13.8636 6.81508H9.58356L10.8478 0.30539C10.8579 0.266812 10.8584 0.226344 10.8492 0.187537C10.84 0.14873 10.8214 0.11277 10.7951 0.0828143C10.7688 0.0528585 10.7355 0.0298221 10.6982 0.0157269C10.6609 0.00163166 10.6207 -0.00309142 10.5812 0.00197212H7.13324C6.98964 0.00708559 6.85188 0.0601033 6.74191 0.15258C6.63194 0.245058 6.55607 0.371675 6.5264 0.512265L5.98393 3.23383H2.57278C2.42918 3.23894 2.29143 3.29196 2.18145 3.38444C2.07148 3.47691 1.99562 3.60353 1.96594 3.74412L1.42807 6.50247C1.41894 6.53927 1.41836 6.57767 1.42637 6.61473C1.43439 6.65179 1.45079 6.68652 1.47431 6.71626C1.49784 6.746 1.52786 6.76995 1.56208 6.78628C1.5963 6.80262 1.6338 6.81089 1.67172 6.81048H5.29894L4.60476 10.3963H1.16143C1.01749 10.402 0.879474 10.4551 0.768881 10.5474C0.658288 10.6397 0.581329 10.766 0.549994 10.9066L0.00751973 13.6742C-0.00188149 13.7111 -0.00247611 13.7498 0.00578371 13.787C0.0140435 13.8242 0.0309272 13.859 0.0550761 13.8885C0.079225 13.918 0.109965 13.9415 0.144823 13.9569C0.17968 13.9724 0.217682 13.9795 0.25577 13.9776H3.90598L3.34052 16.906C3.33021 16.9427 3.3288 16.9812 3.3364 17.0185C3.34401 17.0558 3.36041 17.0908 3.38424 17.1204C3.40807 17.1501 3.43865 17.1737 3.47342 17.1892C3.5082 17.2046 3.54617 17.2116 3.58417 17.2094H7.05049C7.19402 17.2048 7.33195 17.1526 7.44262 17.0611C7.55328 16.9695 7.63042 16.8438 7.66192 16.7037L8.88478 10.3963H13.1694L11.9052 16.906C11.8949 16.9427 11.8934 16.9812 11.9011 17.0185C11.9087 17.0558 11.9251 17.0908 11.9489 17.1204C11.9727 17.1501 12.0033 17.1737 12.0381 17.1892C12.0728 17.2046 12.1108 17.2116 12.1488 17.2094H15.6381C15.7814 17.204 15.919 17.1515 16.0295 17.0601C16.14 16.9687 16.2173 16.8435 16.2496 16.7037L16.7782 13.9776H20.2216C20.3652 13.9725 20.5029 13.9194 20.6129 13.827C20.7229 13.7345 20.7987 13.6079 20.8284 13.4673L21.3663 10.7089C21.3754 10.6721 21.376 10.6337 21.368 10.5967C21.36 10.5596 21.3436 10.5249 21.32 10.4951C21.2965 10.4654 21.2665 10.4414 21.2323 10.4251C21.198 10.4088 21.1605 10.4005 21.1226 10.4009H17.4494L18.1482 6.81967H21.6145C21.7545 6.80865 21.8871 6.75248 21.9924 6.65963C22.0976 6.56678 22.1699 6.44226 22.1984 6.30478Z" transform="translate(0.879883 3.16211)" fill="white"/>
<path d="M20.7081 13.9116C20.6466 13.9789 20.5698 14.0304 20.4841 14.0616C20.3985 14.0928 20.3066 14.1029 20.2162 14.0909H17.136C16.7085 14.0909 16.5384 13.8978 16.6303 13.5071L18.0601 6.15148C18.2317 5.29333 18.2133 4.72327 18.0049 4.44131C17.8709 4.28585 17.7017 4.16468 17.5114 4.08791C17.3211 4.01114 17.1151 3.98099 16.9108 3.99997C16.4702 4.01969 16.0357 4.1097 15.6236 4.26661C15.1534 4.42145 14.6928 4.60413 14.2444 4.81368L13.9915 6.10091L12.5802 13.5071C12.5447 13.6522 12.4823 13.7894 12.3963 13.9116C12.3311 13.9805 12.2503 14.0327 12.1607 14.0639C12.0711 14.0951 11.9753 14.1044 11.8814 14.0909H8.78746C8.37831 14.0909 8.2174 13.8978 8.32774 13.5071L9.75748 6.05494C9.90459 5.26881 9.8862 4.73093 9.69771 4.44131C9.57691 4.28244 9.41653 4.15806 9.23259 4.08061C9.04865 4.00316 8.8476 3.97536 8.64954 3.99997C8.21452 4.0177 7.7849 4.103 7.37611 4.25282C6.89168 4.40667 6.41855 4.59408 5.96016 4.81368L4.30516 13.5071C4.26477 13.6529 4.19775 13.7901 4.10747 13.9116C4.03758 13.9794 3.95341 14.0306 3.86114 14.0617C3.76887 14.0927 3.67083 14.1027 3.57419 14.0909H0.494047C0.0802953 14.0909 -0.0760107 13.8978 0.0343229 13.5071L2.47086 0.901436C2.49834 0.729135 2.5768 0.569015 2.69612 0.441712C2.76525 0.382009 2.84555 0.336634 2.93236 0.308223C3.01918 0.279812 3.11077 0.268931 3.20182 0.276211H6.28197C6.54401 0.276211 6.69572 0.340573 6.74169 0.469295C6.78337 0.607197 6.78337 0.754339 6.74169 0.892241L6.60377 1.54505L6.63136 1.57263C7.30163 1.09774 8.0331 0.715768 8.80585 0.437115C9.51838 0.17393 10.2713 0.0370262 11.0309 0.0325579C11.7674 0.00850222 12.4985 0.166403 13.1594 0.492282C13.4396 0.637543 13.685 0.841811 13.8786 1.09101C14.0723 1.34022 14.2096 1.62843 14.2812 1.93581C15.0633 1.38567 15.9035 0.923164 16.7867 0.556643C17.6062 0.204495 18.4875 0.018544 19.3795 0.00957163C20.1481 -0.0436006 20.9157 0.125569 21.5908 0.496879C22.0541 0.797976 22.3998 1.2492 22.57 1.77491C22.7441 2.34611 22.7974 2.94733 22.7263 3.54025C22.6573 4.19306 22.5608 4.84586 22.4321 5.49867L20.892 13.5071C20.8526 13.6508 20.7905 13.7874 20.7081 13.9116Z" transform="translate(25.085 6.2793)" fill="white"/>
<path d="M0.00219158 9.56567C0.00439919 8.96015 0.0566777 8.35585 0.158496 7.75895C0.259635 7.15212 0.388358 6.55907 0.535469 5.97982C0.731456 5.24764 0.994618 4.53511 1.3216 3.8513C1.66028 3.12793 2.1276 2.47213 2.70077 1.91586C3.35156 1.31433 4.11367 0.845821 4.94422 0.536694C6.01239 0.153223 7.14272 -0.0276301 8.27722 0.00341511C8.91389 0.000708073 9.54849 0.0763648 10.1667 0.22868C10.7363 0.360483 11.278 0.592414 11.7665 0.913668C12.2228 1.21201 12.6023 1.61362 12.8745 2.08596C13.1552 2.59492 13.2963 3.16906 13.2836 3.75016C13.3302 4.71626 13.0155 5.66512 12.4009 6.41196C11.7976 7.09393 11.0436 7.62595 10.1989 7.96583C9.28845 8.33996 8.33351 8.59492 7.35777 8.72437C6.33718 8.86229 5.11432 8.96802 4.25464 9.0048C4.15972 9.33064 4.1087 9.66767 4.10293 10.007C4.10293 10.8483 5.54186 10.9264 5.82229 10.9678C6.88425 11.1057 9.04036 10.8391 10.6218 10.5587C10.7861 10.5158 10.9586 10.5158 11.1229 10.5587C11.2562 10.6046 11.3206 10.7609 11.3206 11.0184V12.3608C11.3449 12.6401 11.2806 12.92 11.1367 13.1607C10.9159 13.3802 10.6418 13.5387 10.3414 13.6204C9.9843 13.745 9.61862 13.8433 9.24723 13.9147C8.83808 13.9974 8.40594 14.0664 7.96001 14.1123C7.51407 14.1583 7.04056 14.1951 6.61302 14.2227C6.18547 14.2502 5.74874 14.264 5.35337 14.264C4.61888 14.2816 3.88512 14.2059 3.16969 14.0388C2.5552 13.8914 1.98073 13.6104 1.4871 13.2159C1.01204 12.8192 0.638511 12.3148 0.397554 11.7448C0.115517 11.0538 -0.019144 10.3116 0.00219158 9.56567ZM9.27482 4.28804C9.27935 4.122 9.24755 3.95697 9.18164 3.80451C9.11573 3.65204 9.0173 3.51582 8.89324 3.40537C8.59593 3.15601 8.21392 3.03087 7.82669 3.05598C7.33981 3.04771 6.86091 3.18021 6.44752 3.43755C6.11297 3.68836 5.82905 4.00035 5.61082 4.357C5.37104 4.74968 5.18256 5.17146 5.04996 5.61204C4.90744 6.07177 4.91204 6.0166 4.80171 6.45334C7.10033 6.56367 8.56224 5.81892 8.84727 5.49711C9.13592 5.1617 9.28846 4.73034 9.27482 4.28804Z" transform="translate(47.5166 6.35547)" fill="white"/>
<path d="M8.65754 15.9432C8.66757 16.0443 8.65638 16.1465 8.62472 16.243C8.59306 16.3396 8.54161 16.4285 8.47365 16.5041C8.34929 16.6631 8.17924 16.7802 7.98634 16.8397C7.61423 16.9574 7.23495 17.051 6.85082 17.1201C6.44627 17.1937 6.0601 17.258 5.68772 17.304C5.31535 17.35 4.95677 17.3822 4.62117 17.4005C4.28557 17.4189 4.00514 17.4281 3.78447 17.4281C3.07809 17.4626 2.37329 17.3336 1.72491 17.0511C1.27198 16.838 0.895011 16.4916 0.644555 16.0581C0.414392 15.6223 0.298905 15.135 0.308959 14.6422C0.310916 14.0817 0.367886 13.5228 0.479054 12.9734L1.71112 6.73035H0.502042C0.276777 6.73035 0.129667 6.67978 0.0653055 6.57405C-0.00401001 6.43096 -0.0187204 6.26749 0.023932 6.11432L0.442275 4.01339C0.465861 3.84264 0.539443 3.68268 0.653751 3.55366C0.791284 3.44018 0.968091 3.38565 1.14565 3.40195H2.4053L2.92938 0.712572C3.0719 0.160903 3.27877 9.64539e-08 3.76148 9.64539e-08H6.75888C7.21861 9.64539e-08 7.14505 0.289626 7.10827 0.51489L6.55201 3.40195H9.40689C9.66893 3.40195 9.82064 3.44793 9.86661 3.53987C9.91299 3.6896 9.91299 3.84986 9.86661 3.9996L9.44367 6.12812C9.42241 6.29372 9.36084 6.45157 9.26437 6.58784C9.19405 6.64961 9.11127 6.69554 9.02164 6.72251C8.93201 6.74948 8.83762 6.75686 8.74488 6.74415H5.85782L4.87401 11.939C4.82378 12.166 4.7915 12.3966 4.77747 12.6286C4.76334 12.7898 4.80207 12.9511 4.8878 13.0883C5.00549 13.2304 5.1673 13.3292 5.34753 13.3688C5.64825 13.4423 5.95754 13.4748 6.26697 13.4653C6.49377 13.4653 6.788 13.4561 7.14965 13.4377C7.5113 13.4193 7.86988 13.3917 8.2254 13.355C8.38066 13.3473 8.53609 13.366 8.68512 13.4101C8.78626 13.4469 8.82764 13.6262 8.80925 13.9434L8.65754 15.9432Z" transform="translate(61.9082 3.16797)" fill="white"/>
<path d="M12.0883 13.2932C12.068 13.4462 12.0096 13.5916 11.9182 13.7161C11.8511 13.7884 11.7677 13.8436 11.675 13.8771C11.5822 13.9107 11.4828 13.9217 11.385 13.9092H8.22207C7.97842 13.9092 7.83131 13.8586 7.76235 13.7575C7.71879 13.6167 7.71879 13.4661 7.76235 13.3254L7.90486 12.622L7.87728 12.5944C7.17938 13.0634 6.43158 13.4535 5.64762 13.7575C4.99986 14.0036 4.31315 14.1313 3.62023 14.1345C2.238 14.1345 1.28943 13.7759 0.774542 13.0587C0.221317 12.1959 -0.0472107 11.1813 0.00680443 10.1579C0.00856439 9.68429 0.0408148 9.21133 0.103349 8.74191C0.167711 8.25 0.245866 7.73052 0.342408 7.18804C0.521838 6.1853 0.775378 5.19725 1.10095 4.23202C1.37964 3.42075 1.78795 2.66001 2.31002 1.97937C2.79015 1.35913 3.40892 0.860011 4.11673 0.522048C4.94965 0.153689 5.85439 -0.0238021 6.76475 0.00256032C7.33396 0.0162992 7.89922 0.101242 8.44733 0.255408C9.0523 0.414035 9.63468 0.64884 10.1805 0.954189L10.2954 0.494465C10.3009 0.423909 10.3209 0.355244 10.3541 0.292756C10.3873 0.230269 10.4331 0.1753 10.4885 0.131283C10.6197 0.0664579 10.7653 0.036383 10.9115 0.0439355H14.0192C14.2812 0.0439355 14.4329 0.1037 14.4789 0.214033C14.5193 0.364613 14.5193 0.523177 14.4789 0.673757L12.0883 13.2932ZM7.49111 3.52864C7.13174 3.52234 6.774 3.57833 6.43375 3.69414C6.14782 3.80758 5.89491 3.99094 5.69819 4.22742C5.42199 4.65771 5.20112 5.12108 5.04078 5.60659C4.88121 6.07358 4.75523 6.55138 4.66381 7.03633C4.5338 7.65528 4.45842 8.28446 4.43854 8.9166C4.38551 9.33192 4.49052 9.752 4.73276 10.0935C4.99329 10.2989 5.32142 10.3989 5.65221 10.3739C6.19388 10.3468 6.72992 10.2511 7.24745 10.0889C7.67571 9.95283 8.08741 9.76934 8.47491 9.54183L9.56906 3.99756C8.91415 3.69594 8.2029 3.53615 7.48192 3.52864H7.49111Z" transform="translate(72.3428 6.46094)" fill="white"/>
<path d="M11.1969 19.2717C11.1796 19.4106 11.108 19.537 10.9977 19.6232C10.8874 19.7094 10.7474 19.7483 10.6084 19.7314H9.43153C9.11432 19.7314 8.9718 19.5751 9.06835 19.2717L10.6912 10.9967C10.7928 10.475 10.8543 9.94632 10.8751 9.41524C10.8995 9.07535 10.8412 8.73459 10.705 8.42223C10.6458 8.30276 10.5633 8.19642 10.4622 8.10954C10.3611 8.02266 10.2435 7.95702 10.1165 7.91654C9.7767 7.81502 9.42285 7.76846 9.06835 7.77862C8.65115 7.79065 8.23716 7.85553 7.83628 7.97171C7.34898 8.10503 6.87086 8.25214 6.39275 8.43143C5.91464 8.61072 5.47331 8.77162 5.03657 8.95092C4.59983 9.13021 4.27802 9.27272 4.05276 9.38306L2.12192 19.2993C2.10469 19.4382 2.03306 19.5646 1.92274 19.6508C1.81243 19.737 1.67244 19.7759 1.53348 19.759H0.384167C0.0669578 19.759 -0.0525743 19.6027 0.0209815 19.2993L3.662 0.459822C3.68099 0.330307 3.74657 0.212163 3.84643 0.127533C3.9463 0.0429026 4.07359 -0.00240591 4.20447 9.85406e-05H5.35378C5.68938 9.85406e-05 5.8135 0.161002 5.77213 0.459822L4.39296 7.57175H4.45272C4.71016 7.42463 5.04116 7.24534 5.44572 7.03847C5.87356 6.82388 6.31244 6.63206 6.76053 6.46381C7.24705 6.28451 7.74271 6.13105 8.24544 6.00409C8.735 5.87696 9.23836 5.81057 9.74414 5.80641C10.457 5.76965 11.1682 5.90527 11.8175 6.20177C12.273 6.43002 12.6341 6.81066 12.8381 7.27752C13.0444 7.79853 13.1263 8.36052 13.0771 8.91874C13.033 9.61411 12.9392 10.3054 12.7967 10.9875L11.1969 19.2717Z" transform="translate(88.0879 0.625)" fill="white"/>
<path d="M10.6058 13.3993C10.5964 13.5303 10.5355 13.6522 10.4364 13.7383C10.3373 13.8245 10.2082 13.8679 10.0772 13.859H8.92784C8.59225 13.859 8.46812 13.7027 8.53708 13.3993L8.73016 12.3329C7.98799 12.7827 7.22051 13.1895 6.43154 13.551C5.53658 13.9489 4.56507 14.145 3.58585 14.1256C2.29862 14.1256 1.37917 13.8039 0.827506 13.1603C0.275838 12.5167 2.21486e-06 11.5698 2.21486e-06 10.3194C-0.000454549 9.82457 0.0302601 9.33019 0.0919526 8.8392C0.156314 8.29677 0.243658 7.75433 0.353991 7.2119C0.549888 6.16682 0.82185 5.13744 1.1677 4.13197C1.44705 3.30658 1.87384 2.53872 2.42734 1.8657C2.94338 1.25397 3.59725 0.773445 4.3352 0.463642C5.215 0.128797 6.15269 -0.0274727 7.09354 0.00395096C7.70448 0.0179051 8.31133 0.10746 8.90025 0.270571C9.59815 0.448523 10.2748 0.701285 10.9184 1.02446L10.946 0.996882L11.0288 0.601549C11.0344 0.540258 11.0534 0.480943 11.0844 0.427747C11.1154 0.37455 11.1576 0.328754 11.2081 0.293556C11.3491 0.248803 11.4971 0.23011 11.6448 0.238393H12.6884C12.8953 0.238393 13.024 0.270572 13.0837 0.339525C13.1435 0.408479 13.1481 0.537192 13.1113 0.744053L10.6058 13.3993ZM10.6058 2.78508C9.3929 2.23049 8.07775 1.9346 6.74415 1.91626C6.20325 1.90242 5.66474 1.99295 5.1581 2.18288C4.70491 2.37038 4.31318 2.68087 4.02719 3.07928C3.66695 3.58285 3.38774 4.13968 3.19968 4.72957C2.92858 5.55871 2.71959 6.40689 2.57446 7.26706C2.45953 7.86466 2.37218 8.4025 2.30782 8.88977C2.25017 9.28878 2.21792 9.69106 2.21128 10.0942C2.21128 10.9722 2.37218 11.5422 2.69859 11.8042C3.13111 12.0961 3.64935 12.2337 4.1697 12.1949C4.56753 12.1873 4.96286 12.1301 5.34659 12.0249C5.81355 11.9105 6.27395 11.7708 6.72576 11.6065C7.18549 11.4365 7.64521 11.2664 8.05436 11.0871C8.46352 10.9078 8.81291 10.7561 9.07495 10.6274L10.6058 2.78508Z" transform="translate(101.67 6.49805)" fill="white"/>
<path d="M11.4406 1.91707C11.4199 1.98299 11.3837 2.04293 11.3348 2.09177C11.286 2.14061 11.226 2.17689 11.1601 2.1975C10.9961 2.23646 10.8264 2.2458 10.659 2.22509L8.89368 2.0412C8.29812 1.97793 7.69967 1.9457 7.10076 1.94466C6.68351 1.94209 6.26679 1.97439 5.85491 2.0412C5.50363 2.09497 5.16537 2.21343 4.85731 2.39059C4.58282 2.55243 4.35602 2.78399 4.19991 3.06178C4.029 3.39878 3.94674 3.77374 3.96085 4.15133C3.95049 4.42922 4.02943 4.70312 4.18611 4.93286C4.34117 5.14256 4.53654 5.31917 4.76077 5.45235C5.01662 5.59838 5.29006 5.71116 5.57447 5.78795C5.88096 5.8707 6.18744 5.93965 6.49392 5.99482C6.79274 6.04999 7.16972 6.14193 7.62944 6.26146C8.09499 6.38721 8.54178 6.57427 8.95805 6.81773C9.39201 7.07515 9.76523 7.42329 10.0522 7.83831C10.3702 8.32866 10.5307 8.90456 10.5119 9.48872C10.5435 10.283 10.3776 11.0728 10.0292 11.7873C9.72345 12.3651 9.27574 12.8555 8.72819 13.2125C8.14949 13.5771 7.50671 13.8283 6.83413 13.9526C6.08994 14.0928 5.33414 14.162 4.57688 14.1595C4.22136 14.1595 3.8352 14.1457 3.41838 14.1181C2.99544 14.0906 2.59088 14.0492 2.20011 13.994C1.80935 13.9388 1.43697 13.8699 1.09218 13.7963C0.796859 13.7378 0.509734 13.6436 0.23709 13.5159C0.136567 13.4603 0.0605187 13.369 0.0239305 13.2601C-0.0126576 13.1512 -0.00713713 13.0325 0.0394052 12.9275L0.264672 12.339C0.28504 12.2664 0.320567 12.199 0.368906 12.1411C0.417244 12.0833 0.477296 12.0363 0.545104 12.0034C0.681049 11.9648 0.82362 11.9554 0.963454 11.9758L1.8829 12.0862C2.23229 12.1275 2.58168 12.1597 2.93567 12.1873L3.97004 12.2563C4.31024 12.2563 4.58608 12.2838 4.81135 12.2838C5.27341 12.2874 5.73489 12.2504 6.19052 12.1735C6.57684 12.1081 6.94966 11.9792 7.29385 11.7919C7.60704 11.6205 7.86526 11.3639 8.0386 11.0518C8.22932 10.6699 8.321 10.2463 8.30523 9.81972C8.33161 9.5416 8.27974 9.26165 8.15545 9.01145C8.03117 8.76126 7.83942 8.55078 7.60186 8.40377C7.08075 8.11486 6.51269 7.92032 5.92387 7.82912C5.47957 7.76417 5.03912 7.67516 4.60447 7.56248C4.12159 7.44719 3.65732 7.26458 3.22529 7.02001C2.81828 6.76737 2.47024 6.43031 2.20471 6.0316C1.90009 5.56717 1.74894 5.01885 1.77257 4.46394C1.75381 3.74119 1.91161 3.02478 2.23229 2.3768C2.51623 1.82072 2.93707 1.34609 3.45516 0.997625C3.99436 0.639742 4.59407 0.382726 5.22509 0.239081C5.91072 0.0785945 6.61268 -0.00162982 7.31683 2.49072e-05C7.57887 2.49072e-05 7.90069 2.50999e-05 8.28686 0.0276085C8.67302 0.0551919 9.06378 0.0873726 9.46833 0.142539C9.87289 0.197706 10.2545 0.271262 10.6176 0.35861C10.9328 0.429053 11.2407 0.529104 11.5371 0.65743C11.5919 0.67218 11.6411 0.702701 11.6787 0.7452C11.7163 0.787699 11.7406 0.840305 11.7486 0.896486C11.757 1.00697 11.7429 1.11801 11.7072 1.22289L11.4406 1.91707Z" transform="translate(114.452 6.44141)" fill="white"/>
<path d="M11.2195 19.2724C11.2011 19.4108 11.1292 19.5365 11.0191 19.6224C10.9091 19.7084 10.7698 19.7478 10.631 19.7321H9.45412C9.13692 19.7321 8.99441 19.5758 9.09095 19.2724L10.7138 10.9974C10.8132 10.4753 10.8746 9.9468 10.8977 9.4159C10.9198 9.07613 10.8616 8.73592 10.7276 8.4229C10.6684 8.30343 10.5859 8.19708 10.4848 8.1102C10.3837 8.02332 10.2661 7.95768 10.1391 7.9172C9.79931 7.81568 9.44546 7.76912 9.09095 7.77929C8.67376 7.79131 8.25976 7.85619 7.85888 7.97237C7.37158 8.10569 6.88887 8.2528 6.41536 8.43209C5.94184 8.61139 5.49591 8.77229 5.03619 8.95158C4.57646 9.13087 4.28224 9.27339 4.05697 9.38372L2.13073 19.2724C2.11235 19.4108 2.04043 19.5365 1.9304 19.6224C1.82038 19.7084 1.68103 19.7478 1.54229 19.7321H0.392976C0.0757667 19.7321 -0.0667515 19.5758 0.0297905 19.2724L3.6846 0.460484C3.7039 0.327709 3.77214 0.206943 3.87591 0.121888C3.97967 0.0368327 4.11148 -0.00636942 4.24546 0.000760558H5.39017C5.73037 0.000760558 5.8499 0.161664 5.81312 0.460484L4.42935 7.5908H4.48451C4.74656 7.44369 5.07756 7.2644 5.48212 7.05752C5.90956 6.8421 6.34849 6.65026 6.79692 6.48287C7.28344 6.30356 7.77911 6.15011 8.28183 6.02314C8.7714 5.89602 9.27475 5.82962 9.78054 5.82546C10.4934 5.78871 11.2046 5.92432 11.8539 6.22082C12.3084 6.45033 12.6692 6.83057 12.8745 7.29658C13.0808 7.81758 13.1627 8.37957 13.1135 8.93779C13.0671 9.63294 12.9734 10.3241 12.8331 11.0065L11.2195 19.2724Z" transform="translate(126.02 0.625)" fill="white"/>
</svg>
