<svg width="24" height="24" viewBox="0 0 24 24" fill="none" xmlns="http://www.w3.org/2000/svg">
<path d="M12 23.5C18.3513 23.5 23.5 18.3513 23.5 12C23.5 5.64873 18.3513 0.5 12 0.5C5.64873 0.5 0.5 5.64873 0.5 12C0.5 18.3513 5.64873 23.5 12 23.5Z" fill="#00294F" stroke="#0A4982"/>
<path d="M12.2392 5.20934L10.8056 9.52201L10.7502 9.68881L10.5744 9.69308L6.2162 9.79885L9.71291 12.5569L9.84496 12.661L9.79825 12.8226L8.52419 17.2302L12.0922 14.6351L12.2392 14.5281L12.3863 14.6351L15.9542 17.2302L14.6802 12.8226L14.6335 12.661L14.7655 12.5569L18.2622 9.79885L13.904 9.69308L13.7283 9.68881L13.6728 9.52201L12.2392 5.20934Z" fill="#99CEFF" stroke="#99CEFF" stroke-width="0.5"/>
</svg>
