<svg width="22" height="16" viewBox="0 0 22 16" fill="none" xmlns="http://www.w3.org/2000/svg">
<path d="M8.62826 13.7074L3.73208 8.83316L20.2944 8.83316H20.2946C20.756 8.83241 21.125 8.46604 21.125 8.00506C21.125 7.54645 20.7583 7.16748 20.2944 7.16748L3.73248 7.16748L8.62828 2.30265L8.62829 2.30267L8.62987 2.30104C8.94849 1.97276 8.95083 1.44235 8.62836 1.12196C8.29879 0.793866 7.76517 0.791228 7.44325 1.12276C7.44297 1.12304 7.4427 1.12332 7.44243 1.1236L1.12484 7.41294C1.12456 7.41321 1.12428 7.41347 1.12401 7.41374C0.792065 7.73393 0.791906 8.26602 1.12409 8.58571C1.12438 8.58598 1.12466 8.58626 1.12495 8.58653L7.44253 14.8765C7.4428 14.8768 7.44306 14.8771 7.44333 14.8773C7.7658 15.2087 8.29872 15.2062 8.62836 14.878C8.94985 14.558 8.95 14.027 8.62826 13.7074Z" fill="white" stroke="white" stroke-width="0.25"/>
</svg>
