<svg width="114" height="23" viewBox="0 0 114 23" fill="none" xmlns="http://www.w3.org/2000/svg">
<g opacity="0.5">
<path d="M18.1829 7.18033L18.6345 4.93642C18.6721 4.78682 18.5592 4.67463 18.4463 4.67463H15.4359L15.8874 2.28112C15.9251 2.13153 15.8122 2.01933 15.6993 2.01933H12.877C12.6512 2.01933 12.4254 2.20632 12.3878 2.43072L11.3718 7.55431H7.87215L8.9258 2.24372C8.96343 2.09413 8.85054 1.98193 8.73765 1.98193H5.91536C5.68958 1.98193 5.4638 2.16893 5.42617 2.39332L4.89934 4.67463H2.11469C1.8889 4.67463 1.66312 4.86162 1.62549 5.08601L1.17393 7.32992C1.13629 7.47951 1.24919 7.59171 1.36208 7.59171H4.33488L3.77043 10.5088H0.948143C0.72236 10.5088 0.496577 10.6958 0.458947 10.9202L0.0073813 13.1641C-0.0302491 13.3137 0.0826422 13.4259 0.195534 13.4259H3.16834L2.71677 15.8194C2.71677 15.969 2.79203 16.0812 2.94256 16.0812H5.76484C5.99062 16.0812 6.21641 15.8942 6.25404 15.6698L7.27006 10.5462H10.7697L9.71604 15.8568C9.71604 15.969 9.7913 16.0812 9.94182 16.0812H12.8017C13.0275 16.0812 13.2533 15.8942 13.2909 15.6698L13.7425 13.4633H16.5648C16.7906 13.4633 17.0163 13.2763 17.054 13.0519L17.5055 10.808C17.5432 10.6584 17.4303 10.5462 17.3174 10.5462H14.3446L14.909 7.62911H17.7313C17.9195 7.59171 18.1453 7.40472 18.1829 7.18033Z" fill="white"/>
<path d="M36.7727 15.9318C36.6974 16.044 36.5845 16.0814 36.3587 16.0814H33.8375C33.4988 16.0814 33.3483 15.9318 33.4236 15.5953L34.5901 9.6115C34.7406 8.90093 34.703 8.45214 34.5525 8.22775C34.402 8.00336 34.1009 7.89117 33.6493 7.89117C33.3859 7.89117 33.0096 7.96596 32.5957 8.11556C32.1818 8.26515 31.8055 8.41475 31.4668 8.56434L31.2786 9.6115L30.1121 15.5953C30.0745 15.7075 30.0368 15.8196 29.9616 15.9318C29.8863 16.0066 29.7358 16.0814 29.5476 16.0814H27.0264C26.6877 16.0814 26.5748 15.9318 26.6501 15.5953L27.8166 9.5367C27.9295 8.90093 27.9295 8.45214 27.779 8.22775C27.6285 8.00336 27.3274 7.89117 26.9135 7.89117C26.6501 7.89117 26.2738 7.96596 25.8598 8.07816C25.4459 8.22775 25.0696 8.37735 24.6933 8.52694L23.301 15.5953C23.2633 15.7075 23.2257 15.8196 23.1504 15.9318C23.0752 16.044 22.9247 16.0814 22.6989 16.0814H20.1776C19.839 16.0814 19.7261 15.9318 19.8013 15.5953L21.7958 5.34807C21.8334 5.19847 21.871 5.08628 21.9839 4.97408C22.0592 4.89929 22.2097 4.82449 22.3978 4.82449H24.9191C25.1449 4.82449 25.2578 4.86189 25.2954 4.97408C25.333 5.08628 25.333 5.19847 25.2954 5.31067L25.2201 5.87165L25.2578 5.90905C25.8222 5.49766 26.4243 5.19847 27.0264 4.97408C27.6285 4.74969 28.2682 4.6375 28.8326 4.6375C29.51 4.6375 30.1121 4.74969 30.5636 5.01148C31.0528 5.27327 31.3539 5.64726 31.4668 6.17083C32.1065 5.72205 32.7838 5.34807 33.5365 5.04888C34.2514 4.74969 34.9664 4.6001 35.6438 4.6001C36.4716 4.6001 37.0737 4.74969 37.45 5.01148C37.864 5.27327 38.1274 5.60986 38.2403 6.05864C38.3908 6.47002 38.4284 6.9562 38.3532 7.47978C38.3155 8.00336 38.2026 8.52694 38.1274 9.08792L36.8479 15.5953C36.8856 15.7075 36.8479 15.8196 36.7727 15.9318Z" fill="white"/>
<path d="M38.9929 12.4535C38.9929 11.9673 39.0306 11.4811 39.1058 10.9949C39.1811 10.5087 39.294 10.0225 39.4069 9.53637C39.5574 8.97539 39.7832 8.37701 40.0466 7.81604C40.31 7.25506 40.6863 6.73148 41.1755 6.2453C41.6647 5.75912 42.2668 5.38513 43.0194 5.12334C43.7344 4.82415 44.6751 4.67456 45.7664 4.67456C46.2932 4.67456 46.8201 4.74936 47.3092 4.86155C47.7984 4.97375 48.25 5.16074 48.6263 5.42253C49.0026 5.68432 49.3037 5.98351 49.5294 6.39489C49.7552 6.76888 49.8681 7.21766 49.8681 7.74124C49.8681 8.6388 49.6423 9.34937 49.1531 9.91035C48.6639 10.4713 48.0619 10.8827 47.3469 11.1819C46.6319 11.4811 45.8417 11.6681 45.0138 11.7803C44.1859 11.8925 43.1699 11.9673 42.4549 12.0047C42.3797 12.1543 42.342 12.603 42.342 12.8274C42.342 13.5006 43.5086 13.5754 43.7344 13.6128C44.5999 13.725 46.3685 13.5006 47.6479 13.2762C47.7984 13.2388 47.949 13.2388 48.0619 13.2762C48.1747 13.3136 48.2124 13.4258 48.2124 13.6502V14.7348C48.2124 15.0339 48.1747 15.2583 48.0619 15.3705C47.949 15.4827 47.7608 15.6323 47.4221 15.7445C47.1587 15.8193 46.8577 15.9315 46.519 15.9689C46.1803 16.0437 45.8417 16.0811 45.4654 16.1185C45.0891 16.1559 44.7504 16.1933 44.3741 16.1933C43.9978 16.2307 43.6591 16.2307 43.3581 16.2307C42.7183 16.2307 42.1162 16.1559 41.5518 16.0437C41.025 15.8941 40.5734 15.6697 40.1595 15.3705C39.7832 15.0713 39.4821 14.66 39.2563 14.1738C39.1058 13.725 38.9929 13.1266 38.9929 12.4535ZM46.5943 8.15262C46.5943 7.85343 46.4814 7.62904 46.2932 7.44205C46.1051 7.25506 45.804 7.14286 45.4277 7.14286C45.0514 7.14286 44.5622 7.25506 44.2988 7.44205C44.0354 7.62904 43.8096 7.89083 43.6215 8.19002C43.4333 8.48921 43.2828 8.8258 43.1699 9.19978C43.057 9.57377 43.057 9.53637 42.9817 9.87295C44.8633 9.94775 46.0674 9.34937 46.2932 9.08758C46.4814 8.86319 46.5943 8.56401 46.5943 8.15262Z" fill="white"/>
<path d="M57.8462 15.0342C57.8462 15.1838 57.8086 15.3708 57.6957 15.4829C57.5828 15.6325 57.4322 15.7073 57.2817 15.7447C56.9807 15.8195 56.6796 15.8943 56.341 15.9691C56.0023 16.0439 55.7012 16.0813 55.4002 16.1187C55.0992 16.1561 54.7981 16.1935 54.5347 16.1935C54.2713 16.1935 54.0455 16.2309 53.8574 16.2309C53.1424 16.2309 52.5779 16.1187 52.164 15.9317C51.7501 15.7447 51.449 15.4455 51.2985 15.109C51.1103 14.7724 51.0351 14.3984 51.0351 13.9496C51.0351 13.5008 51.0727 13.052 51.1856 12.6033L52.2016 7.51707H51.1856C50.9974 7.51707 50.8846 7.47967 50.8469 7.40487C50.8093 7.33007 50.7717 7.18048 50.8093 7.03089L51.148 5.31055C51.1856 5.16096 51.2232 5.01137 51.3361 4.93657C51.4114 4.86177 51.5619 4.82437 51.75 4.82437H52.7661L53.18 2.65526C53.2929 2.20648 53.4811 2.05688 53.8574 2.05688H56.3033C56.6796 2.05688 56.6044 2.28128 56.6044 2.46827L56.1528 4.82437H58.4859C58.7117 4.82437 58.8246 4.86177 58.8622 4.93657C58.8998 5.01137 58.8998 5.12356 58.8622 5.31055L58.5235 7.03089C58.4859 7.18048 58.4483 7.33007 58.373 7.40487C58.2978 7.47967 58.1472 7.51707 57.9591 7.51707H55.5884L54.7981 11.7431C54.7605 11.9675 54.7229 12.1545 54.7229 12.3041C54.7229 12.4537 54.7605 12.5659 54.7981 12.6781C54.8734 12.7903 54.9863 12.8651 55.1744 12.9025C55.3626 12.9398 55.5884 12.9772 55.927 12.9772C56.1152 12.9772 56.341 12.9772 56.642 12.9398C56.9431 12.9398 57.2441 12.9025 57.5075 12.8651C57.658 12.8651 57.7709 12.8651 57.8462 12.9025C57.9214 12.9398 57.9591 13.0894 57.9591 13.3512L57.8462 15.0342Z" fill="white"/>
<path d="M69.21 15.5578C69.21 15.67 69.1348 15.7822 69.0595 15.8944C68.9843 16.0066 68.8337 16.044 68.608 16.044H66.0115C65.8233 16.044 65.7104 16.0066 65.6728 15.9318C65.6351 15.857 65.6351 15.7448 65.6728 15.5952L65.7857 15.0342L65.748 14.9968C65.1083 15.4082 64.4686 15.7448 63.9418 15.9318C63.3773 16.1188 62.8129 16.231 62.286 16.231C61.1571 16.231 60.3669 15.9318 59.953 15.3708C59.539 14.7724 59.3132 13.9871 59.3132 13.0147C59.3132 12.6407 59.3509 12.2667 59.3885 11.8554C59.4261 11.444 59.5014 11.0326 59.5766 10.5838C59.7272 9.68624 59.953 8.90087 60.2164 8.1903C60.4798 7.47972 60.7808 6.84395 61.1948 6.35777C61.6087 5.83419 62.0979 5.46021 62.6623 5.16102C63.2644 4.86183 63.9794 4.74963 64.8449 4.74963C65.2588 4.74963 65.7104 4.82443 66.2372 4.93663C66.7641 5.08622 67.2156 5.27321 67.6672 5.4976L67.7425 5.12362C67.7801 4.97402 67.8177 4.86183 67.893 4.82443C67.9682 4.78703 68.0811 4.74963 68.2317 4.74963H70.7905C71.0163 4.74963 71.1292 4.78703 71.1668 4.89923C71.2045 4.97402 71.2045 5.12362 71.1668 5.27321L69.21 15.5578ZM65.447 7.62932C65.146 7.62932 64.8073 7.66672 64.5815 7.77891C64.3557 7.89111 64.1676 8.0033 63.9794 8.2277C63.8289 8.41469 63.5655 9.01306 63.4526 9.34965C63.3397 9.68624 63.2268 10.0602 63.1515 10.509C63.0386 11.1074 62.9634 11.7058 62.9634 12.0423C62.9634 12.5285 63.0386 12.8651 63.1892 13.0147C63.3397 13.1643 63.6031 13.2391 63.9418 13.2391C64.2804 13.2391 64.8073 13.1269 65.2588 13.0147C65.6351 12.9025 66.0867 12.6781 66.2749 12.5659L67.178 8.0407C66.5383 7.70412 65.9362 7.62932 65.447 7.62932Z" fill="white"/>
<path d="M81.3649 15.67C81.3273 15.9318 81.1768 16.044 80.8757 16.044H79.8973C79.6339 16.044 79.521 15.9318 79.5963 15.67L80.9133 8.93824C80.9886 8.41466 81.0639 8.00328 81.0639 7.66669C81.0639 7.33011 81.0262 7.06832 80.9133 6.84393C80.8005 6.65693 80.6499 6.50734 80.4241 6.43254C80.1984 6.35775 79.8973 6.32035 79.5586 6.32035C79.2952 6.32035 78.9566 6.35775 78.5426 6.46994C78.1287 6.58214 77.7524 6.69433 77.3761 6.84393C76.9998 6.99352 76.6235 7.10572 76.2472 7.25531C75.9085 7.4049 75.6451 7.5171 75.4569 7.5919L73.8764 15.67C73.8388 15.9318 73.6883 16.044 73.3873 16.044H72.4465C72.1831 16.044 72.0702 15.9318 72.1454 15.67L75.1935 0.373985C75.2688 0.112196 75.4193 0 75.6451 0H76.5858C76.8493 0 76.9621 0.112196 76.9245 0.373985L75.7956 6.17075H75.8332C76.059 6.05856 76.3224 5.90896 76.6611 5.72197C76.9998 5.57238 77.3385 5.38539 77.7524 5.27319C78.1287 5.1236 78.5426 5.0114 78.9566 4.8992C79.3705 4.78701 79.7844 4.74961 80.1984 4.74961C80.951 4.74961 81.5154 4.86181 81.8917 5.0862C82.3057 5.31059 82.5691 5.60978 82.7196 5.94636C82.8701 6.32035 82.9454 6.76913 82.9078 7.29271C82.8701 7.81629 82.7949 8.37727 82.682 8.97564L81.3649 15.67Z" fill="white"/>
<path d="M92.0141 15.6702C91.9764 15.9319 91.8259 16.0441 91.5625 16.0441H90.6218C90.3583 16.0441 90.2454 15.9319 90.2831 15.6702L90.4336 14.81C89.8691 15.1466 89.2294 15.4832 88.5521 15.8197C87.8747 16.1189 87.0845 16.2685 86.219 16.2685C85.1653 16.2685 84.4127 16.0067 83.9612 15.4832C83.5096 14.9596 83.2838 14.1742 83.2838 13.1645C83.2838 12.7905 83.3214 12.3791 83.3591 11.9677C83.3967 11.5189 83.472 11.0701 83.5849 10.6588C83.773 9.72379 83.9988 8.86362 84.2622 8.15305C84.5256 7.44248 84.8643 6.80671 85.2782 6.32053C85.6922 5.83434 86.219 5.42296 86.8211 5.19857C87.4232 4.93678 88.1758 4.82458 89.0789 4.82458C89.4928 4.82458 89.982 4.89938 90.5465 5.04898C91.1109 5.19857 91.6378 5.38556 92.2022 5.68475L92.2399 5.64735L92.3151 5.31077C92.3528 5.16117 92.3904 5.08637 92.4656 5.04898C92.5409 5.01158 92.6538 5.01158 92.8043 5.01158H93.6698C93.8203 5.01158 93.9332 5.04898 94.0085 5.08637C94.0461 5.12377 94.0461 5.23597 94.0461 5.42296L92.0141 15.6702ZM92.0141 7.0311C90.9228 6.54492 89.8691 6.32053 88.8531 6.32053C88.3639 6.32053 87.9124 6.39532 87.5737 6.54492C87.1974 6.69451 86.8963 6.9189 86.6329 7.25549C86.3695 7.59207 86.1437 8.04086 85.9556 8.60183C85.7674 9.16281 85.5793 9.83598 85.4287 10.6588C85.3535 11.1449 85.2782 11.5937 85.203 11.9677C85.1653 12.3791 85.1277 12.6783 85.1277 12.9401C85.1277 13.6506 85.2782 14.0994 85.5416 14.3238C85.8051 14.5482 86.219 14.6604 86.7458 14.6604C87.0092 14.6604 87.3479 14.623 87.7242 14.5108C88.1005 14.436 88.4768 14.3238 88.8531 14.1742C89.2294 14.0246 89.6057 13.9124 89.9444 13.7628C90.2831 13.6132 90.5841 13.501 90.7723 13.3888L92.0141 7.0311Z" fill="white"/>
<path d="M103.153 6.28284C103.115 6.39503 103.04 6.46983 102.927 6.50723C102.814 6.54463 102.663 6.54463 102.513 6.54463C102.061 6.50723 101.572 6.43243 101.083 6.39503C100.594 6.35763 100.105 6.32024 99.6153 6.32024C99.239 6.32024 98.9003 6.35763 98.5993 6.39503C98.2982 6.43243 97.9972 6.54463 97.7714 6.69422C97.5456 6.84381 97.3575 7.03081 97.2446 7.2552C97.1317 7.47959 97.0564 7.77878 97.0564 8.15276C97.0564 8.41455 97.1317 8.63894 97.2446 8.78854C97.3575 8.93813 97.508 9.08773 97.6962 9.19992C97.8843 9.31212 98.1101 9.38691 98.3735 9.46171C98.6369 9.53651 98.8627 9.57391 99.1261 9.6487C99.3519 9.6861 99.6906 9.7609 100.067 9.87309C100.443 9.98529 100.819 10.1349 101.158 10.3219C101.497 10.5089 101.798 10.8081 102.061 11.1446C102.287 11.4812 102.438 11.93 102.438 12.491C102.438 13.239 102.287 13.8747 102.061 14.3609C101.798 14.8471 101.459 15.2211 101.008 15.5203C100.556 15.8195 100.029 16.0064 99.4648 16.1186C98.8627 16.2308 98.2606 16.3056 97.6209 16.3056C97.3198 16.3056 97.0188 16.3056 96.6801 16.2682C96.3414 16.2308 96.0028 16.1934 95.6641 16.156C95.3254 16.1186 95.0244 16.0438 94.761 16.0064C94.4599 15.9317 94.2341 15.8569 94.046 15.7821C93.8578 15.6699 93.8202 15.5203 93.8955 15.2959L94.0836 14.8097C94.1589 14.6601 94.2341 14.5853 94.3094 14.5479C94.3847 14.5105 94.4976 14.5105 94.6481 14.5105C94.8739 14.5479 95.1373 14.5853 95.4007 14.5853C95.7017 14.6227 95.9651 14.6601 96.2662 14.6601C96.5672 14.6975 96.8306 14.6975 97.1317 14.7349C97.3951 14.7349 97.6209 14.7723 97.809 14.7723C98.223 14.7723 98.5616 14.7349 98.938 14.6975C99.2766 14.6227 99.5777 14.5479 99.8411 14.3983C100.104 14.2487 100.293 14.0617 100.443 13.7999C100.594 13.5381 100.669 13.2016 100.669 12.7902C100.669 12.2292 100.481 11.8552 100.104 11.6308C99.7282 11.4064 99.2766 11.2568 98.7122 11.182C98.3735 11.1446 98.0348 11.0698 97.6209 10.9577C97.2069 10.8455 96.8683 10.6959 96.492 10.5089C96.1533 10.3219 95.8523 10.0601 95.6265 9.7235C95.4007 9.38691 95.2878 8.97553 95.2878 8.45195C95.2878 7.77878 95.4007 7.2178 95.6641 6.76902C95.9275 6.32024 96.2286 5.94625 96.6801 5.64706C97.0941 5.34788 97.5833 5.16088 98.1477 5.04869C98.6745 4.93649 99.2766 4.86169 99.8787 4.86169C100.104 4.86169 100.368 4.86169 100.669 4.89909C100.97 4.89909 101.309 4.93649 101.647 4.97389C101.986 5.01129 102.287 5.08609 102.588 5.16088C102.889 5.23568 103.153 5.31048 103.341 5.38527C103.454 5.42267 103.491 5.49747 103.529 5.57227C103.529 5.64706 103.529 5.75926 103.491 5.83406L103.153 6.28284Z" fill="white"/>
<path d="M112.448 15.67C112.41 15.9318 112.259 16.044 111.958 16.044H110.98C110.717 16.044 110.604 15.9318 110.679 15.67L111.996 8.93824C112.071 8.41466 112.147 8.00328 112.147 7.66669C112.147 7.33011 112.109 7.06832 111.996 6.84393C111.883 6.65693 111.733 6.50734 111.507 6.43254C111.281 6.35775 110.98 6.32035 110.641 6.32035C110.378 6.32035 110.039 6.35775 109.625 6.46994C109.211 6.58214 108.835 6.69433 108.459 6.84393C108.083 6.99352 107.706 7.10572 107.33 7.25531C106.991 7.4049 106.728 7.5171 106.54 7.5919L104.997 15.67C104.959 15.9318 104.809 16.044 104.508 16.044H103.567C103.303 16.044 103.191 15.9318 103.266 15.67L106.276 0.373985C106.352 0.112196 106.502 0 106.728 0H107.669C107.932 0 108.045 0.112196 108.007 0.373985L106.878 6.17075H106.916C107.142 6.05856 107.405 5.90896 107.744 5.72197C108.083 5.57238 108.421 5.38539 108.835 5.27319C109.211 5.1236 109.625 5.0114 110.039 4.8992C110.453 4.78701 110.867 4.74961 111.281 4.74961C112.034 4.74961 112.598 4.86181 112.974 5.0862C113.388 5.31059 113.652 5.60978 113.802 5.94636C113.953 6.32035 114.028 6.76913 113.99 7.29271C113.953 7.81629 113.878 8.37727 113.765 8.97564L112.448 15.67Z" fill="white"/>
<path d="M3.69476 19.0729C3.77002 19.0729 3.80765 19.0729 3.92054 19.0729C3.9958 19.0729 4.1087 19.0729 4.18396 19.1103C4.29685 19.1103 4.37211 19.1477 4.485 19.1477C4.59789 19.1851 4.67315 19.1851 4.74841 19.2225C4.78604 19.2599 4.82367 19.2599 4.82367 19.2973C4.82367 19.3347 4.82367 19.3347 4.82367 19.3721L4.78604 19.5217C4.78604 19.5591 4.78604 19.5591 4.74841 19.5591C4.74841 19.5591 4.71078 19.5965 4.67315 19.5591C4.56026 19.5217 4.40974 19.5217 4.22159 19.5217C4.03343 19.5217 3.88291 19.4843 3.69476 19.4843C3.46898 19.4843 3.28083 19.5217 3.16793 19.5965C3.05504 19.6713 2.94215 19.7834 2.86689 19.933C2.79163 20.0826 2.754 20.2322 2.71637 20.4192C2.67874 20.6062 2.67874 20.7932 2.67874 21.0176C2.67874 21.2046 2.67874 21.3916 2.71637 21.5786C2.754 21.7656 2.79163 21.9152 2.86689 22.0648C2.94215 22.2144 3.05504 22.3265 3.16793 22.4013C3.28083 22.4761 3.46898 22.5135 3.69476 22.5135C3.88291 22.5135 4.03343 22.5135 4.22159 22.4761C4.37211 22.4761 4.52263 22.4387 4.67315 22.4387C4.71078 22.4387 4.74841 22.4387 4.74841 22.4387L4.78604 22.4761L4.82367 22.6257C4.82367 22.6631 4.82367 22.6631 4.82367 22.7005C4.82367 22.7379 4.78604 22.7379 4.74841 22.7379C4.67315 22.7753 4.59789 22.7753 4.485 22.8127C4.37211 22.8501 4.29685 22.8501 4.18396 22.8501C4.07107 22.8501 3.9958 22.8875 3.92054 22.8875C3.84528 22.8875 3.77002 22.8875 3.69476 22.8875C3.39372 22.8875 3.1303 22.8501 2.94215 22.7379C2.754 22.6257 2.60348 22.4761 2.49059 22.3265C2.37769 22.1396 2.30243 21.9526 2.2648 21.7282C2.22717 21.5038 2.22717 21.3168 2.22717 21.0924C2.22717 20.8306 2.22717 20.6062 2.2648 20.3444C2.30243 20.12 2.37769 19.8956 2.49059 19.7087C2.60348 19.5217 2.754 19.3721 2.94215 19.2599C3.1303 19.1477 3.39372 19.0729 3.69476 19.0729Z" fill="white"/>
<path d="M9.07596 20.9805C9.07596 21.2049 9.07596 21.4293 9.03832 21.6911C9.00069 21.9155 8.96306 22.1399 8.85017 22.3269C8.73728 22.5138 8.58676 22.7008 8.39861 22.813C8.21045 22.9252 7.90941 23 7.57074 23C7.34495 23 7.1568 22.9626 7.00628 22.9252C6.85576 22.8504 6.70524 22.7756 6.59235 22.7008C6.47945 22.5886 6.40419 22.4764 6.32893 22.3643C6.25367 22.2147 6.21604 22.1025 6.17841 21.9529C6.14078 21.8033 6.10315 21.6537 6.10315 21.5041C6.10315 21.3545 6.10315 21.2049 6.10315 21.0553C6.10315 20.9431 6.10315 20.7935 6.10315 20.6813C6.10315 20.5317 6.14078 20.3821 6.17841 20.2699C6.21604 20.1203 6.25367 20.0081 6.32893 19.8586C6.40419 19.709 6.47945 19.5968 6.59235 19.522C6.70524 19.4098 6.81813 19.335 7.00628 19.2976C7.1568 19.2228 7.34495 19.2228 7.57074 19.2228C7.90941 19.2228 8.17282 19.2602 8.36098 19.3724C8.54913 19.4846 8.69965 19.6342 8.81254 19.8212C8.92543 20.0081 9.00069 20.1951 9.00069 20.4195C9.07595 20.5317 9.07596 20.7561 9.07596 20.9805ZM8.62439 21.0179C8.62439 20.7561 8.62439 20.5317 8.58676 20.3447C8.54913 20.1577 8.5115 19.9707 8.39861 19.8586C8.32335 19.709 8.21045 19.6342 8.05993 19.5594C7.90941 19.4846 7.75889 19.4472 7.53311 19.4472C7.34495 19.4472 7.19443 19.4846 7.04391 19.5594C6.93102 19.6342 6.81813 19.7464 6.74287 19.8586C6.66761 20.0081 6.59235 20.1577 6.59235 20.3447C6.55471 20.5317 6.55471 20.7561 6.55471 20.9805C6.55471 21.2049 6.55471 21.4293 6.59235 21.6163C6.62998 21.8033 6.66761 21.9529 6.74287 22.1025C6.81813 22.2521 6.93102 22.3269 7.04391 22.4017C7.1568 22.4764 7.34495 22.5138 7.53311 22.5138C7.75889 22.5138 7.90941 22.4764 8.05993 22.4017C8.21045 22.3269 8.28572 22.2147 8.39861 22.1025C8.47387 21.9529 8.54913 21.8033 8.54913 21.6163C8.62439 21.5041 8.62439 21.2797 8.62439 21.0179Z" fill="white"/>
<path d="M11.2201 19.9334V22.8505C11.2201 22.9253 11.1825 22.9627 11.1072 22.9627H10.8814C10.8062 22.9627 10.7686 22.9253 10.7686 22.8505V19.2229C10.7686 19.1481 10.8062 19.1481 10.8438 19.1481H11.0696C11.1072 19.1481 11.1449 19.1481 11.1449 19.1855C11.1449 19.1855 11.1825 19.2229 11.1825 19.2603L12.763 21.6538L13.064 22.14V19.2603C13.064 19.2229 13.064 19.1855 13.1016 19.1855C13.1016 19.1855 13.1393 19.1481 13.1769 19.1481H13.4027C13.4403 19.1481 13.4403 19.1481 13.4779 19.1855C13.4779 19.1855 13.5156 19.2229 13.5156 19.2603V22.8879C13.5156 22.9627 13.4779 22.9627 13.4403 22.9627H13.2145C13.1769 22.9627 13.1393 22.9627 13.1393 22.9253C13.1016 22.9253 13.1016 22.8879 13.064 22.8505L11.5212 20.457L11.2201 19.9334Z" fill="white"/>
<path d="M16.6768 19.073C16.7521 19.073 16.7897 19.073 16.9026 19.073C16.9779 19.073 17.0908 19.073 17.166 19.1104C17.2789 19.1104 17.3542 19.1478 17.4671 19.1478C17.58 19.1852 17.6552 19.1852 17.7305 19.2226C17.7681 19.26 17.8058 19.26 17.8058 19.2974C17.8058 19.3348 17.8058 19.3348 17.8058 19.3722L17.7681 19.5218C17.7681 19.5592 17.7681 19.5592 17.7305 19.5592C17.7305 19.5592 17.6929 19.5966 17.6552 19.5592C17.5423 19.5218 17.3918 19.5218 17.2037 19.5218C17.0155 19.5218 16.865 19.4844 16.6768 19.4844C16.4511 19.4844 16.2629 19.5218 16.15 19.5966C16.0371 19.6714 15.9242 19.7836 15.849 19.9332C15.7737 20.0828 15.7361 20.2324 15.6985 20.4193C15.6608 20.6063 15.6608 20.7933 15.6608 21.0177C15.6608 21.2047 15.6608 21.3917 15.6985 21.5787C15.7361 21.7657 15.7737 21.9153 15.849 22.0649C15.9242 22.2145 16.0371 22.3267 16.15 22.4015C16.2629 22.4763 16.4511 22.5137 16.6768 22.5137C16.865 22.5137 17.0155 22.5137 17.2037 22.4763C17.3542 22.4763 17.5047 22.4389 17.6552 22.4389C17.6929 22.4389 17.7305 22.4389 17.7305 22.4389L17.7681 22.4763L17.8058 22.6259C17.8058 22.6633 17.8058 22.6633 17.8058 22.7007C17.8058 22.7381 17.7681 22.7381 17.7305 22.7381C17.6552 22.7754 17.58 22.7755 17.4671 22.8128C17.3542 22.8502 17.2789 22.8502 17.166 22.8502C17.0532 22.8502 16.9779 22.8876 16.9026 22.8876C16.8274 22.8876 16.7521 22.8876 16.6768 22.8876C16.3758 22.8876 16.1124 22.8502 15.9242 22.7381C15.7361 22.6259 15.5856 22.4763 15.4727 22.3267C15.3598 22.1397 15.2845 21.9527 15.2469 21.7283C15.2093 21.5039 15.1716 21.2421 15.1716 21.0177C15.1716 20.7559 15.1716 20.5315 15.2093 20.2698C15.2469 20.0454 15.3222 19.821 15.435 19.634C15.5479 19.447 15.6985 19.2974 15.8866 19.1852C16.1124 19.1478 16.3758 19.073 16.6768 19.073Z" fill="white"/>
<path d="M22.058 20.9805C22.058 21.2049 22.058 21.4293 22.0204 21.6911C21.9827 21.9155 21.9451 22.1399 21.8322 22.3269C21.7193 22.5138 21.5688 22.7008 21.3807 22.813C21.1925 22.9252 20.8915 23 20.5528 23C20.327 23 20.1389 22.9626 19.9883 22.9252C19.8378 22.8504 19.6873 22.7756 19.5744 22.7008C19.4615 22.5886 19.3862 22.4764 19.311 22.3643C19.2357 22.2147 19.1981 22.1025 19.1605 21.9529C19.1228 21.8033 19.0852 21.6537 19.0852 21.5041C19.0852 21.3545 19.0852 21.2049 19.0852 21.0553C19.0852 20.9431 19.0852 20.7935 19.0852 20.6813C19.0852 20.5317 19.1228 20.3821 19.1605 20.2699C19.1981 20.1203 19.2357 20.0081 19.311 19.8586C19.3862 19.709 19.4615 19.5968 19.5744 19.522C19.6873 19.4098 19.8002 19.335 19.9883 19.2976C20.1765 19.2602 20.327 19.2228 20.5528 19.2228C20.8915 19.2228 21.1549 19.2602 21.343 19.3724C21.5312 19.4846 21.6817 19.6342 21.7946 19.8212C21.9075 20.0081 21.9828 20.1951 21.9828 20.4195C22.058 20.5317 22.058 20.7561 22.058 20.9805ZM21.6064 21.0179C21.6064 20.7561 21.6064 20.5317 21.5688 20.3447C21.5312 20.1577 21.4936 19.9707 21.3807 19.8586C21.3054 19.709 21.1925 19.6342 21.042 19.5594C20.8915 19.4846 20.7409 19.4472 20.5152 19.4472C20.327 19.4472 20.1765 19.4846 20.026 19.5594C19.8754 19.6342 19.8002 19.7464 19.7249 19.8586C19.6497 20.0081 19.5744 20.1577 19.5744 20.3447C19.5744 20.5691 19.5744 20.7935 19.5744 21.0179C19.5744 21.2423 19.5744 21.4667 19.612 21.6537C19.6497 21.8407 19.6873 21.9903 19.7626 22.1399C19.8378 22.2895 19.9507 22.3643 20.0636 22.4391C20.1765 22.5138 20.3646 22.5512 20.5528 22.5512C20.7786 22.5512 20.9291 22.5138 21.0796 22.4391C21.2301 22.3643 21.3054 22.2521 21.4183 22.1399C21.4936 21.9903 21.5688 21.8407 21.5688 21.6537C21.6064 21.5041 21.6064 21.2797 21.6064 21.0179Z" fill="white"/>
<path d="M26.1594 22.8505C26.1594 22.8879 26.1594 22.8879 26.1594 22.9253C26.1594 22.9627 26.1218 22.9627 26.1218 22.9627H25.7831C25.7455 22.9627 25.7455 22.9627 25.7078 22.9627C25.6702 22.9627 25.6702 22.9253 25.6702 22.8879L24.9176 21.3546H24.165V22.8505C24.165 22.9253 24.1273 22.9627 24.0521 22.9627H23.7887C23.7134 22.9627 23.6758 22.9253 23.6758 22.8505V19.2229C23.6758 19.1481 23.7134 19.1481 23.7887 19.1481H24.9552C25.1057 19.1481 25.2563 19.1855 25.3692 19.2229C25.5197 19.2603 25.6326 19.3351 25.7455 19.4099C25.8583 19.4847 25.9336 19.5969 26.0089 19.7464C26.0841 19.896 26.0841 20.0456 26.0841 20.2326C26.0841 20.3448 26.0841 20.457 26.0465 20.5692C26.0089 20.6814 25.9712 20.7936 25.9336 20.8684C25.8583 20.9806 25.7831 21.0554 25.7078 21.1302C25.5949 21.205 25.482 21.2798 25.3692 21.3172L26.1594 22.8505ZM25.6326 20.1952C25.6326 20.0456 25.5949 19.9334 25.5573 19.8586C25.5197 19.7838 25.4444 19.709 25.3692 19.6716C25.2939 19.6343 25.2186 19.5969 25.1434 19.5595C25.0681 19.5221 24.9552 19.5221 24.88 19.5221H24.165V20.9432H24.88C24.9552 20.9432 25.0681 20.9432 25.1434 20.9058C25.2186 20.9058 25.3315 20.8684 25.4068 20.7936C25.482 20.7562 25.5573 20.6814 25.5949 20.5692C25.6326 20.4944 25.6326 20.3448 25.6326 20.1952Z" fill="white"/>
<path d="M30.4874 21.0178C30.4874 21.2796 30.4498 21.5414 30.4122 21.7658C30.3746 21.9902 30.2993 22.2145 30.1864 22.3641C30.0735 22.5511 29.923 22.6633 29.6972 22.7755C29.5091 22.8877 29.2456 22.9251 28.907 22.9251H27.8157C27.7781 22.9251 27.7404 22.9251 27.7028 22.8877C27.7028 22.8877 27.6652 22.8503 27.6652 22.8129V19.1853C27.6652 19.1105 27.7028 19.1105 27.7781 19.1105H28.8693C29.1704 19.1105 29.4338 19.1479 29.6219 19.2601C29.8101 19.3723 29.9982 19.4845 30.1111 19.6715C30.224 19.8584 30.2993 20.0454 30.3369 20.2698C30.4498 20.5316 30.4874 20.756 30.4874 21.0178ZM29.9982 21.0926C29.9982 20.756 29.9606 20.4942 29.923 20.3072C29.8477 20.1202 29.7725 19.9332 29.6972 19.821C29.5843 19.7088 29.4714 19.6341 29.3585 19.5967C29.2456 19.5593 29.0951 19.5219 28.9446 19.5219H28.192V22.5137H28.907C29.0575 22.5137 29.1704 22.5137 29.3209 22.4763C29.4714 22.4389 29.5843 22.3641 29.6972 22.2893C29.8101 22.1772 29.8854 22.0276 29.9606 21.8406C29.9606 21.6536 29.9982 21.3918 29.9982 21.0926Z" fill="white"/>
<path d="M32.519 22.9625H32.2556C32.1803 22.9625 32.1427 22.9251 32.1427 22.8503V19.2227C32.1427 19.1853 32.1427 19.1479 32.1803 19.1479C32.1803 19.1479 32.218 19.1105 32.2556 19.1105H32.519C32.5566 19.1105 32.5566 19.1105 32.5943 19.1479C32.5943 19.1479 32.6319 19.1853 32.6319 19.2227V22.8503C32.6319 22.9251 32.5943 22.9625 32.519 22.9625Z" fill="white"/>
<path d="M34.5891 22.8505C34.5891 22.8879 34.5515 22.9253 34.5515 22.9253C34.5138 22.9253 34.5138 22.9253 34.4762 22.9253H34.1752C34.1375 22.9253 34.0999 22.8879 34.1375 22.8505L35.3417 19.2229C35.3417 19.1481 35.3793 19.1481 35.4546 19.1481H35.7933C35.8309 19.1481 35.8685 19.1481 35.8685 19.1855C35.8685 19.1855 35.9062 19.2229 35.9062 19.2603L37.1103 22.9253C37.1103 22.9627 37.1103 23.0001 37.0727 23.0001H36.734C36.6964 23.0001 36.6964 23.0001 36.6588 23.0001C36.6588 23.0001 36.6211 22.9627 36.6211 22.9253L36.3201 21.9904H34.8901L34.5891 22.8505ZM35.9062 20.5692L35.6428 19.6343L35.3793 20.5692L35.0783 21.5416H36.2448L35.9062 20.5692Z" fill="white"/>
<path d="M43.3572 22.8505C43.3572 22.8879 43.3572 22.8879 43.3572 22.9253C43.3572 22.9627 43.3196 22.9627 43.3196 22.9627H42.9809C42.9433 22.9627 42.9433 22.9627 42.9057 22.9627C42.868 22.9627 42.868 22.9253 42.868 22.8879L42.1154 21.3546H41.3628V22.8505C41.3628 22.9253 41.3252 22.9627 41.2499 22.9627H41.0241C40.9489 22.9627 40.9113 22.9253 40.9113 22.8505V19.2229C40.9113 19.1481 40.9489 19.1481 41.0241 19.1481H42.1907C42.3412 19.1481 42.4917 19.1855 42.6046 19.2229C42.7551 19.2603 42.868 19.3351 42.9809 19.4099C43.0938 19.4847 43.1691 19.5969 43.2443 19.7464C43.3196 19.896 43.3196 20.0456 43.3196 20.2326C43.3196 20.3448 43.3196 20.457 43.282 20.5692C43.2443 20.6814 43.2067 20.7936 43.1691 20.8684C43.0938 20.9806 43.0186 21.0554 42.9433 21.1302C42.8304 21.205 42.7175 21.2798 42.6046 21.3172L43.3572 22.8505ZM42.8304 20.1952C42.8304 20.0456 42.7928 19.9334 42.7551 19.8586C42.7175 19.7838 42.6423 19.709 42.567 19.6716C42.4917 19.6343 42.4165 19.5969 42.3412 19.5595C42.266 19.5221 42.1531 19.5221 42.0778 19.5221H41.3628V20.9432H42.0778C42.1531 20.9432 42.266 20.9432 42.3412 20.9058C42.4165 20.9058 42.5294 20.8684 42.6046 20.7936C42.6799 20.7562 42.7551 20.6814 42.7928 20.5692C42.8304 20.4944 42.8304 20.3448 42.8304 20.1952Z" fill="white"/>
<path d="M47.1197 22.9251C47.1197 22.9251 47.0821 22.9251 47.0445 22.9251H45.0124C44.9372 22.9251 44.8995 22.8877 44.8995 22.8503V19.2227C44.8995 19.1479 44.9372 19.1105 45.0124 19.1105H47.0068C47.0821 19.1105 47.1197 19.1479 47.1197 19.1853V19.4471C47.1197 19.5219 47.0821 19.5593 47.0068 19.5593H45.3511V20.7934H46.8187C46.894 20.7934 46.9316 20.8308 46.9316 20.8682V21.0926C46.9316 21.1674 46.894 21.1674 46.8187 21.1674H45.3511V22.5511H47.0445C47.1197 22.5511 47.1197 22.5885 47.1197 22.6633V22.8877C47.1574 22.8877 47.1197 22.9251 47.1197 22.9251Z" fill="white"/>
<path d="M51.1087 21.8779C51.1087 22.1023 51.0711 22.2519 50.9958 22.4015C50.9206 22.5511 50.8453 22.6633 50.6948 22.7381C50.5819 22.8128 50.4314 22.8876 50.2809 22.925C50.1303 22.9624 49.9422 22.9998 49.7917 22.9998C49.7164 22.9998 49.6035 22.9998 49.5283 22.9998C49.4154 22.9998 49.3401 22.9998 49.2272 22.9624C49.1143 22.9624 49.0391 22.925 48.9262 22.925C48.8133 22.8876 48.738 22.8876 48.7004 22.8502C48.6628 22.8128 48.6251 22.8128 48.6251 22.7755C48.6251 22.7381 48.6251 22.7381 48.6251 22.7007L48.6628 22.5511C48.6628 22.5137 48.7004 22.4763 48.7756 22.4763C48.8509 22.4763 48.9638 22.5137 49.0391 22.5137C49.1519 22.5137 49.2272 22.5137 49.3401 22.5511C49.453 22.5511 49.5283 22.5511 49.6035 22.5511C49.6788 22.5511 49.754 22.5511 49.8293 22.5511C50.1303 22.5511 50.3561 22.5137 50.469 22.4015C50.5819 22.2893 50.6948 22.1397 50.6948 21.9527C50.6948 21.8405 50.6948 21.7283 50.6572 21.6161C50.6195 21.5413 50.5819 21.4665 50.5443 21.3917C50.469 21.3543 50.3938 21.2795 50.2809 21.2421C50.168 21.2047 50.0551 21.1673 49.9046 21.1673C49.7164 21.1299 49.5659 21.0925 49.4154 21.0551C49.2648 21.0177 49.1143 20.9429 49.0391 20.9055C48.9262 20.8307 48.8509 20.7559 48.7756 20.6063C48.7004 20.4941 48.6628 20.3445 48.6628 20.1576C48.6628 19.821 48.7756 19.5218 48.9638 19.3348C49.1896 19.1478 49.4906 19.073 49.8669 19.073C49.9422 19.073 49.9798 19.073 50.0927 19.073C50.168 19.073 50.2809 19.073 50.3561 19.1104C50.469 19.1104 50.5443 19.1478 50.6572 19.1478C50.7701 19.1852 50.8453 19.1852 50.9206 19.2226C50.9582 19.2226 50.9958 19.26 50.9958 19.26C50.9958 19.2974 50.9958 19.2974 50.9958 19.3348L50.9582 19.4844C50.9582 19.5218 50.9582 19.5218 50.9206 19.5218C50.9206 19.5218 50.883 19.5592 50.8453 19.5218C50.7324 19.4844 50.5819 19.4844 50.3938 19.4844C50.2056 19.4844 50.0551 19.447 49.8669 19.447C49.7164 19.447 49.6035 19.447 49.4906 19.4844C49.3777 19.5218 49.3025 19.5592 49.2648 19.5966C49.1896 19.634 49.152 19.7088 49.152 19.7836C49.1143 19.8584 49.1143 19.9706 49.1143 20.0454C49.1143 20.1576 49.1143 20.2697 49.152 20.3071C49.1896 20.3819 49.2272 20.4193 49.3025 20.4567C49.3777 20.4941 49.453 20.5315 49.5659 20.5689C49.6788 20.6063 49.7917 20.6063 49.9422 20.6437C50.0927 20.6811 50.2809 20.7185 50.4314 20.7559C50.5819 20.7933 50.6948 20.8681 50.8077 20.9429C50.9206 21.0177 50.9958 21.1299 51.0711 21.2421C51.1087 21.5039 51.1087 21.6909 51.1087 21.8779Z" fill="white"/>
<path d="M57.5059 20.2326C57.5059 20.3448 57.5059 20.4944 57.4683 20.644C57.4306 20.7936 57.3554 20.9058 57.2801 21.018C57.2048 21.1302 57.0543 21.205 56.9038 21.2798C56.7533 21.3546 56.5651 21.392 56.3393 21.392H55.5867V22.8505C55.5867 22.9253 55.5491 22.9627 55.4738 22.9627H55.2104C55.1352 22.9627 55.0975 22.9253 55.0975 22.8505V19.2229C55.0975 19.1481 55.1352 19.1481 55.2104 19.1481H56.3017C56.4899 19.1481 56.6404 19.1855 56.7909 19.2229C56.9414 19.2603 57.0543 19.3351 57.1672 19.4473C57.2801 19.5221 57.3554 19.6717 57.4306 19.7838C57.4683 19.896 57.5059 20.0456 57.5059 20.2326ZM57.0543 20.2326C57.0543 20.0082 56.9791 19.8212 56.8285 19.709C56.678 19.5969 56.4899 19.5221 56.2641 19.5221H55.5491V20.9806H56.3017C56.4522 20.9806 56.5651 20.9432 56.678 20.9058C56.7909 20.8684 56.8662 20.7936 56.9038 20.7188C56.9414 20.644 57.0167 20.5692 57.0167 20.4944C57.0543 20.4196 57.0543 20.3448 57.0543 20.2326Z" fill="white"/>
<path d="M58.9359 22.8505C58.9359 22.8879 58.8983 22.9253 58.8983 22.9253C58.8606 22.9253 58.8606 22.9253 58.823 22.9253H58.522C58.4843 22.9253 58.4467 22.8879 58.4843 22.8505L59.6885 19.2229C59.6885 19.1481 59.7261 19.1481 59.8014 19.1481H60.1401C60.1777 19.1481 60.2153 19.1481 60.2153 19.1855C60.2153 19.1855 60.253 19.2229 60.253 19.2603L61.4571 22.9253C61.4571 22.9627 61.4571 23.0001 61.4195 23.0001H61.0808C61.0432 23.0001 61.0432 23.0001 61.0056 23.0001C61.0056 23.0001 60.9679 22.9627 60.9679 22.9253L60.6669 21.9904H59.2369L58.9359 22.8505ZM60.253 20.5692L59.9896 19.6343L59.7261 20.5692L59.4251 21.5416H60.5916L60.253 20.5692Z" fill="white"/>
<path d="M65.3332 22.8505C65.3332 22.8879 65.3332 22.8879 65.3332 22.9253C65.3332 22.9627 65.2956 22.9627 65.2956 22.9627H64.9569C64.9193 22.9627 64.9193 22.9627 64.8817 22.9627C64.844 22.9627 64.844 22.9253 64.844 22.8879L64.0914 21.3546H63.3388V22.8505C63.3388 22.9253 63.3012 22.9627 63.2259 22.9627H62.9625C62.8872 22.9627 62.8496 22.9253 62.8496 22.8505V19.2229C62.8496 19.1481 62.8872 19.1481 62.9625 19.1481H64.129C64.2796 19.1481 64.4301 19.1855 64.543 19.2229C64.6935 19.2603 64.8064 19.3351 64.9193 19.4099C65.0322 19.4847 65.1074 19.5969 65.1827 19.7464C65.258 19.896 65.258 20.0456 65.258 20.2326C65.258 20.3448 65.258 20.457 65.2203 20.5692C65.1827 20.6814 65.1451 20.7936 65.1074 20.8684C65.0322 20.9806 64.9569 21.0554 64.8817 21.1302C64.7688 21.205 64.6559 21.2798 64.543 21.3172L65.3332 22.8505ZM64.8064 20.1952C64.8064 20.0456 64.7688 19.9334 64.7311 19.8586C64.6935 19.7838 64.6182 19.709 64.543 19.6716C64.4677 19.6343 64.3925 19.5969 64.3172 19.5595C64.2419 19.5221 64.129 19.5221 64.0538 19.5221H63.3388V20.9432H64.0538C64.129 20.9432 64.2419 20.9432 64.3172 20.9058C64.3925 20.9058 64.5054 20.8684 64.5806 20.7936C64.6559 20.7562 64.7311 20.6814 64.7688 20.5692C64.8064 20.4944 64.8064 20.3448 64.8064 20.1952Z" fill="white"/>
<path d="M68.0806 22.3641L68.5322 20.9804L69.0966 19.2227C69.0966 19.1853 69.1342 19.1479 69.2095 19.1479H69.5105C69.5482 19.1479 69.5858 19.1853 69.5482 19.2227L68.344 22.8503C68.344 22.8877 68.3064 22.9251 68.2311 22.9251H67.9301C67.8924 22.9251 67.8548 22.9251 67.8548 22.9251C67.8548 22.9251 67.8172 22.8877 67.8172 22.8503L66.613 19.1853C66.5754 19.1105 66.613 19.1105 66.6506 19.1105H66.9517C66.9893 19.1105 67.0269 19.1105 67.0269 19.1105C67.0269 19.1105 67.0646 19.1479 67.0646 19.1853L67.629 20.943L68.0806 22.3641Z" fill="white"/>
<path d="M70.8651 22.8505C70.8651 22.8879 70.8275 22.9253 70.8275 22.9253C70.7898 22.9253 70.7898 22.9253 70.7522 22.9253H70.4512C70.4135 22.9253 70.3759 22.8879 70.4135 22.8505L71.6177 19.2229C71.6177 19.1481 71.6553 19.1481 71.7306 19.1481H72.0693C72.1069 19.1481 72.1445 19.1481 72.1445 19.1855C72.1445 19.1855 72.1822 19.2229 72.1822 19.2603L73.3863 22.9253C73.3863 22.9627 73.3863 23.0001 73.3487 23.0001H73.01C72.9724 23.0001 72.9724 23.0001 72.9348 23.0001C72.9348 23.0001 72.8971 22.9627 72.8971 22.9253L72.5961 21.9904H71.1661L70.8651 22.8505ZM72.1445 20.5692L71.8811 19.6343L71.6177 20.5692L71.3167 21.5416H72.4832L72.1445 20.5692Z" fill="white"/>
<path d="M77.0364 22.9251C77.0364 22.9251 76.9987 22.9251 76.9611 22.9251H74.9291C74.8538 22.9251 74.8162 22.8877 74.8162 22.8503V19.2227C74.8162 19.1479 74.8538 19.1105 74.9291 19.1105H76.9235C76.9987 19.1105 77.0364 19.1479 77.0364 19.1853V19.4471C77.0364 19.5219 76.9987 19.5593 76.9235 19.5593H75.2677V20.7934H76.7353C76.8106 20.7934 76.8482 20.8308 76.8482 20.8682V21.0926C76.8482 21.1674 76.8106 21.1674 76.7353 21.1674H75.2677V22.5511H76.9611C77.0364 22.5511 77.0364 22.5885 77.0364 22.6633V22.8877C77.074 22.8877 77.074 22.9251 77.0364 22.9251Z" fill="white"/>
<path d="M82.4928 19.073C82.568 19.073 82.6057 19.073 82.7186 19.073C82.7938 19.073 82.9067 19.073 82.982 19.1104C83.0572 19.1478 83.1701 19.1478 83.283 19.1478C83.3959 19.1852 83.4712 19.1852 83.5464 19.2226C83.584 19.26 83.6217 19.26 83.6217 19.2974C83.6217 19.3348 83.6217 19.3348 83.6217 19.3722L83.5841 19.5218C83.5841 19.5592 83.584 19.5592 83.5464 19.5592C83.5464 19.5592 83.5088 19.5966 83.4712 19.5592C83.3583 19.5218 83.2077 19.5218 83.0196 19.5218C82.8314 19.5218 82.6809 19.4844 82.4928 19.4844C82.267 19.4844 82.0788 19.5218 81.9659 19.5966C81.8531 19.6714 81.7402 19.7836 81.6649 19.9332C81.5896 20.0828 81.552 20.2324 81.5144 20.4193C81.4767 20.6063 81.4767 20.7933 81.4767 21.0177C81.4767 21.2047 81.4767 21.3917 81.5144 21.5787C81.552 21.7657 81.5896 21.9153 81.6649 22.0649C81.7402 22.2145 81.8531 22.3267 81.9659 22.4015C82.0788 22.4763 82.267 22.5137 82.4928 22.5137C82.6809 22.5137 82.8314 22.5137 83.0196 22.4763C83.1701 22.4763 83.3206 22.4389 83.4712 22.4389C83.5088 22.4389 83.5464 22.4389 83.5464 22.4389L83.5841 22.4763L83.6217 22.6259C83.6217 22.6633 83.6217 22.6633 83.6217 22.7007C83.6217 22.7381 83.584 22.7381 83.5464 22.7381C83.4712 22.7754 83.3959 22.7755 83.283 22.8128C83.1701 22.8502 83.0949 22.8502 82.982 22.8502C82.8691 22.8502 82.7938 22.8876 82.7186 22.8876C82.6433 22.8876 82.568 22.8876 82.4928 22.8876C82.1917 22.8876 81.9283 22.8502 81.7402 22.7381C81.552 22.6259 81.4015 22.4763 81.2886 22.3267C81.1757 22.1397 81.1004 21.9527 81.0628 21.7283C81.0252 21.5039 80.9875 21.2421 80.9875 21.0177C80.9875 20.7559 80.9875 20.5315 81.0252 20.2698C81.0628 20.0454 81.1381 19.821 81.251 19.634C81.3639 19.447 81.5144 19.2974 81.7025 19.1852C81.9283 19.1478 82.1917 19.073 82.4928 19.073Z" fill="white"/>
<path d="M87.5351 22.8505C87.5351 22.8879 87.5351 22.8879 87.5351 22.9253C87.5351 22.9627 87.4975 22.9627 87.4975 22.9627H87.1588C87.1212 22.9627 87.1212 22.9627 87.0836 22.9627C87.0459 22.9627 87.0459 22.9253 87.0459 22.8879L86.2933 21.3546H85.5407V22.8505C85.5407 22.9253 85.5031 22.9627 85.4278 22.9627H85.1644C85.0891 22.9627 85.0515 22.9253 85.0515 22.8505V19.2229C85.0515 19.1481 85.0891 19.1481 85.1644 19.1481H86.3309C86.4815 19.1481 86.632 19.1855 86.7449 19.2229C86.8954 19.2603 87.0083 19.3351 87.1212 19.4099C87.2341 19.4847 87.3093 19.5969 87.3846 19.7464C87.4599 19.896 87.4599 20.0456 87.4599 20.2326C87.4599 20.3448 87.4599 20.457 87.4222 20.5692C87.3846 20.6814 87.347 20.7936 87.3093 20.8684C87.2341 20.9806 87.1588 21.0554 87.0836 21.1302C86.9707 21.205 86.8578 21.2798 86.7449 21.3172L87.5351 22.8505ZM87.0083 20.1952C87.0083 20.0456 86.9707 19.9334 86.933 19.8586C86.8954 19.7838 86.8201 19.709 86.7449 19.6716C86.6696 19.6343 86.5944 19.5969 86.5191 19.5595C86.4438 19.5221 86.3309 19.5221 86.2557 19.5221H85.5407V20.9432H86.2557C86.3309 20.9432 86.4438 20.9432 86.5191 20.9058C86.5944 20.9058 86.7073 20.8684 86.7825 20.7936C86.8578 20.7562 86.933 20.6814 86.9707 20.5692C86.9707 20.4944 87.0083 20.3448 87.0083 20.1952Z" fill="white"/>
<path d="M91.2982 22.9251C91.2982 22.9251 91.2606 22.9251 91.2229 22.9251H89.1909C89.1156 22.9251 89.078 22.8877 89.078 22.8503V19.2227C89.078 19.1479 89.1156 19.1105 89.1909 19.1105H91.1853C91.2606 19.1105 91.2982 19.1479 91.2982 19.1853V19.4471C91.2982 19.5219 91.2606 19.5593 91.1853 19.5593H89.5296V20.7934H90.9972C91.0724 20.7934 91.11 20.8308 91.11 20.8682V21.0926C91.11 21.1674 91.0724 21.1674 90.9972 21.1674H89.5296V22.5511H91.2229C91.2982 22.5511 91.2982 22.5885 91.2982 22.6633V22.8877V22.9251Z" fill="white"/>
<path d="M95.2873 21.8779C95.2873 22.1023 95.2497 22.2519 95.1744 22.4015C95.0992 22.5511 95.0239 22.6633 94.8734 22.7381C94.7229 22.8128 94.61 22.8876 94.4595 22.925C94.3089 22.9624 94.1208 22.9998 93.9703 22.9998C93.895 22.9998 93.7821 22.9998 93.7068 22.9998C93.594 22.9998 93.5187 22.9998 93.4058 22.9624C93.2929 22.9624 93.2176 22.925 93.1048 22.925C92.9919 22.8876 92.9166 22.8876 92.879 22.8502C92.8413 22.8128 92.8037 22.8128 92.8037 22.7755C92.8037 22.7381 92.8037 22.7381 92.8037 22.7007L92.8413 22.5511C92.8413 22.5137 92.879 22.4763 92.9542 22.4763C93.0295 22.4763 93.1424 22.5137 93.2176 22.5137C93.2929 22.5137 93.4058 22.5137 93.5187 22.5511C93.6316 22.5511 93.7068 22.5511 93.7821 22.5511C93.8574 22.5511 93.9326 22.5511 94.0079 22.5511C94.3089 22.5511 94.5347 22.5137 94.6476 22.4015C94.7981 22.2893 94.8734 22.1397 94.8734 21.9527C94.8734 21.8405 94.8734 21.7283 94.8358 21.6161C94.7981 21.5413 94.7605 21.4665 94.7229 21.3917C94.6476 21.3543 94.5723 21.2795 94.4595 21.2421C94.3466 21.2047 94.2337 21.1673 94.0831 21.1673C93.895 21.1299 93.7445 21.0925 93.5939 21.0551C93.4434 21.0177 93.2929 20.9429 93.2176 20.9055C93.1048 20.8307 93.0295 20.7559 92.9542 20.6063C92.879 20.4941 92.8413 20.3445 92.8413 20.1576C92.8413 19.821 92.9542 19.5218 93.1424 19.3348C93.3682 19.1478 93.6692 19.073 94.0455 19.073C94.1208 19.073 94.1584 19.073 94.2713 19.073C94.3466 19.073 94.4594 19.073 94.5347 19.1104C94.6476 19.1104 94.7229 19.1478 94.8358 19.1478C94.9486 19.1852 95.0239 19.1852 95.0992 19.2226C95.1368 19.2226 95.1744 19.26 95.1744 19.26C95.1744 19.2974 95.1744 19.2974 95.1744 19.3348L95.1368 19.4844C95.1368 19.5218 95.1368 19.5218 95.0992 19.5218C95.0992 19.5218 95.0615 19.5592 95.0239 19.5218C94.911 19.4844 94.7605 19.4844 94.5723 19.4844C94.3842 19.4844 94.2337 19.447 94.0455 19.447C93.895 19.447 93.7821 19.447 93.6692 19.4844C93.5563 19.5218 93.4811 19.5592 93.4434 19.5966C93.3682 19.634 93.3305 19.7088 93.3305 19.7836C93.2929 19.8584 93.2929 19.9706 93.2929 20.0454C93.2929 20.1576 93.2929 20.2697 93.3305 20.3071C93.3682 20.3819 93.4058 20.4193 93.4811 20.4567C93.5563 20.4941 93.6316 20.5315 93.7445 20.5689C93.8574 20.6063 93.9703 20.6063 94.1208 20.6437C94.2713 20.6811 94.4594 20.7185 94.61 20.7559C94.7605 20.7933 94.8734 20.8681 94.9863 20.9429C95.0992 21.0177 95.1744 21.1299 95.2497 21.2421C95.2497 21.5039 95.2873 21.6909 95.2873 21.8779Z" fill="white"/>
<path d="M98.2596 19.073C98.3349 19.073 98.3725 19.073 98.4854 19.073C98.5607 19.073 98.6735 19.073 98.7488 19.1104C98.8617 19.1104 98.937 19.1478 99.0499 19.1478C99.1627 19.1852 99.238 19.1852 99.3133 19.2226C99.3509 19.26 99.3885 19.26 99.3885 19.2974C99.3885 19.3348 99.3885 19.3348 99.3885 19.3722L99.3509 19.5218C99.3509 19.5592 99.3509 19.5592 99.3133 19.5592C99.3133 19.5592 99.2756 19.5966 99.238 19.5592C99.1251 19.5218 98.9746 19.5218 98.7864 19.5218C98.5983 19.5218 98.4478 19.4844 98.2596 19.4844C98.0338 19.4844 97.8457 19.5218 97.7328 19.5966C97.6199 19.6714 97.507 19.7836 97.4317 19.9332C97.3565 20.0828 97.3189 20.2324 97.2812 20.4193C97.2436 20.6063 97.2436 20.7933 97.2436 21.0177C97.2436 21.2047 97.2436 21.3917 97.2812 21.5787C97.3189 21.7657 97.3565 21.9153 97.4317 22.0649C97.507 22.2145 97.6199 22.3267 97.7328 22.4015C97.8457 22.4763 98.0338 22.5137 98.2596 22.5137C98.4478 22.5137 98.5983 22.5137 98.7864 22.4763C98.937 22.4763 99.0875 22.4389 99.238 22.4389C99.2756 22.4389 99.3133 22.4389 99.3133 22.4389L99.3509 22.4763L99.3885 22.6259C99.3885 22.6633 99.3885 22.6633 99.3885 22.7007C99.3885 22.7381 99.3509 22.7381 99.3133 22.7381C99.238 22.7754 99.1627 22.7755 99.0499 22.8128C98.937 22.8502 98.8617 22.8502 98.7488 22.8502C98.6359 22.8502 98.5607 22.8876 98.4854 22.8876C98.4101 22.8876 98.3349 22.8876 98.2596 22.8876C97.9586 22.8876 97.6952 22.8502 97.507 22.7381C97.3189 22.6259 97.1683 22.4763 97.0554 22.3267C96.9425 22.1397 96.8673 21.9527 96.8297 21.7283C96.792 21.5039 96.7544 21.2421 96.7544 21.0177C96.7544 20.7559 96.7544 20.5315 96.792 20.2698C96.8297 20.0454 96.9049 19.821 97.0178 19.634C97.1307 19.447 97.2812 19.2974 97.4694 19.1852C97.6952 19.1478 97.9586 19.073 98.2596 19.073Z" fill="white"/>
<path d="M102.211 22.5885C102.512 22.5885 102.738 22.5137 102.888 22.3641C103.039 22.2145 103.114 21.9528 103.114 21.6162V19.2601C103.114 19.2227 103.114 19.1853 103.151 19.1853C103.151 19.1853 103.189 19.1479 103.227 19.1479H103.49C103.528 19.1479 103.528 19.1479 103.565 19.1853C103.565 19.1853 103.603 19.2227 103.603 19.2601V21.5788C103.603 21.691 103.603 21.8032 103.603 21.9154C103.603 22.0276 103.565 22.1398 103.528 22.2519C103.415 22.5137 103.264 22.7007 103.039 22.8129C102.813 22.9251 102.549 22.9999 102.286 22.9999C101.646 22.9999 101.195 22.7381 101.044 22.2519C101.007 22.1398 100.969 22.0276 100.969 21.9154C100.969 21.8032 100.931 21.691 100.931 21.5414V19.2227C100.931 19.1853 100.931 19.1479 100.969 19.1479C100.969 19.1479 101.007 19.1105 101.044 19.1105H101.308C101.345 19.1105 101.345 19.1105 101.383 19.1479C101.383 19.1479 101.42 19.1853 101.42 19.2227V21.5788C101.42 21.9154 101.496 22.1398 101.646 22.3267C101.684 22.4763 101.91 22.5885 102.211 22.5885Z" fill="white"/>
<path d="M105.786 19.9334V22.8505C105.786 22.9253 105.748 22.9627 105.673 22.9627H105.447C105.372 22.9627 105.334 22.9253 105.334 22.8505V19.2229C105.334 19.1481 105.372 19.1481 105.41 19.1481H105.635C105.673 19.1481 105.711 19.1481 105.711 19.1855C105.711 19.1855 105.748 19.2229 105.748 19.2603L107.329 21.6538L107.63 22.14V19.2603C107.63 19.2229 107.63 19.1855 107.667 19.1855C107.667 19.1855 107.705 19.1481 107.743 19.1481H107.968C108.006 19.1481 108.006 19.1481 108.044 19.1855C108.044 19.1855 108.081 19.2229 108.081 19.2603V22.8879C108.081 22.9627 108.044 22.9627 108.006 22.9627H107.78C107.743 22.9627 107.705 22.9627 107.705 22.9253C107.667 22.9253 107.667 22.8879 107.63 22.8505L106.087 20.457L105.786 19.9334Z" fill="white"/>
<path d="M112.07 19.5219H111.092V22.8503C111.092 22.9251 111.054 22.9625 111.016 22.9625H110.753C110.678 22.9625 110.64 22.9251 110.64 22.8503V19.5219H109.662C109.586 19.5219 109.549 19.4845 109.549 19.4097V19.1853C109.549 19.1105 109.586 19.1105 109.662 19.1105H112.07C112.145 19.1105 112.183 19.1479 112.183 19.1853V19.4471C112.183 19.4845 112.145 19.5219 112.07 19.5219Z" fill="white"/>
</g>
</svg>
