<svg width="43" height="55" viewBox="0 0 43 55" fill="none" xmlns="http://www.w3.org/2000/svg">
<path d="M23.938 18.2444C23.5731 18.0058 23.0533 17.9104 23.0533 17.9104C23.0533 17.9104 23.4932 17.689 23.6729 17.4679C23.8529 17.2466 23.9428 16.9038 23.9578 16.726C23.9728 16.548 24.0078 15.8019 23.3381 15.3725C22.8201 15.0402 22.2264 14.9083 21.4293 14.8654V13.3596H20.3598V14.8476H19.5453V13.3596H18.4759V14.8476H16.372V15.8117H16.9904C17.159 15.8117 17.4589 15.828 17.5863 15.9517C17.7137 16.0753 17.7362 16.1405 17.7362 16.3811L17.7363 19.3471L17.7363 20.0775L17.7363 20.2227C17.7363 20.3138 17.7163 20.4265 17.6263 20.5003C17.5364 20.5741 17.4465 20.5913 17.2315 20.5913H16.5919L16.5877 20.6126L16.372 21.7064H18.4759V23.1901H19.5453V21.7064H20.3599V23.1901H21.4293V21.6819C21.7058 21.6679 21.9635 21.6497 22.1139 21.6326C22.1217 21.6317 22.1298 21.6308 22.1382 21.6299C22.2046 21.6224 22.2867 21.6131 22.3808 21.5996C22.7343 21.5489 23.257 21.4386 23.7531 21.1381C23.7682 21.129 23.7831 21.1197 23.7976 21.1103C24.0703 20.9344 24.2484 20.717 24.3631 20.4762C24.5038 20.1812 24.5494 19.8511 24.5575 19.5199C24.5727 18.9039 24.3025 18.483 23.938 18.2444ZM19.5453 15.8975C19.5453 15.8975 19.885 15.8715 20.2199 15.8757C20.5548 15.88 20.8495 15.8887 21.2894 16.0059C21.7291 16.1231 21.9888 16.4094 21.999 16.7478C22.0089 17.0862 21.8388 17.3117 21.5391 17.4549C21.2393 17.5981 20.8248 17.6762 20.4348 17.6891C20.0451 17.7021 19.5453 17.6891 19.5453 17.6891V15.8975ZM21.9389 20.3354C21.6941 20.4526 21.2043 20.5567 20.7296 20.587L20.7274 20.5872C20.2526 20.6174 19.5453 20.6044 19.5453 20.6044V20.3857V19.6553V18.6131C19.5453 18.6131 20.2249 18.5828 20.7547 18.6131C21.2844 18.6436 21.7291 18.7606 21.9289 18.8475C22.1288 18.9342 22.4787 19.125 22.4787 19.5806C22.4787 19.8314 22.3892 19.9994 22.268 20.1192C22.169 20.217 22.0489 20.2828 21.9389 20.3354Z" fill="#99CEFF"/>
<path fill-rule="evenodd" clip-rule="evenodd" d="M10.2328 1.44132C7.98935 1.44132 6.16249 3.31467 6.16249 5.63592C6.16249 7.95717 7.98935 9.83052 10.2328 9.83052C12.4762 9.83052 14.3031 7.95717 14.3031 5.63592C14.3031 3.31467 12.4762 1.44132 10.2328 1.44132ZM4.75266 5.63592C4.75266 2.52792 7.20168 0 10.2328 0C13.2639 0 15.7129 2.52792 15.7129 5.63592C15.7129 8.74391 13.2639 11.2718 10.2328 11.2718C7.20168 11.2718 4.75266 8.74391 4.75266 5.63592Z" fill="#99CEFF"/>
<path d="M12.9586 5.01373L13.0974 4.28167C13.0974 4.23287 13.0743 4.19626 13.028 4.19626H12.1139L12.2527 3.4154C12.2643 3.3788 12.2296 3.34219 12.1949 3.34219H11.327C11.2575 3.34219 11.1881 3.4032 11.1765 3.47641L10.8641 5.14794H9.78794L10.1119 3.4154C10.1119 3.3788 10.0772 3.34219 10.0309 3.34219H9.16306C9.09363 3.34219 9.0242 3.4032 9.01263 3.47641L8.87377 4.19626H8.01746C7.94803 4.19626 7.8786 4.25727 7.86703 4.33048L7.72817 5.06254C7.7166 5.11134 7.75131 5.14794 7.78603 5.14794H8.70019L8.52662 6.09962H7.65874C7.58931 6.09962 7.51988 6.16063 7.50831 6.23383L7.36945 6.96589C7.35788 7.0147 7.39259 7.0513 7.42731 7.0513H8.34147L8.20261 7.83216C8.19104 7.88097 8.22575 7.91757 8.26047 7.91757H9.12835C9.19778 7.91757 9.26721 7.85656 9.27878 7.78336L9.59122 6.11182H10.6674L10.3434 7.84436C10.3318 7.89317 10.3665 7.92977 10.4012 7.92977H11.3038C11.3733 7.92977 11.4427 7.86877 11.4543 7.79556L11.5931 7.0757H12.461C12.5304 7.0757 12.5999 7.0147 12.6114 6.94149L12.7503 6.20943C12.7619 6.16063 12.7272 6.12402 12.6924 6.12402H11.7783L11.9518 5.17234H12.8197C12.8776 5.14794 12.947 5.08694 12.9586 5.01373Z" fill="#99CEFF"/>
<path fill-rule="evenodd" clip-rule="evenodd" d="M35.4733 1.44132C32.0996 1.44132 29.3565 4.2578 29.3565 7.74246C29.3565 11.2271 32.0996 14.0436 35.4733 14.0436C38.8471 14.0436 41.5902 11.2271 41.5902 7.74246C41.5902 4.2578 38.8471 1.44132 35.4733 1.44132ZM27.9467 7.74246C27.9467 3.47105 31.312 0 35.4733 0C39.6347 0 43 3.47105 43 7.74246C43 12.0139 39.6347 15.4849 35.4733 15.4849C31.312 15.4849 27.9467 12.0139 27.9467 7.74246Z" fill="#99CEFF"/>
<path d="M35.3806 9.65378V6.56621L32.5493 7.88726L35.3806 9.65378ZM35.3806 6.35394V2.7286L32.6405 7.63235L35.3806 6.35394ZM35.5631 2.7271V6.35394L38.3418 7.65043L35.5631 2.7271ZM35.5631 6.56621V9.65387L38.3965 7.88814L35.5631 6.56621ZM35.3806 12.7582V10.2748L32.5683 8.52101L35.3806 12.7582ZM35.5631 12.7582L38.3755 8.52101L35.5631 10.2748V12.7582Z" fill="#99CEFF"/>
<path fill-rule="evenodd" clip-rule="evenodd" d="M12.3016 18.2752C12.3016 13.6271 15.961 9.86753 20.4649 9.86753C24.9689 9.86753 28.6283 13.6271 28.6283 18.2752C28.6283 19.2745 28.4592 20.2327 28.1489 21.1213C28.0675 21.3542 27.9765 21.5824 27.8763 21.8052C27.7727 22.0354 27.6594 22.2599 27.5368 22.4782C26.1248 24.9929 23.4847 26.6829 20.4649 26.6829C16.5026 26.6829 13.1939 23.7731 12.4554 19.9085C12.4084 19.6624 12.3718 19.4124 12.3461 19.1591C12.3215 18.9161 12.3069 18.67 12.3028 18.4213C12.302 18.3727 12.3016 18.324 12.3016 18.2752ZM10.8922 18.1809C10.9414 12.7894 15.2039 8.42622 20.4649 8.42622C25.7566 8.42622 30.0381 12.8404 30.0381 18.2752C30.0381 19.3529 29.8698 20.3905 29.5586 21.3615L36.0569 22.4687C38.256 22.8434 39.9123 24.6696 40.1506 26.8911C39.8835 26.5976 39.5872 26.3329 39.2667 26.1016C38.9394 25.8655 38.587 25.6643 38.2149 25.503C37.6923 24.6685 36.8396 24.0633 35.8251 23.8904L29.0058 22.7285C28.355 24.047 27.4242 25.1949 26.2937 26.089L24.7716 26.2568L17.8969 27.015L16.3749 27.1828C13.5193 25.7926 11.4409 22.9919 10.9854 19.658L10.4482 19.5665C8.29989 19.2004 6.34423 20.8941 6.34423 23.1207V28.2891L5.67117 28.3633L5.63931 28.3669C5.39912 28.3948 5.16385 28.4378 4.9344 28.4951V23.1207C4.9344 20.0035 7.67233 17.6323 10.68 18.1448L10.8922 18.1809ZM4.9344 29.9938C3.24143 30.5715 2.04652 32.2031 2.04652 34.0952V38.6387C0.91626 38.6387 0 39.5755 0 40.731V44.9727C0 46.1282 0.91626 47.0649 2.04652 47.0649V50.6756C2.04652 53.2472 4.22873 55.2504 6.72963 54.9746L36.4725 51.6944C38.6203 51.4575 40.2483 49.6039 40.2483 47.3954V30.815C40.2483 30.5485 40.2249 30.2881 40.1801 30.0358C40.068 29.4043 39.8222 28.8229 39.4752 28.3215C39.2726 28.0288 39.0354 27.7633 38.7703 27.531C37.9195 26.7857 36.7799 26.382 35.5652 26.516L21.5591 28.0606L21.4359 28.0742L6.34423 29.7386L5.82238 29.7961C5.76092 29.8029 5.69989 29.811 5.63931 29.8204C5.39653 29.8581 5.161 29.9165 4.9344 29.9938ZM27.7217 41.574L27.9933 38.455L28.0132 38.2264L30.9113 37.9534C31.1804 37.9281 31.4098 37.7105 31.4316 37.4387L31.4318 37.4371L31.4948 36.7103L31.6556 34.8582C31.6651 34.7098 31.5622 34.5719 31.4274 34.5846L28.3495 34.8745L28.5828 32.1472C28.5923 31.9987 28.4894 31.8608 28.3546 31.8735L25.434 32.1486C25.1869 32.1719 24.9818 32.4125 24.9585 32.6607L24.5482 37.3021L24.4838 38.0306L24.4389 38.5384L20.8219 38.8791L20.8709 38.3384L20.9371 37.6098L21.3712 32.8264C21.3807 32.6779 21.2778 32.54 21.143 32.5527L18.2224 32.8278C17.9753 32.8511 17.7701 33.0918 17.7469 33.3399L17.5187 35.87L14.6206 36.1429C14.3735 36.1662 14.1683 36.4069 14.1451 36.655L14.011 38.1999L13.9477 38.9282L13.9212 39.2338C13.9118 39.3823 14.0146 39.5202 14.1494 39.5075L17.2048 39.2197L17.1913 39.3752L16.9134 42.5674L13.9928 42.8424C13.7457 42.8657 13.5405 43.1064 13.5173 43.3545L13.2934 45.9334C13.284 46.0818 13.3868 46.2197 13.5216 46.207L16.5995 45.9171L16.3662 48.6444C16.3567 48.7929 16.4596 48.9308 16.5944 48.9181L19.515 48.643C19.7621 48.6197 19.9673 48.3791 19.9905 48.1309L20.5101 42.2532L24.1272 41.9125L23.5778 47.9652C23.5683 48.1137 23.6712 48.2516 23.806 48.2389L26.7266 47.9638C26.9737 47.9405 27.1789 47.6999 27.2021 47.4517L27.4303 44.9216L30.3284 44.6487C30.5756 44.6254 30.7807 44.3848 30.804 44.1366L31.0278 41.5578C31.0373 41.4093 30.9344 41.2714 30.7996 41.2841L27.7217 41.574ZM5.45749 45.6604C6.96451 45.6604 8.18619 44.4029 8.18619 42.8517C8.18619 41.3005 6.96451 40.043 5.45749 40.043C3.95047 40.043 2.72879 41.3005 2.72879 42.8517C2.72879 44.4029 3.95047 45.6604 5.45749 45.6604Z" fill="#99CEFF"/>
</svg>
