<svg width="15" height="14" viewBox="0 0 15 14" fill="none" xmlns="http://www.w3.org/2000/svg">
<path fill-rule="evenodd" clip-rule="evenodd" d="M12.8419 10.3682C11.9472 9.89457 10.6314 8.84195 8.68406 8.47354C9.15774 7.8946 9.52615 6.99988 9.9472 5.94727C10.1577 5.3157 10.1051 4.78939 10.1051 4.05256C10.1051 3.47362 10.2104 2.63153 10.0525 2.10523C9.63141 0.473676 8.52617 -7.84258e-10 7.26303 -7.84258e-10C5.9999 -7.84258e-10 4.89465 0.473676 4.47361 2.10523C4.36835 2.63153 4.42098 3.47362 4.42098 4.05256C4.42098 4.78939 4.36835 5.3157 4.6315 5.94727C4.99991 6.99988 5.36833 7.8946 5.89464 8.47354C3.9473 8.84195 2.63153 9.9472 1.78944 10.3682C0 11.263 0 12.2103 0 12.2103V12.5787C0 13.2103 0.684199 13.8419 1.3684 13.8419H13.3682C14.2103 13.8419 14.7366 13.1577 14.7366 12.5261V12.2103C14.684 12.2103 14.684 11.263 12.8419 10.3682Z" fill="#99CEFF"/>
</svg>
