<svg width="16" height="16" viewBox="0 0 16 16" fill="none" xmlns="http://www.w3.org/2000/svg">
<path d="M0 0.00012207V7.30445H7.30411V0.00012207H0ZM6.26067 6.26098H1.04343V1.04359H6.26067V6.26098Z" fill="#99CEFF"/>
<path d="M5.21871 2.08679H2.08838V5.21722H5.21871V2.08679Z" fill="#99CEFF"/>
<path d="M8.69482 0V7.30433H15.9989V0H8.69482ZM14.9555 6.26086H9.73826V1.04347H14.9555V6.26086Z" fill="#99CEFF"/>
<path d="M13.9145 2.08679H10.7842V5.21722H13.9145V2.08679Z" fill="#99CEFF"/>
<path d="M0 8.69568V16H7.30411V8.69568H0ZM6.26067 14.9565H1.04343V9.73915H6.26067V14.9565Z" fill="#99CEFF"/>
<path d="M5.21871 10.7826H2.08838V13.913H5.21871V10.7826Z" fill="#99CEFF"/>
<path d="M10.7817 9.73915V8.69568H8.69482V16H10.7817V14.9565H9.73826V12.8696H10.7817V11.8261H9.73826V9.73915H10.7817Z" fill="#99CEFF"/>
<path d="M15.9995 8.69568H14.9561V9.73915H15.9995V8.69568Z" fill="#99CEFF"/>
<path d="M14.9556 11.1304V14.9565H13.9121V15.9999H15.999V11.1304H14.9556Z" fill="#99CEFF"/>
<path d="M13.9136 8.69568H11.8267V9.73915H13.9136V8.69568Z" fill="#99CEFF"/>
<path d="M13.9135 11.8261V10.7826H11.8267V13.913H13.9135V12.8696H12.8701V11.8261H13.9135Z" fill="#99CEFF"/>
<path d="M12.8701 14.9565H11.8267V16H12.8701V14.9565Z" fill="#99CEFF"/>
</svg>
