<svg width="346" height="156" viewBox="0 0 346 156" fill="none" xmlns="http://www.w3.org/2000/svg">
<g opacity="0.3">
<mask id="path-1-inside-1" fill="white">
<path d="M0 6C0 2.68629 3.43189 0 7.66535 0H415.462C419.695 0 423.127 2.68629 423.127 6V150C423.127 153.314 419.695 156 415.462 156H7.66535C3.43189 156 0 153.314 0 150V6Z"/>
</mask>
<path d="M0 6C0 2.68629 3.43189 0 7.66535 0H415.462C419.695 0 423.127 2.68629 423.127 6V150C423.127 153.314 419.695 156 415.462 156H7.66535C3.43189 156 0 153.314 0 150V6Z" fill="white" fill-opacity="0.2"/>
<path d="M1 6C1 3.45283 3.74222 1 7.66535 1V-1C3.12156 -1 -1 1.91974 -1 6H1ZM7.66535 1H415.462V-1H7.66535V1ZM415.462 1C419.385 1 422.127 3.45283 422.127 6H424.127C424.127 1.91974 420.006 -1 415.462 -1V1ZM422.127 6V150H424.127V6H422.127ZM422.127 150C422.127 152.547 419.385 155 415.462 155V157C420.006 157 424.127 154.08 424.127 150H422.127ZM415.462 155H7.66535V157H415.462V155ZM7.66535 155C3.74222 155 1 152.547 1 150H-1C-1 154.08 3.12157 157 7.66535 157V155ZM1 150V6H-1V150H1Z" fill="white" mask="url(#path-1-inside-1)"/>
</g>
<path opacity="0.3" d="M44.348 63.3748C44.348 69.5604 39.3338 74.5748 33.1486 74.5748C26.9634 74.5748 21.9492 69.5604 21.9492 63.3748C21.9492 57.1892 26.9634 52.1748 33.1486 52.1748C39.3338 52.1748 44.348 57.1892 44.348 63.3748Z" stroke="white"/>
<rect opacity="0.3" x="9.74927" y="88.7251" width="44.8476" height="8.775" fill="white"/>
<rect opacity="0.3" x="9.74927" y="101.4" width="44.8476" height="8.775" fill="white"/>
</svg>
