<svg width="11" height="13" viewBox="0 0 11 13" fill="none" xmlns="http://www.w3.org/2000/svg"><path d="M9.377 6.276c-.424-.297-1.029-.415-1.029-.415s.512-.276.72-.55c.21-.276.314-.702.332-.923.017-.222.058-1.15-.72-1.684-.603-.413-1.293-.577-2.22-.63V.2H5.217v1.85H4.27V.202H3.027v1.85H.58v1.2h.72c.196 0 .544.02.692.174.148.153.175.234.175.534v4.777c0 .113-.024.254-.128.345-.105.092-.21.114-.46.114H.837L.581 10.58h2.446v1.846H4.27V10.58h.947v1.846H6.46V10.55c.322-.018.621-.04.796-.061.355-.043 1.156-.13 1.906-.615.75-.486.918-1.247.935-2.013.018-.766-.296-1.29-.72-1.586zM4.27 3.357s.395-.032.784-.027c.39.006.732.016 1.244.162.51.146.813.502.825.923.011.42-.187.701-.535.88-.349.177-.83.274-1.284.29-.453.017-1.034 0-1.034 0V3.357zm2.783 5.52c-.285.145-.854.275-1.406.312-.552.038-1.377.022-1.377.022V6.734s.79-.037 1.406 0c.616.038 1.133.184 1.365.292.232.108.64.345.64.912 0 .566-.344.793-.628.938z" fill="#99CEFF"/></svg>