<svg width="20" height="20" viewBox="0 0 20 20" fill="none" xmlns="http://www.w3.org/2000/svg">
<path d="M7.56366 0H1.89093C0.84803 0 0 0.848025 0 1.89092V7.56362C0 8.60646 0.84803 9.45453 1.89093 9.45453H7.56366C8.60651 9.45453 9.45459 8.60651 9.45459 7.56362V1.89092C9.45454 0.848025 8.60651 0 7.56366 0Z" fill="white"/>
<path d="M18.1086 0H12.4358C11.393 0 10.5449 0.848025 10.5449 1.89092V7.56362C10.5449 8.60646 11.393 9.45453 12.4358 9.45453H18.1086C19.1514 9.45453 19.9995 8.60651 19.9995 7.56362V1.89092C19.9995 0.848025 19.1514 0 18.1086 0Z" fill="white"/>
<path d="M7.56366 10.5454H1.89093C0.84803 10.5454 0 11.3934 0 12.4363V18.109C0 19.1519 0.84803 19.9999 1.89093 19.9999H7.56366C8.60651 19.9999 9.45459 19.1519 9.45459 18.109V12.4363C9.45454 11.3934 8.60651 10.5454 7.56366 10.5454Z" fill="white"/>
<path d="M17.6366 14.3272H16.2184V12.909C16.2184 12.6477 16.0069 12.4363 15.7456 12.4363H14.8002C14.5389 12.4363 14.3275 12.6477 14.3275 12.909V14.3272H12.9093C12.648 14.3272 12.4365 14.5386 12.4365 14.7999V15.7454C12.4365 16.0067 12.648 16.2181 12.9093 16.2181H14.3275V17.6363C14.3275 17.8976 14.5389 18.109 14.8002 18.109H15.7456C16.0069 18.109 16.2184 17.8976 16.2184 17.6363V16.2181H17.6366C17.8979 16.2181 18.1093 16.0067 18.1093 15.7454V14.7999C18.1093 14.5386 17.8979 14.3272 17.6366 14.3272Z" fill="white"/>
</svg>
