<svg width="20" height="20" viewBox="0 0 20 20" fill="none" xmlns="http://www.w3.org/2000/svg">
<path d="M18.8657 8.01185H16.0597C15.8806 7.47773 15.6418 7.00295 15.403 6.52817L17.2537 4.68843C17.6716 4.273 17.6716 3.56085 17.2537 3.14542L16.4776 2.37387C16.0597 1.95844 15.3433 1.95844 14.9254 2.37387L13.0746 4.21366C12.597 3.91692 12 3.67951 11.403 3.56082V1.1276C11.403 0.534125 10.9254 -1.44891e-05 10.2687 -1.44891e-05H9.13433C8.53731 -1.44891e-05 8 0.474777 8 1.1276V3.56082C7.34329 3.73886 6.74627 3.97628 6.20896 4.33236L4.65672 2.78931C4.23881 2.37388 3.52238 2.37388 3.10447 2.78931L2.32836 3.56082C1.91045 3.97625 1.91045 4.68843 2.32836 5.10386L3.94029 6.70625C3.58208 7.29972 3.34329 7.95251 3.22388 8.60533H1.13433C0.537317 8.60533 7.28778e-06 9.08012 7.28778e-06 9.73294V10.8605C7.28778e-06 11.454 0.477616 11.9881 1.13433 11.9881H3.34328C3.52238 12.6409 3.82089 13.2938 4.2388 13.8279L2.74626 15.3116C2.32835 15.727 2.32835 16.4392 2.74626 16.8546L3.52239 17.6261C3.9403 18.0415 4.65672 18.0415 5.07463 17.6261L6.74627 15.9644C7.34328 16.2611 7.9403 16.4392 8.59702 16.5579V18.8724C8.59702 19.4659 9.07463 20 9.73134 20H10.8657C11.4627 20 12 19.5252 12 18.8724V16.2611C12.5373 16.0831 13.0746 15.7864 13.5522 15.4896L15.3433 17.27C15.7612 17.6855 16.4776 17.6855 16.8955 17.27L17.6716 16.4985C18.0895 16.0831 18.0895 15.3709 17.6716 14.9555L15.7015 12.997C15.9403 12.5223 16.1194 11.9881 16.2388 11.454H18.8657C19.4627 11.454 20 10.9792 20 10.3264V9.1988C19.9403 8.48663 19.4627 8.01185 18.8657 8.01185ZM9.73134 12.7003C8.1791 12.7003 6.98507 11.454 6.98507 9.97034C6.98507 8.42731 8.23881 7.24035 9.73134 7.24035C11.2836 7.24035 12.4776 8.48666 12.4776 9.97034C12.4776 11.454 11.2239 12.7003 9.73134 12.7003Z" fill="white"/>
</svg>
